{"glyphs":{"0":{"ha":894,"x_min":64,"x_max":831,"o":"m 447 139 q 556 188 513 139 q 619 319 599 238 q 639 497 639 400 q 619 671 639 593 q 556 795 599 749 q 447 842 513 842 q 339 795 382 842 q 276 671 296 749 q 256 497 256 593 q 276 319 256 400 q 339 188 296 238 q 447 139 382 139 m 64 496 q 101 748 64 635 q 223 931 138 861 q 447 1001 308 1001 q 672 931 586 1001 q 794 748 757 861 q 831 496 831 635 q 794 240 831 356 q 671 51 757 124 q 447 -21 585 -21 q 224 51 310 -21 q 101 240 138 124 q 64 496 64 356 z "},"1":{"ha":625,"x_min":51,"x_max":493,"o":"m 301 0 l 301 683 l 51 683 l 51 804 q 226 845 157 804 q 328 992 296 886 l 493 992 l 493 0 l 301 0 z "},"2":{"ha":833,"x_min":60,"x_max":778,"o":"m 74 665 q 121 844 74 767 q 249 963 168 921 q 426 1004 329 1004 q 600 966 522 1004 q 722 861 678 928 q 767 710 767 794 q 744 574 767 632 q 677 467 721 515 q 558 361 633 419 q 458 290 507 322 q 365 224 397 250 q 311 165 332 197 l 778 165 l 778 0 l 60 0 q 93 179 61 107 q 183 305 125 251 q 344 426 240 358 q 492 528 450 496 q 554 599 533 561 q 575 697 575 638 q 557 771 575 738 q 505 824 539 804 q 425 844 471 844 q 342 823 378 844 q 285 761 306 801 q 265 665 265 721 l 74 665 z "},"3":{"ha":825,"x_min":46,"x_max":774,"o":"m 78 713 q 126 866 85 800 q 240 968 168 932 q 410 1004 313 1004 q 582 972 508 1004 q 696 880 656 940 q 736 735 736 819 q 701 606 736 656 q 608 525 667 557 q 774 276 774 460 q 733 133 774 201 q 615 22 693 65 q 428 -21 536 -21 q 234 13 317 -21 q 103 113 151 47 q 47 272 56 179 l 46 288 l 238 288 l 240 274 q 297 174 247 210 q 419 138 347 138 q 506 156 468 138 q 566 210 544 175 q 588 293 588 246 q 540 398 588 358 q 407 438 493 438 q 329 436 350 438 l 329 590 l 408 590 q 509 625 472 593 q 546 718 546 657 q 508 811 546 778 q 410 844 471 844 q 315 815 350 844 q 272 733 281 786 l 268 713 l 78 713 z "},"4":{"ha":833,"x_min":39,"x_max":778,"o":"m 39 422 l 456 992 l 658 992 l 658 390 l 778 390 l 778 231 l 658 231 l 658 0 l 467 0 l 467 231 l 39 231 l 39 422 m 467 390 l 467 750 l 461 750 l 206 390 l 467 390 z "},"5":{"ha":831,"x_min":58,"x_max":789,"o":"m 315 833 l 282 610 q 456 667 354 667 q 631 625 556 667 q 747 507 706 583 q 789 326 789 431 q 742 150 789 229 q 612 25 694 71 q 428 -21 529 -21 q 169 60 257 -21 q 58 263 82 140 l 250 265 q 281 204 258 232 q 341 159 304 176 q 425 142 378 142 q 513 166 474 142 q 574 233 551 190 q 597 329 597 276 q 576 421 597 379 q 515 486 554 463 q 425 510 475 510 q 328 486 365 510 q 261 421 290 463 l 76 435 l 156 994 l 711 992 l 711 833 l 315 833 z "},"6":{"ha":885,"x_min":64,"x_max":821,"o":"m 64 469 q 104 736 64 615 q 232 931 144 857 q 454 1006 319 1006 q 692 934 607 1006 q 796 746 776 863 l 604 746 q 577 797 592 776 q 533 833 563 818 q 454 847 503 847 q 317 772 360 847 q 261 576 274 697 q 347 641 290 613 q 481 669 404 669 q 657 626 579 669 q 778 508 735 583 q 821 340 821 433 q 775 155 821 238 q 644 25 729 72 q 446 -22 558 -22 q 282 13 356 -22 q 158 114 208 49 q 86 265 108 175 q 64 469 64 354 m 269 324 q 292 228 269 271 q 356 163 315 186 q 447 139 396 139 q 540 163 499 139 q 606 228 582 186 q 629 324 629 271 q 606 419 629 376 q 540 485 582 461 q 447 510 499 510 q 353 485 394 510 q 291 417 313 460 q 269 324 269 374 z "},"7":{"ha":753,"x_min":19,"x_max":707,"o":"m 707 856 q 527 616 608 758 q 394 313 446 474 q 335 0 343 151 l 143 0 q 205 335 157 178 q 324 617 253 493 q 475 826 394 740 l 19 826 l 19 992 l 707 992 l 707 856 z "},"8":{"ha":856,"x_min":64,"x_max":792,"o":"m 429 1008 q 605 973 531 1008 q 717 878 679 938 q 756 747 756 818 q 715 607 756 664 q 608 526 675 550 q 698 478 656 514 q 766 390 740 443 q 792 274 792 338 q 749 117 792 183 q 624 15 706 51 q 431 -21 543 -21 q 233 15 315 -21 q 108 116 151 50 q 64 271 64 182 q 90 389 64 336 q 159 477 117 442 q 249 526 201 513 q 142 608 181 551 q 103 747 103 664 q 142 878 103 818 q 254 973 181 938 q 429 1008 328 1008 m 251 283 q 272 205 251 242 q 331 146 292 168 q 429 124 371 124 q 526 146 486 124 q 585 204 565 168 q 604 283 604 240 q 585 363 604 326 q 526 422 565 400 q 429 444 486 444 q 331 422 371 444 q 272 363 292 400 q 251 283 251 326 m 286 729 q 303 663 286 693 q 352 615 319 633 q 429 597 385 597 q 507 615 475 597 q 556 662 539 632 q 572 729 572 692 q 556 795 572 765 q 507 843 539 825 q 429 861 475 861 q 352 843 385 861 q 303 795 319 825 q 286 729 286 765 z "},"9":{"ha":885,"x_min":64,"x_max":821,"o":"m 64 644 q 110 830 64 747 q 240 960 156 913 q 438 1007 325 1007 q 587 978 518 1007 q 706 896 656 949 q 821 515 821 772 q 781 247 821 368 q 653 51 740 125 q 432 -22 565 -22 q 256 12 329 -22 q 140 104 182 46 q 86 238 99 163 l 278 238 q 305 187 289 208 q 352 151 321 165 q 432 136 383 136 q 567 210 524 136 q 621 407 611 285 q 536 344 590 374 q 407 315 482 315 q 229 358 307 315 q 108 476 151 401 q 64 644 64 551 m 256 661 q 279 566 256 608 q 344 499 303 524 q 438 475 386 475 q 531 501 490 475 q 594 569 572 526 q 617 661 617 613 q 593 756 617 714 q 529 822 569 799 q 438 846 489 846 q 344 822 386 846 q 279 756 303 799 q 256 661 256 714 z "},"\u0000":{"ha":707,"x_min":0,"x_max":0,"o":""},"\r":{"ha":315,"x_min":0,"x_max":0,"o":""}," ":{"ha":315,"x_min":0,"x_max":0,"o":""},"A":{"ha":996,"x_min":14,"x_max":982,"o":"m 14 0 l 371 992 l 628 992 l 982 0 l 767 0 l 682 249 l 313 249 l 226 0 l 14 0 m 626 411 l 499 804 l 494 804 l 367 411 l 626 411 z "},"Á":{"ha":996,"x_min":14,"x_max":982,"o":"m 14 0 l 371 992 l 628 992 l 982 0 l 767 0 l 682 249 l 313 249 l 226 0 l 14 0 m 626 411 l 499 804 l 494 804 l 367 411 l 626 411 m 739 1222 l 550 1064 l 367 1064 l 519 1222 l 739 1222 z "},"Ă":{"ha":996,"x_min":14,"x_max":982,"o":"m 14 0 l 371 992 l 628 992 l 982 0 l 767 0 l 682 249 l 313 249 l 226 0 l 14 0 m 626 411 l 499 804 l 494 804 l 367 411 l 626 411 m 710 1222 q 674 1133 703 1172 q 599 1072 644 1093 q 499 1050 554 1050 q 397 1072 443 1050 q 323 1133 351 1093 q 289 1222 294 1172 l 418 1222 q 443 1176 421 1194 q 499 1158 465 1158 q 553 1176 532 1158 q 578 1222 575 1194 l 710 1222 z "},"Â":{"ha":996,"x_min":14,"x_max":982,"o":"m 14 0 l 371 992 l 628 992 l 982 0 l 767 0 l 682 249 l 313 249 l 226 0 l 14 0 m 626 411 l 499 804 l 494 804 l 367 411 l 626 411 m 390 1219 l 610 1219 l 738 1058 l 560 1058 l 499 1139 l 439 1058 l 261 1058 l 390 1219 z "},"Ä":{"ha":996,"x_min":14,"x_max":982,"o":"m 14 0 l 371 992 l 628 992 l 982 0 l 767 0 l 682 249 l 313 249 l 226 0 l 14 0 m 626 411 l 499 804 l 494 804 l 367 411 l 626 411 m 449 1222 l 449 1064 l 296 1064 l 296 1222 l 449 1222 m 551 1222 l 701 1222 l 701 1064 l 551 1064 l 551 1222 z "},"À":{"ha":996,"x_min":14,"x_max":982,"o":"m 14 0 l 371 992 l 628 992 l 982 0 l 767 0 l 682 249 l 313 249 l 226 0 l 14 0 m 626 411 l 499 804 l 494 804 l 367 411 l 626 411 m 615 1064 l 432 1064 l 243 1222 l 463 1222 l 615 1064 z "},"Ā":{"ha":996,"x_min":14,"x_max":982,"o":"m 14 0 l 371 992 l 628 992 l 982 0 l 767 0 l 682 249 l 313 249 l 226 0 l 14 0 m 626 411 l 499 804 l 494 804 l 367 411 l 626 411 m 728 1182 l 728 1096 l 269 1096 l 269 1182 l 728 1182 z "},"Ą":{"ha":996,"x_min":14,"x_max":982,"o":"m 14 0 l 371 992 l 628 992 l 982 0 q 871 -67 908 -33 q 832 -132 833 -101 q 850 -178 831 -165 q 919 -192 869 -192 l 907 -297 q 736 -266 794 -297 q 678 -164 678 -235 q 714 -78 678 -118 q 815 0 750 -37 l 767 0 l 682 249 l 313 249 l 226 0 l 14 0 m 626 411 l 499 804 l 494 804 l 367 411 l 626 411 z "},"Å":{"ha":996,"x_min":14,"x_max":982,"o":"m 14 0 l 371 992 l 628 992 l 982 0 l 767 0 l 682 249 l 313 249 l 226 0 l 14 0 m 626 411 l 499 804 l 494 804 l 367 411 l 626 411 m 343 1200 q 365 1277 343 1242 q 422 1333 386 1313 q 499 1354 457 1354 q 576 1333 540 1354 q 633 1277 613 1313 q 654 1200 654 1242 q 633 1123 654 1158 q 576 1067 613 1088 q 499 1046 540 1046 q 422 1067 457 1046 q 365 1123 386 1088 q 343 1200 343 1158 m 442 1199 q 457 1156 442 1172 q 499 1139 472 1139 q 542 1156 525 1139 q 558 1199 558 1172 q 542 1241 558 1225 q 499 1257 525 1257 q 457 1241 472 1257 q 442 1199 442 1225 z "},"Ǻ":{"ha":996,"x_min":14,"x_max":982,"o":"m 14 0 l 371 992 l 628 992 l 982 0 l 767 0 l 682 249 l 313 249 l 226 0 l 14 0 m 343 1200 q 365 1277 343 1242 q 421 1333 386 1313 l 551 1468 l 771 1468 l 594 1321 q 638 1267 622 1299 q 654 1200 654 1236 q 633 1123 654 1158 q 576 1067 613 1088 q 499 1046 540 1046 q 422 1067 457 1046 q 365 1123 386 1088 q 343 1200 343 1158 m 626 411 l 499 804 l 494 804 l 367 411 l 626 411 m 442 1199 q 457 1156 442 1172 q 499 1139 472 1139 q 542 1156 525 1139 q 558 1199 558 1172 q 542 1241 558 1225 q 499 1257 525 1257 q 457 1241 472 1257 q 442 1199 442 1225 z "},"Ã":{"ha":996,"x_min":14,"x_max":982,"o":"m 14 0 l 371 992 l 628 992 l 982 0 l 767 0 l 682 249 l 313 249 l 226 0 l 14 0 m 626 411 l 499 804 l 494 804 l 367 411 l 626 411 m 254 1054 q 274 1138 254 1100 q 330 1199 294 1176 q 410 1222 365 1222 q 458 1215 436 1222 q 510 1192 479 1207 q 546 1175 532 1181 q 574 1169 560 1169 q 608 1183 594 1169 q 625 1222 621 1196 l 742 1222 q 720 1134 740 1172 q 667 1075 700 1096 q 592 1054 633 1054 q 535 1063 560 1054 q 482 1086 511 1071 q 449 1101 465 1094 q 421 1107 433 1107 q 384 1092 399 1107 q 367 1054 369 1078 l 254 1054 z "},"Æ":{"ha":1375,"x_min":14,"x_max":1303,"o":"m 546 992 l 1299 992 l 1299 825 l 881 825 l 881 590 l 1269 590 l 1269 428 l 881 428 l 881 167 l 1303 167 l 1303 0 l 676 0 l 676 260 l 372 260 l 240 0 l 14 0 l 546 992 m 676 411 l 676 825 l 657 825 l 447 411 l 676 411 z "},"Ǽ":{"ha":1375,"x_min":14,"x_max":1303,"o":"m 546 992 l 1299 992 l 1299 825 l 881 825 l 881 590 l 1269 590 l 1269 428 l 881 428 l 881 167 l 1303 167 l 1303 0 l 676 0 l 676 260 l 372 260 l 240 0 l 14 0 l 546 992 m 676 411 l 676 825 l 657 825 l 447 411 l 676 411 m 1219 1222 l 1031 1064 l 847 1064 l 1000 1222 l 1219 1222 z "},"B":{"ha":886,"x_min":99,"x_max":832,"o":"m 99 992 l 447 992 q 705 926 611 992 q 799 731 799 861 q 757 592 799 646 q 631 508 715 538 l 631 506 q 776 433 719 486 q 832 283 832 381 q 731 66 832 132 q 440 0 629 0 l 99 0 l 99 992 m 418 167 q 533 178 488 167 q 604 217 579 189 q 629 297 629 246 q 583 394 629 367 q 449 422 536 422 l 303 422 l 303 167 l 418 167 m 414 583 q 553 611 508 583 q 597 710 597 639 q 578 782 597 757 q 522 817 558 807 q 428 826 485 826 l 303 826 l 303 583 l 414 583 z "},"C":{"ha":1053,"x_min":46,"x_max":1019,"o":"m 1018 317 q 927 138 992 213 q 766 22 863 63 q 549 -18 669 -18 q 289 46 403 -18 q 110 226 175 110 q 46 494 46 343 q 110 762 46 644 q 290 944 175 879 q 551 1010 406 1010 q 853 922 735 1010 q 1019 675 972 835 l 818 675 q 714 797 781 758 q 551 836 647 836 q 397 792 465 836 q 289 671 328 749 q 250 494 250 593 q 289 320 250 397 q 397 199 328 243 q 551 156 465 156 q 722 197 657 156 q 817 317 786 238 l 1018 317 z "},"Ć":{"ha":1076,"x_min":46,"x_max":1019,"o":"m 1018 317 q 927 138 992 213 q 766 22 863 63 q 549 -18 669 -18 q 289 46 403 -18 q 110 226 175 110 q 46 494 46 343 q 110 762 46 644 q 290 944 175 879 q 551 1010 406 1010 q 853 922 735 1010 q 1019 675 972 835 l 818 675 q 714 797 781 758 q 551 836 647 836 q 397 792 465 836 q 289 671 328 749 q 250 494 250 593 q 289 320 250 397 q 397 199 328 243 q 551 156 465 156 q 722 197 657 156 q 817 317 786 238 l 1018 317 m 793 1222 l 604 1064 l 421 1064 l 574 1222 l 793 1222 z "},"Č":{"ha":1076,"x_min":46,"x_max":1019,"o":"m 1018 317 q 927 138 992 213 q 766 22 863 63 q 549 -18 669 -18 q 289 46 403 -18 q 110 226 175 110 q 46 494 46 343 q 110 762 46 644 q 290 944 175 879 q 551 1010 406 1010 q 853 922 735 1010 q 1019 675 972 835 l 818 675 q 714 797 781 758 q 551 836 647 836 q 397 792 465 836 q 289 671 328 749 q 250 494 250 593 q 289 320 250 397 q 397 199 328 243 q 551 156 465 156 q 722 197 657 156 q 817 317 786 238 l 1018 317 m 488 1219 l 547 1139 l 608 1219 l 786 1219 l 658 1058 l 439 1058 l 310 1219 l 488 1219 z "},"Ç":{"ha":1053,"x_min":46,"x_max":1019,"o":"m 1018 317 q 933 145 993 218 q 785 31 874 72 q 585 -17 696 -11 l 526 -74 l 528 -75 q 568 -69 544 -69 q 667 -97 629 -71 q 704 -172 704 -124 q 676 -244 704 -215 q 606 -285 647 -272 q 524 -299 564 -299 q 458 -294 486 -299 q 397 -278 429 -289 l 418 -194 q 497 -212 457 -212 q 544 -203 526 -212 q 563 -176 563 -193 q 549 -150 563 -160 q 513 -140 535 -140 q 492 -143 503 -140 q 469 -150 481 -146 l 421 -90 l 488 -15 q 257 65 357 -3 q 101 243 157 132 q 46 494 46 354 q 110 762 46 644 q 290 944 175 879 q 551 1010 406 1010 q 853 922 735 1010 q 1019 675 972 835 l 818 675 q 714 797 781 758 q 551 836 647 836 q 397 792 465 836 q 289 671 328 749 q 250 494 250 593 q 289 320 250 397 q 397 199 328 243 q 551 156 465 156 q 722 197 657 156 q 817 317 786 238 l 1018 317 z "},"Ĉ":{"ha":1076,"x_min":46,"x_max":1019,"o":"m 1018 317 q 927 138 992 213 q 766 22 863 63 q 549 -18 669 -18 q 289 46 403 -18 q 110 226 175 110 q 46 494 46 343 q 110 762 46 644 q 290 944 175 879 q 551 1010 406 1010 q 853 922 735 1010 q 1019 675 972 835 l 818 675 q 714 797 781 758 q 551 836 647 836 q 397 792 465 836 q 289 671 328 749 q 250 494 250 593 q 289 320 250 397 q 397 199 328 243 q 551 156 465 156 q 722 197 657 156 q 817 317 786 238 l 1018 317 m 444 1219 l 664 1219 l 792 1058 l 614 1058 l 553 1139 l 493 1058 l 315 1058 l 444 1219 z "},"Ċ":{"ha":1053,"x_min":46,"x_max":1019,"o":"m 1018 317 q 927 138 992 213 q 766 22 863 63 q 549 -18 669 -18 q 289 46 403 -18 q 110 226 175 110 q 46 494 46 343 q 110 762 46 644 q 290 944 175 879 q 551 1010 406 1010 q 853 922 735 1010 q 1019 675 972 835 l 818 675 q 714 797 781 758 q 551 836 647 836 q 397 792 465 836 q 289 671 328 749 q 250 494 250 593 q 289 320 250 397 q 397 199 328 243 q 551 156 465 156 q 722 197 657 156 q 817 317 786 238 l 1018 317 m 638 1222 l 638 1068 l 468 1068 l 468 1222 l 638 1222 z "},"D":{"ha":990,"x_min":99,"x_max":944,"o":"m 410 992 q 701 933 581 992 q 883 767 821 875 q 944 507 944 658 q 883 236 944 350 q 701 61 821 122 q 411 0 581 0 l 99 0 l 99 992 l 410 992 m 410 174 q 650 258 564 174 q 736 507 736 343 q 650 740 736 661 q 411 818 564 818 l 303 818 l 303 174 l 410 174 z "},"Ð":{"ha":990,"x_min":10,"x_max":944,"o":"m 410 992 q 701 933 581 992 q 883 767 821 875 q 944 507 944 658 q 883 236 944 350 q 701 61 821 122 q 411 0 581 0 l 99 0 l 99 407 l 10 407 l 10 538 l 99 538 l 99 992 l 410 992 m 410 174 q 650 258 564 174 q 736 507 736 343 q 650 740 736 661 q 411 818 564 818 l 303 818 l 303 538 l 456 538 l 456 407 l 303 407 l 303 174 l 410 174 z "},"Ď":{"ha":990,"x_min":99,"x_max":944,"o":"m 410 992 q 701 933 581 992 q 883 767 821 875 q 944 507 944 658 q 883 236 944 350 q 701 61 821 122 q 411 0 581 0 l 99 0 l 99 992 l 410 992 m 410 174 q 650 258 564 174 q 736 507 736 343 q 650 740 736 661 q 411 818 564 818 l 303 818 l 303 174 l 410 174 m 406 1219 l 465 1139 l 526 1219 l 704 1219 l 576 1058 l 357 1058 l 228 1219 l 406 1219 z "},"Đ":{"ha":990,"x_min":10,"x_max":944,"o":"m 410 992 q 701 933 581 992 q 883 767 821 875 q 944 507 944 658 q 883 236 944 350 q 701 61 821 122 q 411 0 581 0 l 99 0 l 99 407 l 10 407 l 10 538 l 99 538 l 99 992 l 410 992 m 410 174 q 650 258 564 174 q 736 507 736 343 q 650 740 736 661 q 411 818 564 818 l 303 818 l 303 538 l 456 538 l 456 407 l 303 407 l 303 174 l 410 174 z "},"E":{"ha":826,"x_min":99,"x_max":756,"o":"m 751 818 l 303 818 l 303 585 l 722 585 l 722 415 l 303 415 l 303 174 l 756 174 l 756 0 l 99 0 l 99 992 l 751 992 l 751 818 z "},"É":{"ha":826,"x_min":99,"x_max":756,"o":"m 751 818 l 303 818 l 303 585 l 722 585 l 722 415 l 303 415 l 303 174 l 756 174 l 756 0 l 99 0 l 99 992 l 751 992 l 751 818 m 651 1222 l 463 1064 l 279 1064 l 432 1222 l 651 1222 z "},"Ĕ":{"ha":826,"x_min":99,"x_max":756,"o":"m 751 818 l 303 818 l 303 585 l 722 585 l 722 415 l 303 415 l 303 174 l 756 174 l 756 0 l 99 0 l 99 992 l 751 992 l 751 818 m 622 1222 q 586 1133 615 1172 q 512 1072 557 1093 q 411 1050 467 1050 q 310 1072 356 1050 q 235 1133 264 1093 q 201 1222 207 1172 l 331 1222 q 356 1176 333 1194 q 411 1158 378 1158 q 466 1176 444 1158 q 490 1222 488 1194 l 622 1222 z "},"Ě":{"ha":826,"x_min":99,"x_max":756,"o":"m 751 818 l 303 818 l 303 585 l 722 585 l 722 415 l 303 415 l 303 174 l 756 174 l 756 0 l 99 0 l 99 992 l 751 992 l 751 818 m 346 1219 l 406 1139 l 467 1219 l 644 1219 l 517 1058 l 297 1058 l 168 1219 l 346 1219 z "},"Ê":{"ha":826,"x_min":99,"x_max":756,"o":"m 751 818 l 303 818 l 303 585 l 722 585 l 722 415 l 303 415 l 303 174 l 756 174 l 756 0 l 99 0 l 99 992 l 751 992 l 751 818 m 301 1219 l 521 1219 l 649 1058 l 471 1058 l 410 1139 l 350 1058 l 172 1058 l 301 1219 z "},"Ë":{"ha":826,"x_min":99,"x_max":756,"o":"m 751 818 l 303 818 l 303 585 l 722 585 l 722 415 l 303 415 l 303 174 l 756 174 l 756 0 l 99 0 l 99 992 l 751 992 l 751 818 m 361 1222 l 361 1064 l 208 1064 l 208 1222 l 361 1222 m 464 1222 l 614 1222 l 614 1064 l 464 1064 l 464 1222 z "},"Ė":{"ha":826,"x_min":99,"x_max":756,"o":"m 751 818 l 303 818 l 303 585 l 722 585 l 722 415 l 303 415 l 303 174 l 756 174 l 756 0 l 99 0 l 99 992 l 751 992 l 751 818 m 496 1222 l 496 1068 l 326 1068 l 326 1222 l 496 1222 z "},"È":{"ha":826,"x_min":99,"x_max":756,"o":"m 751 818 l 303 818 l 303 585 l 722 585 l 722 415 l 303 415 l 303 174 l 756 174 l 756 0 l 99 0 l 99 992 l 751 992 l 751 818 m 528 1064 l 344 1064 l 156 1222 l 375 1222 l 528 1064 z "},"Ē":{"ha":826,"x_min":99,"x_max":756,"o":"m 751 818 l 303 818 l 303 585 l 722 585 l 722 415 l 303 415 l 303 174 l 756 174 l 756 0 l 99 0 l 99 992 l 751 992 l 751 818 m 640 1182 l 640 1096 l 182 1096 l 182 1182 l 640 1182 z "},"Ę":{"ha":826,"x_min":99,"x_max":757,"o":"m 751 818 l 303 818 l 303 585 l 722 585 l 722 415 l 303 415 l 303 174 l 756 174 l 756 0 l 757 0 q 646 -67 683 -33 q 607 -132 608 -101 q 624 -178 604 -165 q 694 -192 643 -192 l 682 -297 q 511 -266 569 -297 q 453 -164 453 -235 q 488 -78 453 -118 q 589 0 524 -37 l 99 0 l 99 992 l 751 992 l 751 818 z "},"F":{"ha":786,"x_min":99,"x_max":738,"o":"m 99 992 l 738 992 l 738 818 l 303 818 l 303 585 l 706 585 l 706 415 l 303 415 l 303 0 l 99 0 l 99 992 z "},"G":{"ha":1081,"x_min":46,"x_max":1006,"o":"m 549 529 l 1003 529 l 990 0 l 858 0 l 850 136 q 740 20 815 64 q 538 -24 664 -24 q 281 48 393 -24 q 107 238 168 119 q 46 496 46 357 q 107 755 46 636 q 285 944 168 874 q 563 1015 403 1015 q 776 972 685 1015 q 923 853 867 928 q 1006 681 979 778 l 799 681 q 717 799 772 757 q 563 842 661 842 q 393 797 464 842 q 286 673 322 751 q 250 496 250 594 q 287 319 250 397 q 393 195 324 240 q 560 150 463 150 q 747 206 676 150 q 832 375 818 261 l 549 374 l 549 529 z "},"Ğ":{"ha":1081,"x_min":46,"x_max":1006,"o":"m 549 529 l 1003 529 l 990 0 l 858 0 l 850 136 q 740 20 815 64 q 538 -24 664 -24 q 281 48 393 -24 q 107 238 168 119 q 46 496 46 357 q 107 755 46 636 q 285 944 168 874 q 563 1015 403 1015 q 776 972 685 1015 q 923 853 867 928 q 1006 681 979 778 l 799 681 q 717 799 772 757 q 563 842 661 842 q 393 797 464 842 q 286 673 322 751 q 250 496 250 594 q 287 319 250 397 q 393 195 324 240 q 560 150 463 150 q 747 206 676 150 q 832 375 818 261 l 549 374 l 549 529 m 763 1222 q 726 1133 756 1172 q 652 1072 697 1093 q 551 1050 607 1050 q 450 1072 496 1050 q 376 1133 404 1093 q 342 1222 347 1172 l 471 1222 q 496 1176 474 1194 q 551 1158 518 1158 q 606 1176 585 1158 q 631 1222 628 1194 l 763 1222 z "},"Ĝ":{"ha":1081,"x_min":46,"x_max":1006,"o":"m 549 529 l 1003 529 l 990 0 l 858 0 l 850 136 q 740 20 815 64 q 538 -24 664 -24 q 281 48 393 -24 q 107 238 168 119 q 46 496 46 357 q 107 755 46 636 q 285 944 168 874 q 563 1015 403 1015 q 776 972 685 1015 q 923 853 867 928 q 1006 681 979 778 l 799 681 q 717 799 772 757 q 563 842 661 842 q 393 797 464 842 q 286 673 322 751 q 250 496 250 594 q 287 319 250 397 q 393 195 324 240 q 560 150 463 150 q 747 206 676 150 q 832 375 818 261 l 549 374 l 549 529 m 442 1219 l 661 1219 l 789 1058 l 611 1058 l 550 1139 l 490 1058 l 313 1058 l 442 1219 z "},"Ģ":{"ha":1081,"x_min":46,"x_max":1006,"o":"m 549 529 l 1003 529 l 990 0 l 858 0 l 850 136 q 740 20 815 64 q 538 -24 664 -24 q 281 48 393 -24 q 107 238 168 119 q 46 496 46 357 q 107 755 46 636 q 285 944 168 874 q 563 1015 403 1015 q 776 972 685 1015 q 923 853 867 928 q 1006 681 979 778 l 799 681 q 717 799 772 757 q 563 842 661 842 q 393 797 464 842 q 286 673 322 751 q 250 496 250 594 q 287 319 250 397 q 393 195 324 240 q 560 150 463 150 q 747 206 676 150 q 832 375 818 261 l 549 374 l 549 529 m 625 -62 l 625 -185 q 586 -272 625 -243 q 472 -300 547 -300 l 472 -251 q 527 -232 514 -246 q 540 -200 540 -218 l 456 -200 l 456 -62 l 625 -62 z "},"Ġ":{"ha":1081,"x_min":46,"x_max":1006,"o":"m 549 529 l 1003 529 l 990 0 l 858 0 l 850 136 q 740 20 815 64 q 538 -24 664 -24 q 281 48 393 -24 q 107 238 168 119 q 46 496 46 357 q 107 755 46 636 q 285 944 168 874 q 563 1015 403 1015 q 776 972 685 1015 q 923 853 867 928 q 1006 681 979 778 l 799 681 q 717 799 772 757 q 563 842 661 842 q 393 797 464 842 q 286 673 322 751 q 250 496 250 594 q 287 319 250 397 q 393 195 324 240 q 560 150 463 150 q 747 206 676 150 q 832 375 818 261 l 549 374 l 549 529 m 636 1222 l 636 1068 l 467 1068 l 467 1222 l 636 1222 z "},"H":{"ha":1004,"x_min":99,"x_max":906,"o":"m 906 992 l 906 0 l 701 0 l 701 411 l 303 411 l 303 0 l 99 0 l 99 992 l 303 992 l 303 583 l 701 583 l 701 992 l 906 992 z "},"Ħ":{"ha":1004,"x_min":29,"x_max":974,"o":"m 906 992 l 906 831 l 974 831 l 974 747 l 906 747 l 906 0 l 701 0 l 701 411 l 303 411 l 303 0 l 99 0 l 99 747 l 29 747 l 29 831 l 99 831 l 99 992 l 303 992 l 303 831 l 701 831 l 701 992 l 906 992 m 701 583 l 701 747 l 303 747 l 303 583 l 701 583 z "},"Ĥ":{"ha":1004,"x_min":99,"x_max":906,"o":"m 906 992 l 906 0 l 701 0 l 701 411 l 303 411 l 303 0 l 99 0 l 99 992 l 303 992 l 303 583 l 701 583 l 701 992 l 906 992 m 394 1219 l 614 1219 l 742 1058 l 564 1058 l 503 1139 l 443 1058 l 265 1058 l 394 1219 z "},"I":{"ha":401,"x_min":99,"x_max":303,"o":"m 303 992 l 303 0 l 99 0 l 99 992 l 303 992 z "},"Ĳ":{"ha":832,"x_min":99,"x_max":739,"o":"m 303 992 l 303 413 l 99 413 l 99 992 l 303 992 m 101 350 l 299 350 l 300 293 q 422 147 306 147 q 513 188 490 147 q 535 294 535 229 l 535 992 l 739 992 l 739 314 q 661 63 739 146 q 422 -19 583 -19 q 253 15 326 -19 q 141 115 181 50 q 101 271 101 181 l 101 350 z "},"Í":{"ha":401,"x_min":69,"x_max":442,"o":"m 303 992 l 303 0 l 99 0 l 99 992 l 303 992 m 442 1222 l 253 1064 l 69 1064 l 222 1222 l 442 1222 z "},"Ĭ":{"ha":401,"x_min":-8,"x_max":413,"o":"m 303 992 l 303 0 l 99 0 l 99 992 l 303 992 m 413 1222 q 376 1133 406 1172 q 302 1072 347 1093 q 201 1050 257 1050 q 100 1072 146 1050 q 26 1133 54 1093 q -8 1222 -3 1172 l 121 1222 q 146 1176 124 1194 q 201 1158 168 1158 q 256 1176 235 1158 q 281 1222 278 1194 l 413 1222 z "},"Î":{"ha":401,"x_min":-37,"x_max":439,"o":"m 303 992 l 303 0 l 99 0 l 99 992 l 303 992 m 92 1219 l 311 1219 l 439 1058 l 261 1058 l 200 1139 l 140 1058 l -37 1058 l 92 1219 z "},"Ï":{"ha":401,"x_min":-1,"x_max":404,"o":"m 303 992 l 303 0 l 99 0 l 99 992 l 303 992 m 151 1222 l 151 1064 l -1 1064 l -1 1222 l 151 1222 m 254 1222 l 404 1222 l 404 1064 l 254 1064 l 254 1222 z "},"İ":{"ha":401,"x_min":99,"x_max":303,"o":"m 303 992 l 303 0 l 99 0 l 99 992 l 303 992 m 286 1222 l 286 1068 l 117 1068 l 117 1222 l 286 1222 z "},"Ì":{"ha":401,"x_min":-54,"x_max":318,"o":"m 303 992 l 303 0 l 99 0 l 99 992 l 303 992 m 318 1064 l 135 1064 l -54 1222 l 165 1222 l 318 1064 z "},"Ī":{"ha":401,"x_min":-28,"x_max":431,"o":"m 303 992 l 303 0 l 99 0 l 99 992 l 303 992 m 431 1182 l 431 1096 l -28 1096 l -28 1182 l 431 1182 z "},"Į":{"ha":403,"x_min":4,"x_max":303,"o":"m 303 0 q 194 -67 231 -33 q 156 -132 157 -101 q 172 -177 153 -164 q 242 -190 192 -190 l 229 -297 q 62 -267 119 -297 q 4 -165 4 -236 q 139 0 4 -75 l 99 0 l 99 992 l 303 992 l 303 0 z "},"Ĩ":{"ha":401,"x_min":-43,"x_max":444,"o":"m 303 992 l 303 0 l 99 0 l 99 992 l 303 992 m -43 1054 q -23 1138 -43 1100 q 33 1199 -3 1176 q 113 1222 68 1222 q 160 1215 139 1222 q 213 1192 182 1207 q 249 1175 235 1181 q 276 1169 263 1169 q 310 1183 297 1169 q 328 1222 324 1196 l 444 1222 q 423 1134 443 1172 q 369 1075 403 1096 q 294 1054 336 1054 q 238 1063 263 1054 q 185 1086 214 1071 q 152 1101 168 1094 q 124 1107 136 1107 q 87 1092 101 1107 q 69 1054 72 1078 l -43 1054 z "},"J":{"ha":769,"x_min":39,"x_max":676,"o":"m 238 293 q 360 147 243 147 q 450 188 428 147 q 472 294 472 229 l 472 992 l 676 992 l 676 314 q 599 63 676 146 q 360 -19 521 -19 q 191 15 264 -19 q 78 115 118 50 q 39 271 39 181 l 39 350 l 236 350 l 238 293 z "},"Ĵ":{"ha":769,"x_min":39,"x_max":813,"o":"m 238 293 q 360 147 243 147 q 450 188 428 147 q 472 294 472 229 l 472 992 l 676 992 l 676 314 q 599 63 676 146 q 360 -19 521 -19 q 191 15 264 -19 q 78 115 118 50 q 39 271 39 181 l 39 350 l 236 350 l 238 293 m 465 1219 l 685 1219 l 813 1058 l 635 1058 l 574 1139 l 514 1058 l 336 1058 l 465 1219 z "},"K":{"ha":944,"x_min":99,"x_max":935,"o":"m 99 0 l 99 992 l 303 992 l 303 556 l 688 992 l 932 992 l 551 575 l 935 0 l 699 0 l 422 433 l 303 304 l 303 0 l 99 0 z "},"Ķ":{"ha":944,"x_min":99,"x_max":935,"o":"m 99 0 l 99 992 l 303 992 l 303 556 l 688 992 l 932 992 l 551 575 l 935 0 l 699 0 l 422 433 l 303 304 l 303 0 l 99 0 m 599 -62 l 599 -185 q 560 -272 599 -243 q 446 -300 521 -300 l 446 -251 q 501 -232 488 -246 q 514 -200 514 -218 l 429 -200 l 429 -62 l 599 -62 z "},"L":{"ha":793,"x_min":99,"x_max":756,"o":"m 303 992 l 303 174 l 756 174 l 756 0 l 99 0 l 99 992 l 303 992 z "},"Ĺ":{"ha":793,"x_min":99,"x_max":756,"o":"m 303 992 l 303 174 l 756 174 l 756 0 l 99 0 l 99 992 l 303 992 m 486 1222 l 297 1064 l 114 1064 l 267 1222 l 486 1222 z "},"Ľ":{"ha":793,"x_min":99,"x_max":756,"o":"m 303 992 l 303 174 l 756 174 l 756 0 l 99 0 l 99 992 l 303 992 m 593 992 l 503 701 l 396 701 l 424 992 l 593 992 z "},"Ļ":{"ha":793,"x_min":99,"x_max":756,"o":"m 303 992 l 303 174 l 756 174 l 756 0 l 99 0 l 99 992 l 303 992 m 503 -62 l 503 -185 q 464 -272 503 -243 q 350 -300 425 -300 l 350 -251 q 405 -232 392 -246 q 418 -200 418 -218 l 333 -200 l 333 -62 l 503 -62 z "},"Ŀ":{"ha":793,"x_min":99,"x_max":756,"o":"m 303 992 l 303 174 l 756 174 l 756 0 l 99 0 l 99 992 l 303 992 m 700 656 l 700 501 l 531 501 l 531 656 l 700 656 z "},"Ł":{"ha":793,"x_min":4,"x_max":756,"o":"m 303 992 l 303 581 l 563 764 l 563 661 l 303 478 l 303 174 l 756 174 l 756 0 l 99 0 l 99 333 l 4 267 l 4 369 l 99 436 l 99 992 l 303 992 z "},"M":{"ha":1258,"x_min":99,"x_max":1160,"o":"m 99 992 l 399 992 l 633 246 l 635 246 l 863 992 l 1160 992 l 1160 0 l 969 0 l 969 740 l 964 740 l 731 0 l 529 0 l 294 740 l 290 740 l 290 0 l 99 0 l 99 992 z "},"N":{"ha":1046,"x_min":99,"x_max":947,"o":"m 374 992 l 647 468 l 753 250 q 749 519 749 371 l 749 992 l 947 992 l 947 0 l 676 0 l 432 458 q 383 560 410 507 q 347 631 357 613 q 294 736 314 694 q 297 565 297 689 l 297 443 l 297 0 l 99 0 l 99 992 l 374 992 z "},"Ń":{"ha":1046,"x_min":99,"x_max":947,"o":"m 374 992 l 647 468 l 753 250 q 749 519 749 371 l 749 992 l 947 992 l 947 0 l 676 0 l 432 458 q 383 560 410 507 q 347 631 357 613 q 294 736 314 694 q 297 565 297 689 l 297 443 l 297 0 l 99 0 l 99 992 l 374 992 m 764 1222 l 575 1064 l 392 1064 l 544 1222 l 764 1222 z "},"Ň":{"ha":1046,"x_min":99,"x_max":947,"o":"m 374 992 l 647 468 l 753 250 q 749 519 749 371 l 749 992 l 947 992 l 947 0 l 676 0 l 432 458 q 383 560 410 507 q 347 631 357 613 q 294 736 314 694 q 297 565 297 689 l 297 443 l 297 0 l 99 0 l 99 992 l 374 992 m 457 1219 l 517 1139 l 578 1219 l 756 1219 l 628 1058 l 408 1058 l 279 1219 l 457 1219 z "},"Ņ":{"ha":1046,"x_min":99,"x_max":947,"o":"m 374 992 l 647 468 l 753 250 q 749 519 749 371 l 749 992 l 947 992 l 947 0 l 676 0 l 432 458 q 383 560 410 507 q 347 631 357 613 q 294 736 314 694 q 297 565 297 689 l 297 443 l 297 0 l 99 0 l 99 992 l 374 992 m 611 -62 l 611 -185 q 572 -272 611 -243 q 458 -300 533 -300 l 458 -251 q 513 -232 500 -246 q 526 -200 526 -218 l 442 -200 l 442 -62 l 611 -62 z "},"Ñ":{"ha":1046,"x_min":99,"x_max":947,"o":"m 374 992 l 647 468 l 753 250 q 749 519 749 371 l 749 992 l 947 992 l 947 0 l 676 0 l 432 458 q 383 560 410 507 q 347 631 357 613 q 294 736 314 694 q 297 565 297 689 l 297 443 l 297 0 l 99 0 l 99 992 l 374 992 m 279 1054 q 299 1138 279 1100 q 355 1199 319 1176 q 435 1222 390 1222 q 483 1215 461 1222 q 535 1192 504 1207 q 571 1175 557 1181 q 599 1169 585 1169 q 633 1183 619 1169 q 650 1222 646 1196 l 767 1222 q 745 1134 765 1172 q 692 1075 725 1096 q 617 1054 658 1054 q 560 1063 585 1054 q 507 1086 536 1071 q 474 1101 490 1094 q 446 1107 458 1107 q 409 1092 424 1107 q 392 1054 394 1078 l 279 1054 z "},"Ŋ":{"ha":1046,"x_min":99,"x_max":947,"o":"m 374 992 l 647 468 l 753 250 q 749 519 749 371 l 749 992 l 947 992 l 947 0 q 910 -152 947 -86 q 801 -255 872 -218 q 633 -292 729 -292 l 633 -137 q 727 -101 699 -136 q 758 0 756 -67 l 676 0 l 432 458 q 383 560 410 507 q 347 631 357 613 q 294 736 314 694 q 297 565 297 689 l 297 443 l 297 0 l 99 0 l 99 992 l 374 992 z "},"O":{"ha":1136,"x_min":46,"x_max":1089,"o":"m 568 1015 q 847 944 728 1015 q 1027 755 965 874 q 1089 496 1089 636 q 1027 237 1089 356 q 847 47 965 118 q 568 -24 728 -24 q 290 47 408 -24 q 108 237 171 118 q 46 496 46 356 q 108 755 46 636 q 290 944 171 874 q 568 1015 408 1015 m 250 496 q 288 321 250 400 q 399 196 326 242 q 568 150 471 150 q 736 196 664 150 q 847 321 808 242 q 885 496 885 400 q 847 671 885 592 q 736 796 808 750 q 568 842 664 842 q 399 796 471 842 q 288 671 326 750 q 250 496 250 592 z "},"Ó":{"ha":1136,"x_min":46,"x_max":1089,"o":"m 568 1015 q 847 944 728 1015 q 1027 755 965 874 q 1089 496 1089 636 q 1027 237 1089 356 q 847 47 965 118 q 568 -24 728 -24 q 290 47 408 -24 q 108 237 171 118 q 46 496 46 356 q 108 755 46 636 q 290 944 171 874 q 568 1015 408 1015 m 250 496 q 288 321 250 400 q 399 196 326 242 q 568 150 471 150 q 736 196 664 150 q 847 321 808 242 q 885 496 885 400 q 847 671 885 592 q 736 796 808 750 q 568 842 664 842 q 399 796 471 842 q 288 671 326 750 q 250 496 250 592 m 808 1222 l 619 1064 l 436 1064 l 589 1222 l 808 1222 z "},"Ŏ":{"ha":1136,"x_min":46,"x_max":1089,"o":"m 568 1015 q 847 944 728 1015 q 1027 755 965 874 q 1089 496 1089 636 q 1027 237 1089 356 q 847 47 965 118 q 568 -24 728 -24 q 290 47 408 -24 q 108 237 171 118 q 46 496 46 356 q 108 755 46 636 q 290 944 171 874 q 568 1015 408 1015 m 250 496 q 288 321 250 400 q 399 196 326 242 q 568 150 471 150 q 736 196 664 150 q 847 321 808 242 q 885 496 885 400 q 847 671 885 592 q 736 796 808 750 q 568 842 664 842 q 399 796 471 842 q 288 671 326 750 q 250 496 250 592 m 779 1222 q 743 1133 772 1172 q 669 1072 714 1093 q 568 1050 624 1050 q 467 1072 513 1050 q 392 1133 421 1093 q 358 1222 364 1172 l 488 1222 q 513 1176 490 1194 q 568 1158 535 1158 q 623 1176 601 1158 q 647 1222 644 1194 l 779 1222 z "},"Ô":{"ha":1136,"x_min":46,"x_max":1089,"o":"m 568 1015 q 847 944 728 1015 q 1027 755 965 874 q 1089 496 1089 636 q 1027 237 1089 356 q 847 47 965 118 q 568 -24 728 -24 q 290 47 408 -24 q 108 237 171 118 q 46 496 46 356 q 108 755 46 636 q 290 944 171 874 q 568 1015 408 1015 m 250 496 q 288 321 250 400 q 399 196 326 242 q 568 150 471 150 q 736 196 664 150 q 847 321 808 242 q 885 496 885 400 q 847 671 885 592 q 736 796 808 750 q 568 842 664 842 q 399 796 471 842 q 288 671 326 750 q 250 496 250 592 m 458 1219 l 678 1219 l 806 1058 l 628 1058 l 567 1139 l 507 1058 l 329 1058 l 458 1219 z "},"Ö":{"ha":1136,"x_min":46,"x_max":1089,"o":"m 568 1015 q 847 944 728 1015 q 1027 755 965 874 q 1089 496 1089 636 q 1027 237 1089 356 q 847 47 965 118 q 568 -24 728 -24 q 290 47 408 -24 q 108 237 171 118 q 46 496 46 356 q 108 755 46 636 q 290 944 171 874 q 568 1015 408 1015 m 250 496 q 288 321 250 400 q 399 196 326 242 q 568 150 471 150 q 736 196 664 150 q 847 321 808 242 q 885 496 885 400 q 847 671 885 592 q 736 796 808 750 q 568 842 664 842 q 399 796 471 842 q 288 671 326 750 q 250 496 250 592 m 518 1222 l 518 1064 l 365 1064 l 365 1222 l 518 1222 m 621 1222 l 771 1222 l 771 1064 l 621 1064 l 621 1222 z "},"Ò":{"ha":1136,"x_min":46,"x_max":1089,"o":"m 568 1015 q 847 944 728 1015 q 1027 755 965 874 q 1089 496 1089 636 q 1027 237 1089 356 q 847 47 965 118 q 568 -24 728 -24 q 290 47 408 -24 q 108 237 171 118 q 46 496 46 356 q 108 755 46 636 q 290 944 171 874 q 568 1015 408 1015 m 250 496 q 288 321 250 400 q 399 196 326 242 q 568 150 471 150 q 736 196 664 150 q 847 321 808 242 q 885 496 885 400 q 847 671 885 592 q 736 796 808 750 q 568 842 664 842 q 399 796 471 842 q 288 671 326 750 q 250 496 250 592 m 685 1064 l 501 1064 l 313 1222 l 532 1222 l 685 1064 z "},"Ő":{"ha":1136,"x_min":46,"x_max":1089,"o":"m 568 1015 q 847 944 728 1015 q 1027 755 965 874 q 1089 496 1089 636 q 1027 237 1089 356 q 847 47 965 118 q 568 -24 728 -24 q 290 47 408 -24 q 108 237 171 118 q 46 496 46 356 q 108 755 46 636 q 290 944 171 874 q 568 1015 408 1015 m 250 496 q 288 321 250 400 q 399 196 326 242 q 568 150 471 150 q 736 196 664 150 q 847 321 808 242 q 885 496 885 400 q 847 671 885 592 q 736 796 808 750 q 568 842 664 842 q 399 796 471 842 q 288 671 326 750 q 250 496 250 592 m 888 1222 l 731 1082 l 601 1082 l 711 1222 l 888 1222 m 486 1222 l 663 1222 l 506 1082 l 378 1082 l 486 1222 z "},"Ō":{"ha":1136,"x_min":46,"x_max":1089,"o":"m 568 1015 q 847 944 728 1015 q 1027 755 965 874 q 1089 496 1089 636 q 1027 237 1089 356 q 847 47 965 118 q 568 -24 728 -24 q 290 47 408 -24 q 108 237 171 118 q 46 496 46 356 q 108 755 46 636 q 290 944 171 874 q 568 1015 408 1015 m 250 496 q 288 321 250 400 q 399 196 326 242 q 568 150 471 150 q 736 196 664 150 q 847 321 808 242 q 885 496 885 400 q 847 671 885 592 q 736 796 808 750 q 568 842 664 842 q 399 796 471 842 q 288 671 326 750 q 250 496 250 592 m 797 1182 l 797 1096 l 339 1096 l 339 1182 l 797 1182 z "},"Ø":{"ha":1136,"x_min":46,"x_max":1089,"o":"m 568 1015 q 744 990 663 1015 q 889 917 825 964 l 990 1025 l 1064 961 l 961 850 q 1056 688 1024 779 q 1089 496 1089 596 q 1027 237 1089 356 q 847 47 965 118 q 568 -24 728 -24 q 390 3 472 -24 q 243 78 307 29 l 144 -28 l 72 39 l 171 144 q 78 306 110 215 q 46 496 46 396 q 108 755 46 636 q 290 944 171 874 q 568 1015 408 1015 m 250 496 q 264 385 250 438 q 306 290 278 333 l 761 778 q 568 842 679 842 q 399 796 471 842 q 288 671 326 750 q 250 496 250 592 m 371 215 q 460 167 411 185 q 568 150 510 150 q 736 196 664 150 q 847 321 808 242 q 885 496 885 400 q 869 608 885 554 q 826 706 854 661 l 371 215 z "},"Ǿ":{"ha":1136,"x_min":46,"x_max":1089,"o":"m 568 1015 q 744 990 663 1015 q 889 917 825 964 l 990 1025 l 1064 961 l 961 850 q 1056 688 1024 779 q 1089 496 1089 596 q 1027 237 1089 356 q 847 47 965 118 q 568 -24 728 -24 q 390 3 472 -24 q 243 78 307 29 l 144 -28 l 72 39 l 171 144 q 78 306 110 215 q 46 496 46 396 q 108 755 46 636 q 290 944 171 874 q 568 1015 408 1015 m 250 496 q 264 385 250 438 q 306 290 278 333 l 761 778 q 568 842 679 842 q 399 796 471 842 q 288 671 326 750 q 250 496 250 592 m 371 215 q 460 167 411 185 q 568 150 510 150 q 736 196 664 150 q 847 321 808 242 q 885 496 885 400 q 869 608 885 554 q 826 706 854 661 l 371 215 m 808 1222 l 619 1064 l 436 1064 l 589 1222 l 808 1222 z "},"Õ":{"ha":1136,"x_min":46,"x_max":1089,"o":"m 568 1015 q 847 944 728 1015 q 1027 755 965 874 q 1089 496 1089 636 q 1027 237 1089 356 q 847 47 965 118 q 568 -24 728 -24 q 290 47 408 -24 q 108 237 171 118 q 46 496 46 356 q 108 755 46 636 q 290 944 171 874 q 568 1015 408 1015 m 250 496 q 288 321 250 400 q 399 196 326 242 q 568 150 471 150 q 736 196 664 150 q 847 321 808 242 q 885 496 885 400 q 847 671 885 592 q 736 796 808 750 q 568 842 664 842 q 399 796 471 842 q 288 671 326 750 q 250 496 250 592 m 324 1054 q 344 1138 324 1100 q 399 1199 364 1176 q 479 1222 435 1222 q 527 1215 506 1222 q 579 1192 549 1207 q 615 1175 601 1181 q 643 1169 629 1169 q 677 1183 664 1169 q 694 1222 690 1196 l 811 1222 q 790 1134 810 1172 q 736 1075 769 1096 q 661 1054 703 1054 q 605 1063 629 1054 q 551 1086 581 1071 q 519 1101 535 1094 q 490 1107 503 1107 q 453 1092 468 1107 q 436 1054 439 1078 l 324 1054 z "},"Œ":{"ha":1568,"x_min":46,"x_max":1497,"o":"m 46 496 q 108 755 46 636 q 287 944 169 874 q 563 1015 404 1015 q 858 906 744 1015 l 858 992 l 1493 992 l 1493 818 l 1063 818 l 1063 585 l 1464 585 l 1464 415 l 1063 415 l 1063 174 l 1497 174 l 1497 0 l 858 0 l 858 86 q 563 -24 744 -24 q 287 47 404 -24 q 108 237 169 118 q 46 496 46 356 m 250 496 q 288 321 250 400 q 396 196 325 242 q 563 150 467 150 q 728 196 657 150 q 836 321 799 242 q 874 496 874 400 q 835 669 874 590 q 726 795 797 749 q 563 842 656 842 q 396 796 467 842 q 288 671 325 750 q 250 496 250 592 z "},"P":{"ha":881,"x_min":99,"x_max":840,"o":"m 453 519 q 587 559 536 519 q 638 675 638 599 q 588 786 638 750 q 454 822 539 822 l 303 822 l 303 519 l 453 519 m 99 992 l 468 992 q 666 951 582 992 q 795 840 750 911 q 840 679 840 768 q 791 513 840 588 q 656 394 742 438 q 467 351 571 351 l 303 351 l 303 0 l 99 0 l 99 992 z "},"Þ":{"ha":878,"x_min":99,"x_max":839,"o":"m 481 819 q 675 781 594 819 q 797 672 756 742 q 839 513 839 603 q 793 348 839 421 q 665 233 747 275 q 481 192 583 192 l 303 192 l 303 0 l 99 0 l 99 992 l 303 992 l 303 819 l 481 819 m 467 361 q 636 510 636 361 q 593 618 636 586 q 467 650 550 650 l 303 650 l 303 361 l 467 361 z "},"Q":{"ha":1136,"x_min":46,"x_max":1089,"o":"m 661 374 q 731 331 689 360 q 813 267 774 301 q 866 372 847 313 q 885 496 885 431 q 847 671 885 592 q 736 796 808 750 q 568 842 664 842 q 399 796 471 842 q 288 671 326 750 q 250 496 250 592 q 288 321 250 400 q 399 196 326 242 q 568 150 471 150 q 690 172 632 150 q 565 258 633 225 l 661 374 m 46 496 q 108 755 46 636 q 290 944 171 874 q 568 1015 408 1015 q 847 944 728 1015 q 1027 755 965 874 q 1089 496 1089 636 q 1054 297 1089 392 q 953 132 1019 203 q 1083 51 1017 76 l 996 -72 q 928 -37 972 -68 q 831 39 883 -7 q 568 -24 717 -24 q 290 47 408 -24 q 108 237 171 118 q 46 496 46 356 z "},"R":{"ha":932,"x_min":99,"x_max":900,"o":"m 99 992 l 489 992 q 683 957 601 992 q 809 858 765 922 q 853 710 853 794 q 827 584 853 639 q 758 495 801 529 q 660 446 714 461 q 732 404 703 432 q 780 337 761 376 q 817 239 799 297 q 824 215 821 228 q 832 190 828 203 q 866 83 851 125 q 900 7 881 42 l 900 0 l 693 0 q 663 67 678 26 q 633 151 647 108 l 608 225 q 568 307 592 275 q 506 356 544 339 q 408 374 468 374 l 303 374 l 303 1 l 99 1 l 99 992 m 478 538 q 606 578 560 538 q 653 685 653 618 q 606 789 653 750 q 475 828 560 828 l 303 828 l 303 538 l 478 538 z "},"Ŕ":{"ha":931,"x_min":99,"x_max":900,"o":"m 99 992 l 489 992 q 683 957 601 992 q 809 858 765 922 q 853 710 853 794 q 827 584 853 639 q 758 495 801 529 q 660 446 714 461 q 732 404 703 432 q 780 337 761 376 q 817 239 799 297 q 824 215 821 228 q 832 190 828 203 q 866 83 851 125 q 900 7 881 42 l 900 0 l 693 0 q 663 67 678 26 q 633 151 647 108 l 608 225 q 568 307 592 275 q 506 356 544 339 q 408 374 468 374 l 303 374 l 303 1 l 99 1 l 99 992 m 478 538 q 606 578 560 538 q 653 685 653 618 q 606 789 653 750 q 475 828 560 828 l 303 828 l 303 538 l 478 538 m 692 1222 l 503 1064 l 319 1064 l 472 1222 l 692 1222 z "},"Ř":{"ha":931,"x_min":99,"x_max":900,"o":"m 99 992 l 489 992 q 683 957 601 992 q 809 858 765 922 q 853 710 853 794 q 827 584 853 639 q 758 495 801 529 q 660 446 714 461 q 732 404 703 432 q 780 337 761 376 q 817 239 799 297 q 824 215 821 228 q 832 190 828 203 q 866 83 851 125 q 900 7 881 42 l 900 0 l 693 0 q 663 67 678 26 q 633 151 647 108 l 608 225 q 568 307 592 275 q 506 356 544 339 q 408 374 468 374 l 303 374 l 303 1 l 99 1 l 99 992 m 478 538 q 606 578 560 538 q 653 685 653 618 q 606 789 653 750 q 475 828 560 828 l 303 828 l 303 538 l 478 538 m 386 1219 l 446 1139 l 507 1219 l 685 1219 l 557 1058 l 338 1058 l 208 1219 l 386 1219 z "},"Ŗ":{"ha":931,"x_min":99,"x_max":900,"o":"m 99 992 l 489 992 q 683 957 601 992 q 809 858 765 922 q 853 710 853 794 q 827 584 853 639 q 758 495 801 529 q 660 446 714 461 q 732 404 703 432 q 780 337 761 376 q 817 239 799 297 q 824 215 821 228 q 832 190 828 203 q 866 83 851 125 q 900 7 881 42 l 900 0 l 693 0 q 663 67 678 26 q 633 151 647 108 l 608 225 q 568 307 592 275 q 506 356 544 339 q 408 374 468 374 l 303 374 l 303 1 l 99 1 l 99 992 m 478 538 q 606 578 560 538 q 653 685 653 618 q 606 789 653 750 q 475 828 560 828 l 303 828 l 303 538 l 478 538 m 547 -62 l 547 -185 q 508 -272 547 -243 q 394 -300 469 -300 l 394 -251 q 449 -232 436 -246 q 463 -200 463 -218 l 378 -200 l 378 -62 l 547 -62 z "},"S":{"ha":875,"x_min":46,"x_max":825,"o":"m 256 324 q 286 228 260 268 q 357 167 313 188 q 457 146 401 146 q 581 178 538 146 q 624 272 624 210 q 599 344 624 317 q 535 388 575 372 q 415 429 496 404 q 245 492 313 460 q 133 585 178 525 q 89 740 89 646 q 140 891 89 829 q 273 984 190 953 q 450 1015 356 1015 q 706 938 607 1015 q 819 697 804 861 l 615 697 q 560 811 601 775 q 444 847 519 847 q 333 818 375 847 q 290 731 290 789 q 313 667 290 693 q 379 621 336 640 q 492 581 422 601 q 670 517 604 547 q 781 428 736 488 q 825 271 825 369 q 774 108 825 174 q 638 9 722 42 q 457 -24 554 -24 q 257 15 346 -24 q 113 131 168 53 q 46 324 57 208 l 256 324 z "},"Ś":{"ha":875,"x_min":46,"x_max":825,"o":"m 256 324 q 286 228 260 268 q 357 167 313 188 q 457 146 401 146 q 581 178 538 146 q 624 272 624 210 q 599 344 624 317 q 535 388 575 372 q 415 429 496 404 q 245 492 313 460 q 133 585 178 525 q 89 740 89 646 q 140 891 89 829 q 273 984 190 953 q 450 1015 356 1015 q 706 938 607 1015 q 819 697 804 861 l 615 697 q 560 811 601 775 q 444 847 519 847 q 333 818 375 847 q 290 731 290 789 q 313 667 290 693 q 379 621 336 640 q 492 581 422 601 q 670 517 604 547 q 781 428 736 488 q 825 271 825 369 q 774 108 825 174 q 638 9 722 42 q 457 -24 554 -24 q 257 15 346 -24 q 113 131 168 53 q 46 324 57 208 l 256 324 m 692 1222 l 503 1064 l 319 1064 l 472 1222 l 692 1222 z "},"Š":{"ha":875,"x_min":46,"x_max":825,"o":"m 256 324 q 286 228 260 268 q 357 167 313 188 q 457 146 401 146 q 581 178 538 146 q 624 272 624 210 q 599 344 624 317 q 535 388 575 372 q 415 429 496 404 q 245 492 313 460 q 133 585 178 525 q 89 740 89 646 q 140 891 89 829 q 273 984 190 953 q 450 1015 356 1015 q 706 938 607 1015 q 819 697 804 861 l 615 697 q 560 811 601 775 q 444 847 519 847 q 333 818 375 847 q 290 731 290 789 q 313 667 290 693 q 379 621 336 640 q 492 581 422 601 q 670 517 604 547 q 781 428 736 488 q 825 271 825 369 q 774 108 825 174 q 638 9 722 42 q 457 -24 554 -24 q 257 15 346 -24 q 113 131 168 53 q 46 324 57 208 l 256 324 m 385 1219 l 444 1139 l 506 1219 l 683 1219 l 556 1058 l 336 1058 l 207 1219 l 385 1219 z "},"Ş":{"ha":875,"x_min":46,"x_max":825,"o":"m 256 324 q 286 228 260 268 q 357 167 313 188 q 457 146 401 146 q 581 178 538 146 q 624 272 624 210 q 599 344 624 317 q 535 388 575 372 q 415 429 496 404 q 245 492 313 460 q 133 585 178 525 q 89 740 89 646 q 140 891 89 829 q 273 984 190 953 q 450 1015 356 1015 q 706 938 607 1015 q 819 697 804 861 l 615 697 q 560 811 601 775 q 444 847 519 847 q 333 818 375 847 q 290 731 290 789 q 313 667 290 693 q 379 621 336 640 q 492 581 422 601 q 670 517 604 547 q 781 428 736 488 q 825 271 825 369 q 775 110 825 176 q 644 11 725 44 q 467 -24 563 -22 l 415 -74 l 417 -75 q 457 -69 433 -69 q 556 -97 518 -71 q 593 -172 593 -124 q 565 -244 593 -215 q 494 -285 536 -272 q 413 -299 453 -299 q 347 -294 375 -299 q 286 -278 318 -289 l 307 -194 q 386 -212 346 -212 q 433 -203 415 -212 q 451 -176 451 -193 q 438 -150 451 -160 q 401 -140 424 -140 q 381 -143 392 -140 q 358 -150 369 -146 l 310 -90 l 374 -18 q 148 88 236 1 q 46 324 60 174 l 256 324 z "},"Ŝ":{"ha":875,"x_min":46,"x_max":825,"o":"m 256 324 q 286 228 260 268 q 357 167 313 188 q 457 146 401 146 q 581 178 538 146 q 624 272 624 210 q 599 344 624 317 q 535 388 575 372 q 415 429 496 404 q 245 492 313 460 q 133 585 178 525 q 89 740 89 646 q 140 891 89 829 q 273 984 190 953 q 450 1015 356 1015 q 706 938 607 1015 q 819 697 804 861 l 615 697 q 560 811 601 775 q 444 847 519 847 q 333 818 375 847 q 290 731 290 789 q 313 667 290 693 q 379 621 336 640 q 492 581 422 601 q 670 517 604 547 q 781 428 736 488 q 825 271 825 369 q 774 108 825 174 q 638 9 722 42 q 457 -24 554 -24 q 257 15 346 -24 q 113 131 168 53 q 46 324 57 208 l 256 324 m 342 1219 l 561 1219 l 689 1058 l 511 1058 l 450 1139 l 390 1058 l 213 1058 l 342 1219 z "},"Ș":{"ha":875,"x_min":46,"x_max":825,"o":"m 256 324 q 286 228 260 268 q 357 167 313 188 q 457 146 401 146 q 581 178 538 146 q 624 272 624 210 q 599 344 624 317 q 535 388 575 372 q 415 429 496 404 q 245 492 313 460 q 133 585 178 525 q 89 740 89 646 q 140 891 89 829 q 273 984 190 953 q 450 1015 356 1015 q 706 938 607 1015 q 819 697 804 861 l 615 697 q 560 811 601 775 q 444 847 519 847 q 333 818 375 847 q 290 731 290 789 q 313 667 290 693 q 379 621 336 640 q 492 581 422 601 q 670 517 604 547 q 781 428 736 488 q 825 271 825 369 q 774 108 825 174 q 638 9 722 42 q 457 -24 554 -24 q 257 15 346 -24 q 113 131 168 53 q 46 324 57 208 l 256 324 m 524 -62 l 524 -185 q 485 -272 524 -243 q 371 -300 446 -300 l 371 -251 q 426 -232 413 -246 q 439 -200 439 -218 l 354 -200 l 354 -62 l 524 -62 z "},"ẞ":{"ha":950,"x_min":100,"x_max":888,"o":"m 100 653 q 148 844 100 764 q 283 965 196 924 q 488 1006 371 1006 q 702 974 600 1006 q 871 890 804 942 l 633 582 q 824 488 761 563 q 888 293 888 413 q 846 133 888 201 q 727 26 804 64 q 546 -11 650 -11 q 408 -1 472 -11 l 419 161 q 514 154 451 154 q 606 174 567 154 q 667 231 646 194 q 689 315 689 267 q 635 422 689 383 q 483 460 581 460 l 449 460 l 449 603 l 625 829 q 566 845 600 839 q 497 851 532 851 q 398 831 442 851 q 328 767 354 810 q 301 665 301 725 l 301 0 l 100 0 l 100 653 z "},"T":{"ha":804,"x_min":15,"x_max":789,"o":"m 15 992 l 789 992 l 789 818 l 504 818 l 504 0 l 300 0 l 300 818 l 15 818 l 15 992 z "},"Ŧ":{"ha":804,"x_min":15,"x_max":789,"o":"m 15 992 l 789 992 l 789 818 l 504 818 l 504 642 l 681 642 l 681 511 l 504 511 l 504 0 l 300 0 l 300 511 l 124 511 l 124 642 l 300 642 l 300 818 l 15 818 l 15 992 z "},"Ť":{"ha":804,"x_min":15,"x_max":789,"o":"m 15 992 l 789 992 l 789 818 l 504 818 l 504 0 l 300 0 l 300 818 l 15 818 l 15 992 m 338 1219 l 397 1139 l 458 1219 l 636 1219 l 508 1058 l 289 1058 l 160 1219 l 338 1219 z "},"Ţ":{"ha":804,"x_min":15,"x_max":789,"o":"m 15 992 l 789 992 l 789 818 l 504 818 l 504 0 l 300 0 l 300 818 l 15 818 l 15 992 m 490 -62 l 490 -185 q 451 -272 490 -243 q 338 -300 413 -300 l 338 -251 q 392 -232 379 -246 q 406 -200 406 -218 l 321 -200 l 321 -62 l 490 -62 z "},"Ț":{"ha":804,"x_min":15,"x_max":789,"o":"m 15 992 l 789 992 l 789 818 l 504 818 l 504 0 l 300 0 l 300 818 l 15 818 l 15 992 m 490 -62 l 490 -185 q 451 -272 490 -243 q 338 -300 413 -300 l 338 -251 q 392 -232 379 -246 q 406 -200 406 -218 l 321 -200 l 321 -62 l 490 -62 z "},"U":{"ha":993,"x_min":93,"x_max":900,"o":"m 900 406 q 859 183 900 279 q 730 32 818 88 q 503 -24 642 -24 q 192 91 292 -24 q 93 406 93 206 l 93 992 l 297 992 l 297 406 q 348 220 297 289 q 503 151 399 151 q 649 219 603 151 q 696 406 696 288 l 696 992 l 900 992 l 900 406 z "},"Ú":{"ha":993,"x_min":93,"x_max":900,"o":"m 900 406 q 859 183 900 279 q 730 32 818 88 q 503 -24 642 -24 q 192 91 292 -24 q 93 406 93 206 l 93 992 l 297 992 l 297 406 q 348 220 297 289 q 503 151 399 151 q 649 219 603 151 q 696 406 696 288 l 696 992 l 900 992 l 900 406 m 738 1222 l 549 1064 l 365 1064 l 518 1222 l 738 1222 z "},"Ŭ":{"ha":993,"x_min":93,"x_max":900,"o":"m 900 406 q 859 183 900 279 q 730 32 818 88 q 503 -24 642 -24 q 192 91 292 -24 q 93 406 93 206 l 93 992 l 297 992 l 297 406 q 348 220 297 289 q 503 151 399 151 q 649 219 603 151 q 696 406 696 288 l 696 992 l 900 992 l 900 406 m 708 1222 q 672 1133 701 1172 q 598 1072 643 1093 q 497 1050 553 1050 q 396 1072 442 1050 q 322 1133 350 1093 q 288 1222 293 1172 l 417 1222 q 442 1176 419 1194 q 497 1158 464 1158 q 552 1176 531 1158 q 576 1222 574 1194 l 708 1222 z "},"Û":{"ha":993,"x_min":93,"x_max":900,"o":"m 900 406 q 859 183 900 279 q 730 32 818 88 q 503 -24 642 -24 q 192 91 292 -24 q 93 406 93 206 l 93 992 l 297 992 l 297 406 q 348 220 297 289 q 503 151 399 151 q 649 219 603 151 q 696 406 696 288 l 696 992 l 900 992 l 900 406 m 388 1219 l 607 1219 l 735 1058 l 557 1058 l 496 1139 l 436 1058 l 258 1058 l 388 1219 z "},"Ü":{"ha":993,"x_min":93,"x_max":900,"o":"m 900 406 q 859 183 900 279 q 730 32 818 88 q 503 -24 642 -24 q 192 91 292 -24 q 93 406 93 206 l 93 992 l 297 992 l 297 406 q 348 220 297 289 q 503 151 399 151 q 649 219 603 151 q 696 406 696 288 l 696 992 l 900 992 l 900 406 m 447 1222 l 447 1064 l 294 1064 l 294 1222 l 447 1222 m 550 1222 l 700 1222 l 700 1064 l 550 1064 l 550 1222 z "},"Ù":{"ha":993,"x_min":93,"x_max":900,"o":"m 900 406 q 859 183 900 279 q 730 32 818 88 q 503 -24 642 -24 q 192 91 292 -24 q 93 406 93 206 l 93 992 l 297 992 l 297 406 q 348 220 297 289 q 503 151 399 151 q 649 219 603 151 q 696 406 696 288 l 696 992 l 900 992 l 900 406 m 614 1064 l 431 1064 l 242 1222 l 461 1222 l 614 1064 z "},"Ű":{"ha":993,"x_min":93,"x_max":900,"o":"m 900 406 q 859 183 900 279 q 730 32 818 88 q 503 -24 642 -24 q 192 91 292 -24 q 93 406 93 206 l 93 992 l 297 992 l 297 406 q 348 220 297 289 q 503 151 399 151 q 649 219 603 151 q 696 406 696 288 l 696 992 l 900 992 l 900 406 m 817 1222 l 660 1082 l 531 1082 l 640 1222 l 817 1222 m 415 1222 l 592 1222 l 435 1082 l 307 1082 l 415 1222 z "},"Ū":{"ha":993,"x_min":93,"x_max":900,"o":"m 900 406 q 859 183 900 279 q 730 32 818 88 q 503 -24 642 -24 q 192 91 292 -24 q 93 406 93 206 l 93 992 l 297 992 l 297 406 q 348 220 297 289 q 503 151 399 151 q 649 219 603 151 q 696 406 696 288 l 696 992 l 900 992 l 900 406 m 726 1182 l 726 1096 l 268 1096 l 268 1182 l 726 1182 z "},"Ų":{"ha":993,"x_min":93,"x_max":900,"o":"m 900 406 q 829 127 900 239 q 610 -14 758 15 q 526 -73 554 -43 q 496 -129 497 -103 q 513 -176 494 -162 q 582 -189 532 -189 l 569 -294 q 402 -263 460 -294 q 344 -161 344 -232 q 442 -21 344 -86 q 178 108 263 -4 q 93 406 93 221 l 93 992 l 297 992 l 297 406 q 348 220 297 289 q 503 151 399 151 q 649 219 603 151 q 696 406 696 288 l 696 992 l 900 992 l 900 406 z "},"Ů":{"ha":993,"x_min":93,"x_max":900,"o":"m 900 406 q 859 183 900 279 q 730 32 818 88 q 503 -24 642 -24 q 192 91 292 -24 q 93 406 93 206 l 93 992 l 297 992 l 297 406 q 348 220 297 289 q 503 151 399 151 q 649 219 603 151 q 696 406 696 288 l 696 992 l 900 992 l 900 406 m 342 1200 q 363 1277 342 1242 q 420 1333 385 1313 q 497 1354 456 1354 q 575 1333 539 1354 q 632 1277 611 1313 q 653 1200 653 1242 q 632 1123 653 1158 q 575 1067 611 1088 q 497 1046 539 1046 q 420 1067 456 1046 q 363 1123 385 1088 q 342 1200 342 1158 m 440 1199 q 456 1156 440 1172 q 497 1139 471 1139 q 540 1156 524 1139 q 557 1199 557 1172 q 540 1241 557 1225 q 497 1257 524 1257 q 456 1241 471 1257 q 440 1199 440 1225 z "},"Ũ":{"ha":993,"x_min":93,"x_max":900,"o":"m 900 406 q 859 183 900 279 q 730 32 818 88 q 503 -24 642 -24 q 192 91 292 -24 q 93 406 93 206 l 93 992 l 297 992 l 297 406 q 348 220 297 289 q 503 151 399 151 q 649 219 603 151 q 696 406 696 288 l 696 992 l 900 992 l 900 406 m 253 1054 q 273 1138 253 1100 q 328 1199 293 1176 q 408 1222 364 1222 q 456 1215 435 1222 q 508 1192 478 1207 q 544 1175 531 1181 q 572 1169 558 1169 q 606 1183 593 1169 q 624 1222 619 1196 l 740 1222 q 719 1134 739 1172 q 665 1075 699 1096 q 590 1054 632 1054 q 534 1063 558 1054 q 481 1086 510 1071 q 448 1101 464 1094 q 419 1107 432 1107 q 383 1092 397 1107 q 365 1054 368 1078 l 253 1054 z "},"V":{"ha":940,"x_min":7,"x_max":932,"o":"m 226 992 l 469 236 l 471 236 l 715 992 l 932 992 l 588 1 l 351 0 l 7 992 l 226 992 z "},"W":{"ha":1318,"x_min":7,"x_max":1310,"o":"m 224 992 l 339 340 l 358 215 l 363 215 l 388 340 l 528 992 l 789 992 l 919 340 l 944 214 l 950 214 l 972 340 l 1093 992 l 1310 992 l 1160 340 l 1083 0 l 810 0 l 746 340 l 658 789 l 656 789 l 561 340 l 493 0 l 219 0 l 149 340 l 7 992 l 224 992 z "},"Ẃ":{"ha":1318,"x_min":7,"x_max":1310,"o":"m 224 992 l 339 340 l 358 215 l 363 215 l 388 340 l 528 992 l 789 992 l 919 340 l 944 214 l 950 214 l 972 340 l 1093 992 l 1310 992 l 1160 340 l 1083 0 l 810 0 l 746 340 l 658 789 l 656 789 l 561 340 l 493 0 l 219 0 l 149 340 l 7 992 l 224 992 m 899 1222 l 710 1064 l 526 1064 l 679 1222 l 899 1222 z "},"Ŵ":{"ha":1318,"x_min":7,"x_max":1310,"o":"m 224 992 l 339 340 l 358 215 l 363 215 l 388 340 l 528 992 l 789 992 l 919 340 l 944 214 l 950 214 l 972 340 l 1093 992 l 1310 992 l 1160 340 l 1083 0 l 810 0 l 746 340 l 658 789 l 656 789 l 561 340 l 493 0 l 219 0 l 149 340 l 7 992 l 224 992 m 550 1219 l 769 1219 l 897 1058 l 719 1058 l 658 1139 l 599 1058 l 421 1058 l 550 1219 z "},"Ẅ":{"ha":1318,"x_min":7,"x_max":1310,"o":"m 224 992 l 339 340 l 358 215 l 363 215 l 388 340 l 528 992 l 789 992 l 919 340 l 944 214 l 950 214 l 972 340 l 1093 992 l 1310 992 l 1160 340 l 1083 0 l 810 0 l 746 340 l 658 789 l 656 789 l 561 340 l 493 0 l 219 0 l 149 340 l 7 992 l 224 992 m 608 1222 l 608 1064 l 456 1064 l 456 1222 l 608 1222 m 711 1222 l 861 1222 l 861 1064 l 711 1064 l 711 1222 z "},"Ẁ":{"ha":1318,"x_min":7,"x_max":1310,"o":"m 224 992 l 339 340 l 358 215 l 363 215 l 388 340 l 528 992 l 789 992 l 919 340 l 944 214 l 950 214 l 972 340 l 1093 992 l 1310 992 l 1160 340 l 1083 0 l 810 0 l 746 340 l 658 789 l 656 789 l 561 340 l 493 0 l 219 0 l 149 340 l 7 992 l 224 992 m 775 1064 l 592 1064 l 403 1222 l 622 1222 l 775 1064 z "},"X":{"ha":946,"x_min":8,"x_max":938,"o":"m 351 501 l 11 992 l 250 992 l 472 657 l 697 992 l 933 990 l 592 500 l 938 0 l 693 0 l 472 340 l 249 0 l 8 0 l 351 501 z "},"Y":{"ha":893,"x_min":15,"x_max":879,"o":"m 315 850 q 451 572 375 731 q 586 849 492 651 q 654 992 607 894 l 879 992 l 547 379 l 547 0 l 343 0 l 343 379 l 15 992 l 246 992 l 315 850 z "},"Ý":{"ha":893,"x_min":15,"x_max":879,"o":"m 315 850 q 451 572 375 731 q 586 849 492 651 q 654 992 607 894 l 879 992 l 547 379 l 547 0 l 343 0 l 343 379 l 15 992 l 246 992 l 315 850 m 686 1222 l 497 1064 l 314 1064 l 467 1222 l 686 1222 z "},"Ŷ":{"ha":893,"x_min":15,"x_max":879,"o":"m 315 850 q 451 572 375 731 q 586 849 492 651 q 654 992 607 894 l 879 992 l 547 379 l 547 0 l 343 0 l 343 379 l 15 992 l 246 992 l 315 850 m 338 1219 l 557 1219 l 685 1058 l 507 1058 l 446 1139 l 386 1058 l 208 1058 l 338 1219 z "},"Ÿ":{"ha":893,"x_min":15,"x_max":879,"o":"m 315 850 q 451 572 375 731 q 586 849 492 651 q 654 992 607 894 l 879 992 l 547 379 l 547 0 l 343 0 l 343 379 l 15 992 l 246 992 l 315 850 m 396 1222 l 396 1064 l 243 1064 l 243 1222 l 396 1222 m 499 1222 l 649 1222 l 649 1064 l 499 1064 l 499 1222 z "},"Ỳ":{"ha":893,"x_min":15,"x_max":879,"o":"m 315 850 q 451 572 375 731 q 586 849 492 651 q 654 992 607 894 l 879 992 l 547 379 l 547 0 l 343 0 l 343 379 l 15 992 l 246 992 l 315 850 m 564 1064 l 381 1064 l 192 1222 l 411 1222 l 564 1064 z "},"Z":{"ha":854,"x_min":58,"x_max":810,"o":"m 539 822 l 78 822 l 78 992 l 796 992 l 796 860 l 301 169 l 810 169 l 810 0 l 58 0 l 58 165 l 539 822 z "},"Ź":{"ha":854,"x_min":58,"x_max":810,"o":"m 539 822 l 78 822 l 78 992 l 796 992 l 796 860 l 301 169 l 810 169 l 810 0 l 58 0 l 58 165 l 539 822 m 665 1222 l 476 1064 l 293 1064 l 446 1222 l 665 1222 z "},"Ž":{"ha":854,"x_min":58,"x_max":810,"o":"m 539 822 l 78 822 l 78 992 l 796 992 l 796 860 l 301 169 l 810 169 l 810 0 l 58 0 l 58 165 l 539 822 m 360 1219 l 419 1139 l 481 1219 l 658 1219 l 531 1058 l 311 1058 l 182 1219 l 360 1219 z "},"Ż":{"ha":854,"x_min":58,"x_max":810,"o":"m 539 822 l 78 822 l 78 992 l 796 992 l 796 860 l 301 169 l 810 169 l 810 0 l 58 0 l 58 165 l 539 822 m 510 1222 l 510 1068 l 340 1068 l 340 1222 l 510 1222 z "},"a":{"ha":776,"x_min":43,"x_max":718,"o":"m 75 497 q 126 617 86 561 q 232 707 165 672 q 389 742 299 742 q 624 660 544 742 q 704 429 704 579 l 704 185 q 718 0 704 61 l 524 0 q 517 64 517 35 l 517 103 l 515 103 q 296 -19 449 -19 q 163 8 221 -19 q 74 84 106 35 q 43 196 43 133 q 99 333 43 285 q 219 399 154 382 q 371 429 285 417 q 453 444 425 436 q 497 467 482 451 q 513 514 513 483 q 479 576 513 554 q 390 599 446 599 q 306 572 340 599 q 257 497 271 544 l 75 497 m 239 207 q 268 145 239 169 q 353 121 297 121 q 470 170 425 121 q 515 333 515 219 l 515 383 q 467 337 501 357 q 368 303 433 317 q 269 266 300 289 q 239 207 239 243 z "},"á":{"ha":776,"x_min":43,"x_max":718,"o":"m 75 497 q 126 617 86 561 q 232 707 165 672 q 389 742 299 742 q 624 660 544 742 q 704 429 704 579 l 704 185 q 718 0 704 61 l 524 0 q 517 64 517 35 l 517 103 l 515 103 q 296 -19 449 -19 q 163 8 221 -19 q 74 84 106 35 q 43 196 43 133 q 99 333 43 285 q 219 399 154 382 q 371 429 285 417 q 453 444 425 436 q 497 467 482 451 q 513 514 513 483 q 479 576 513 554 q 390 599 446 599 q 306 572 340 599 q 257 497 271 544 l 75 497 m 239 207 q 268 145 239 169 q 353 121 297 121 q 470 170 425 121 q 515 333 515 219 l 515 383 q 467 337 501 357 q 368 303 433 317 q 269 266 300 289 q 239 207 239 243 m 626 1003 l 436 821 l 292 821 l 415 1003 l 626 1003 z "},"ă":{"ha":776,"x_min":43,"x_max":718,"o":"m 75 497 q 126 617 86 561 q 232 707 165 672 q 389 742 299 742 q 624 660 544 742 q 704 429 704 579 l 704 185 q 718 0 704 61 l 524 0 q 517 64 517 35 l 517 103 l 515 103 q 296 -19 449 -19 q 163 8 221 -19 q 74 84 106 35 q 43 196 43 133 q 99 333 43 285 q 219 399 154 382 q 371 429 285 417 q 453 444 425 436 q 497 467 482 451 q 513 514 513 483 q 479 576 513 554 q 390 599 446 599 q 306 572 340 599 q 257 497 271 544 l 75 497 m 239 207 q 268 145 239 169 q 353 121 297 121 q 470 170 425 121 q 515 333 515 219 l 515 383 q 467 337 501 357 q 368 303 433 317 q 269 266 300 289 q 239 207 239 243 m 393 817 q 288 840 335 817 q 214 905 242 863 q 182 1003 186 947 l 313 1003 q 335 944 314 965 q 393 924 356 924 q 449 944 429 924 q 472 1003 469 965 l 603 1003 q 571 905 599 947 q 497 840 543 863 q 393 817 451 817 z "},"â":{"ha":776,"x_min":43,"x_max":718,"o":"m 75 497 q 126 617 86 561 q 232 707 165 672 q 389 742 299 742 q 624 660 544 742 q 704 429 704 579 l 704 185 q 718 0 704 61 l 524 0 q 517 64 517 35 l 517 103 l 515 103 q 296 -19 449 -19 q 163 8 221 -19 q 74 84 106 35 q 43 196 43 133 q 99 333 43 285 q 219 399 154 382 q 371 429 285 417 q 453 444 425 436 q 497 467 482 451 q 513 514 513 483 q 479 576 513 554 q 390 599 446 599 q 306 572 340 599 q 257 497 271 544 l 75 497 m 239 207 q 268 145 239 169 q 353 121 297 121 q 470 170 425 121 q 515 333 515 219 l 515 383 q 467 337 501 357 q 368 303 433 317 q 269 266 300 289 q 239 207 239 243 m 308 1003 l 468 1003 l 625 825 l 465 825 l 389 917 l 311 825 l 153 825 l 308 1003 z "},"ä":{"ha":776,"x_min":43,"x_max":718,"o":"m 75 497 q 126 617 86 561 q 232 707 165 672 q 389 742 299 742 q 624 660 544 742 q 704 429 704 579 l 704 185 q 718 0 704 61 l 524 0 q 517 64 517 35 l 517 103 l 515 103 q 296 -19 449 -19 q 163 8 221 -19 q 74 84 106 35 q 43 196 43 133 q 99 333 43 285 q 219 399 154 382 q 371 429 285 417 q 453 444 425 436 q 497 467 482 451 q 513 514 513 483 q 479 576 513 554 q 390 599 446 599 q 306 572 340 599 q 257 497 271 544 l 75 497 m 239 207 q 268 145 239 169 q 353 121 297 121 q 470 170 425 121 q 515 333 515 219 l 515 383 q 467 337 501 357 q 368 303 433 317 q 269 266 300 289 q 239 207 239 243 m 338 1003 l 338 840 l 176 840 l 176 1003 l 338 1003 m 439 1003 l 601 1003 l 601 840 l 439 840 l 439 1003 z "},"à":{"ha":776,"x_min":43,"x_max":718,"o":"m 75 497 q 126 617 86 561 q 232 707 165 672 q 389 742 299 742 q 624 660 544 742 q 704 429 704 579 l 704 185 q 718 0 704 61 l 524 0 q 517 64 517 35 l 517 103 l 515 103 q 296 -19 449 -19 q 163 8 221 -19 q 74 84 106 35 q 43 196 43 133 q 99 333 43 285 q 219 399 154 382 q 371 429 285 417 q 453 444 425 436 q 497 467 482 451 q 513 514 513 483 q 479 576 513 554 q 390 599 446 599 q 306 572 340 599 q 257 497 271 544 l 75 497 m 239 207 q 268 145 239 169 q 353 121 297 121 q 470 170 425 121 q 515 333 515 219 l 515 383 q 467 337 501 357 q 368 303 433 317 q 269 266 300 289 q 239 207 239 243 m 492 821 l 347 821 l 157 1003 l 368 1003 l 492 821 z "},"ā":{"ha":776,"x_min":43,"x_max":718,"o":"m 75 497 q 126 617 86 561 q 232 707 165 672 q 389 742 299 742 q 624 660 544 742 q 704 429 704 579 l 704 185 q 718 0 704 61 l 524 0 q 517 64 517 35 l 517 103 l 515 103 q 296 -19 449 -19 q 163 8 221 -19 q 74 84 106 35 q 43 196 43 133 q 99 333 43 285 q 219 399 154 382 q 371 429 285 417 q 453 444 425 436 q 497 467 482 451 q 513 514 513 483 q 479 576 513 554 q 390 599 446 599 q 306 572 340 599 q 257 497 271 544 l 75 497 m 239 207 q 268 145 239 169 q 353 121 297 121 q 470 170 425 121 q 515 333 515 219 l 515 383 q 467 337 501 357 q 368 303 433 317 q 269 266 300 289 q 239 207 239 243 m 636 957 l 636 869 l 142 869 l 142 957 l 636 957 z "},"ą":{"ha":776,"x_min":43,"x_max":718,"o":"m 75 497 q 126 617 86 561 q 232 707 165 672 q 389 742 299 742 q 624 660 544 742 q 704 429 704 579 l 704 185 q 718 0 704 61 l 715 0 q 607 -72 638 -37 q 576 -142 576 -107 q 671 -197 576 -197 l 660 -297 q 495 -267 550 -297 q 439 -167 440 -236 q 567 0 439 -72 l 524 0 q 517 64 517 35 l 517 103 l 515 103 q 296 -19 449 -19 q 163 8 221 -19 q 74 84 106 35 q 43 196 43 133 q 99 333 43 285 q 219 399 154 382 q 371 429 285 417 q 453 444 425 436 q 497 467 482 451 q 513 514 513 483 q 479 576 513 554 q 390 599 446 599 q 306 572 340 599 q 257 497 271 544 l 75 497 m 239 207 q 268 145 239 169 q 353 121 297 121 q 470 170 425 121 q 515 333 515 219 l 515 383 q 467 337 501 357 q 368 303 433 317 q 269 266 300 289 q 239 207 239 243 z "},"å":{"ha":776,"x_min":43,"x_max":718,"o":"m 75 497 q 126 617 86 561 q 232 707 165 672 q 389 742 299 742 q 624 660 544 742 q 704 429 704 579 l 704 185 q 718 0 704 61 l 524 0 q 517 64 517 35 l 517 103 l 515 103 q 296 -19 449 -19 q 163 8 221 -19 q 74 84 106 35 q 43 196 43 133 q 99 333 43 285 q 219 399 154 382 q 371 429 285 417 q 453 444 425 436 q 497 467 482 451 q 513 514 513 483 q 479 576 513 554 q 390 599 446 599 q 306 572 340 599 q 257 497 271 544 l 75 497 m 239 207 q 268 145 239 169 q 353 121 297 121 q 470 170 425 121 q 515 333 515 219 l 515 383 q 467 337 501 357 q 368 303 433 317 q 269 266 300 289 q 239 207 239 243 m 235 939 q 256 1016 235 981 q 312 1072 276 1051 q 389 1093 347 1093 q 466 1072 431 1093 q 522 1016 501 1051 q 543 939 543 981 q 522 863 543 897 q 466 807 501 828 q 389 786 431 786 q 312 807 347 786 q 256 863 276 828 q 235 939 235 897 m 329 938 q 347 894 329 911 q 389 878 364 878 q 432 894 415 878 q 449 938 449 911 q 432 982 449 965 q 389 999 415 999 q 347 981 364 999 q 329 938 329 964 z "},"ǻ":{"ha":776,"x_min":43,"x_max":718,"o":"m 75 497 q 126 617 86 561 q 232 707 165 672 q 389 742 299 742 q 624 660 544 742 q 704 429 704 579 l 704 185 q 718 0 704 61 l 524 0 q 517 64 517 35 l 517 103 l 515 103 q 296 -19 449 -19 q 163 8 221 -19 q 74 84 106 35 q 43 196 43 133 q 99 333 43 285 q 219 399 154 382 q 371 429 285 417 q 453 444 425 436 q 497 467 482 451 q 513 514 513 483 q 479 576 513 554 q 390 599 446 599 q 306 572 340 599 q 257 497 271 544 l 75 497 m 235 939 q 258 1021 235 983 q 321 1078 282 1058 l 432 1240 l 643 1240 l 467 1072 q 522 1016 501 1051 q 543 939 543 981 q 522 863 543 897 q 466 807 501 828 q 389 786 431 786 q 312 807 347 786 q 256 863 276 828 q 235 939 235 897 m 239 207 q 268 145 239 169 q 353 121 297 121 q 470 170 425 121 q 515 333 515 219 l 515 383 q 467 337 501 357 q 368 303 433 317 q 269 266 300 289 q 239 207 239 243 m 329 938 q 347 894 329 911 q 389 878 364 878 q 432 894 415 878 q 449 938 449 911 q 432 982 449 965 q 389 999 415 999 q 347 981 364 999 q 329 938 329 964 z "},"ã":{"ha":776,"x_min":43,"x_max":718,"o":"m 75 497 q 126 617 86 561 q 232 707 165 672 q 389 742 299 742 q 624 660 544 742 q 704 429 704 579 l 704 185 q 718 0 704 61 l 524 0 q 517 64 517 35 l 517 103 l 515 103 q 296 -19 449 -19 q 163 8 221 -19 q 74 84 106 35 q 43 196 43 133 q 99 333 43 285 q 219 399 154 382 q 371 429 285 417 q 453 444 425 436 q 497 467 482 451 q 513 514 513 483 q 479 576 513 554 q 390 599 446 599 q 306 572 340 599 q 257 497 271 544 l 75 497 m 239 207 q 268 145 239 169 q 353 121 297 121 q 470 170 425 121 q 515 333 515 219 l 515 383 q 467 337 501 357 q 368 303 433 317 q 269 266 300 289 q 239 207 239 243 m 144 836 q 166 920 146 882 q 221 981 186 958 q 300 1003 256 1003 q 349 995 326 1003 q 401 972 372 988 q 435 956 421 961 q 464 950 450 950 q 498 963 485 950 q 515 1003 511 976 l 632 1003 q 611 915 631 953 q 558 856 592 876 q 482 835 524 835 q 426 843 451 835 q 372 867 401 851 q 340 881 356 875 q 311 888 324 888 q 274 874 289 888 q 257 836 260 860 l 144 836 z "},"æ":{"ha":1246,"x_min":43,"x_max":1203,"o":"m 43 196 q 98 333 43 285 q 209 398 153 382 q 364 433 265 414 q 442 451 414 443 q 483 474 469 460 q 497 514 497 489 q 465 576 497 554 q 379 599 432 599 q 295 572 329 599 q 251 497 261 546 l 71 497 q 119 616 81 560 q 224 707 157 672 q 379 742 290 742 q 526 713 468 742 q 618 628 585 683 q 864 740 708 740 q 1052 689 976 740 q 1165 548 1128 638 q 1203 344 1203 458 l 1203 306 l 692 306 q 746 179 701 225 q 860 133 790 133 q 940 152 907 133 q 993 211 974 171 l 1190 211 q 1071 40 1156 103 q 860 -24 986 -24 q 588 126 671 -24 q 299 -19 503 -19 q 163 8 221 -19 q 74 83 104 35 q 43 196 43 132 m 239 207 q 265 145 239 169 q 344 121 290 121 q 459 172 418 121 q 500 326 500 222 l 500 385 q 454 337 483 356 q 361 304 425 318 q 268 267 297 290 q 239 207 239 243 m 1014 431 q 969 547 1006 501 q 861 593 933 593 q 747 549 790 593 q 693 431 703 506 l 1014 431 z "},"ǽ":{"ha":1246,"x_min":43,"x_max":1203,"o":"m 43 196 q 98 333 43 285 q 209 398 153 382 q 364 433 265 414 q 442 451 414 443 q 483 474 469 460 q 497 514 497 489 q 465 576 497 554 q 379 599 432 599 q 295 572 329 599 q 251 497 261 546 l 71 497 q 119 616 81 560 q 224 707 157 672 q 379 742 290 742 q 526 713 468 742 q 618 628 585 683 q 864 740 708 740 q 1052 689 976 740 q 1165 548 1128 638 q 1203 344 1203 458 l 1203 306 l 692 306 q 746 179 701 225 q 860 133 790 133 q 940 152 907 133 q 993 211 974 171 l 1190 211 q 1071 40 1156 103 q 860 -24 986 -24 q 588 126 671 -24 q 299 -19 503 -19 q 163 8 221 -19 q 74 83 104 35 q 43 196 43 132 m 239 207 q 265 145 239 169 q 344 121 290 121 q 459 172 418 121 q 500 326 500 222 l 500 385 q 454 337 483 356 q 361 304 425 318 q 268 267 297 290 q 239 207 239 243 m 1014 431 q 969 547 1006 501 q 861 593 933 593 q 747 549 790 593 q 693 431 703 506 l 1014 431 m 867 992 l 676 810 l 532 810 l 656 992 l 867 992 z "},"b":{"ha":876,"x_min":82,"x_max":839,"o":"m 500 738 q 673 691 596 738 q 794 559 750 644 q 839 360 839 474 q 794 160 839 246 q 672 27 749 74 q 499 -19 594 -19 q 366 18 418 -19 q 290 103 314 56 l 289 103 l 289 0 l 82 0 l 82 992 l 285 992 l 285 607 l 286 607 q 327 667 299 638 q 399 717 356 697 q 500 738 443 738 m 268 360 q 290 247 268 299 q 353 164 311 196 q 457 132 396 132 q 559 163 517 132 q 623 244 601 193 q 644 360 644 296 q 622 474 644 422 q 558 555 600 525 q 457 585 515 585 q 356 553 399 585 q 290 471 313 522 q 268 360 268 419 z "},"c":{"ha":814,"x_min":38,"x_max":768,"o":"m 768 247 q 706 101 754 163 q 585 9 658 40 q 426 -22 513 -22 q 232 24 321 -22 q 90 156 143 69 q 38 360 38 243 q 90 563 38 476 q 232 694 143 649 q 426 739 321 739 q 585 708 513 739 q 706 617 658 676 q 765 478 753 558 l 582 478 q 524 559 565 532 q 425 586 482 586 q 323 556 367 586 q 256 474 279 526 q 232 358 232 422 q 256 242 232 294 q 323 160 279 190 q 425 131 367 131 q 527 160 483 131 q 586 247 571 189 l 768 247 z "},"ć":{"ha":814,"x_min":38,"x_max":768,"o":"m 768 247 q 706 101 754 163 q 585 9 658 40 q 426 -22 513 -22 q 232 24 321 -22 q 90 156 143 69 q 38 360 38 243 q 90 563 38 476 q 232 694 143 649 q 426 739 321 739 q 585 708 513 739 q 706 617 658 676 q 765 478 753 558 l 582 478 q 524 559 565 532 q 425 586 482 586 q 323 556 367 586 q 256 474 279 526 q 232 358 232 422 q 256 242 232 294 q 323 160 279 190 q 425 131 367 131 q 527 160 483 131 q 586 247 571 189 l 768 247 m 660 992 l 469 810 l 325 810 l 449 992 l 660 992 z "},"č":{"ha":814,"x_min":38,"x_max":768,"o":"m 768 247 q 706 101 754 163 q 585 9 658 40 q 426 -22 513 -22 q 232 24 321 -22 q 90 156 143 69 q 38 360 38 243 q 90 563 38 476 q 232 694 143 649 q 426 739 321 739 q 585 708 513 739 q 706 617 658 676 q 765 478 753 558 l 582 478 q 524 559 565 532 q 425 586 482 586 q 323 556 367 586 q 256 474 279 526 q 232 358 232 422 q 256 242 232 294 q 323 160 279 190 q 425 131 367 131 q 527 160 483 131 q 586 247 571 189 l 768 247 m 344 992 l 422 900 l 499 992 l 658 992 l 501 814 l 342 814 l 186 992 l 344 992 z "},"ç":{"ha":814,"x_min":38,"x_max":768,"o":"m 768 247 q 709 104 756 164 q 592 13 663 44 q 439 -22 522 -19 l 386 -74 l 388 -75 q 428 -69 404 -69 q 526 -97 489 -71 q 564 -172 564 -124 q 535 -244 564 -215 q 465 -285 507 -272 q 383 -299 424 -299 q 317 -294 346 -299 q 257 -278 289 -289 l 278 -194 q 357 -212 317 -212 q 404 -203 386 -212 q 422 -176 422 -193 q 408 -150 422 -160 q 372 -140 394 -140 q 351 -143 363 -140 q 329 -150 340 -146 l 281 -90 l 347 -15 q 190 51 260 1 q 78 179 119 100 q 38 360 38 258 q 90 563 38 476 q 232 694 143 649 q 426 739 321 739 q 585 708 513 739 q 706 617 658 676 q 765 478 753 558 l 582 478 q 524 559 565 532 q 425 586 482 586 q 323 556 367 586 q 256 474 279 526 q 232 358 232 422 q 256 242 232 294 q 323 160 279 190 q 425 131 367 131 q 527 160 483 131 q 586 247 571 189 l 768 247 z "},"ĉ":{"ha":814,"x_min":38,"x_max":768,"o":"m 768 247 q 706 101 754 163 q 585 9 658 40 q 426 -22 513 -22 q 232 24 321 -22 q 90 156 143 69 q 38 360 38 243 q 90 563 38 476 q 232 694 143 649 q 426 739 321 739 q 585 708 513 739 q 706 617 658 676 q 765 478 753 558 l 582 478 q 524 559 565 532 q 425 586 482 586 q 323 556 367 586 q 256 474 279 526 q 232 358 232 422 q 256 242 232 294 q 323 160 279 190 q 425 131 367 131 q 527 160 483 131 q 586 247 571 189 l 768 247 m 342 992 l 501 992 l 658 814 l 499 814 l 422 906 l 344 814 l 186 814 l 342 992 z "},"ċ":{"ha":814,"x_min":38,"x_max":768,"o":"m 768 247 q 706 101 754 163 q 585 9 658 40 q 426 -22 513 -22 q 232 24 321 -22 q 90 156 143 69 q 38 360 38 243 q 90 563 38 476 q 232 694 143 649 q 426 739 321 739 q 585 708 513 739 q 706 617 658 676 q 765 478 753 558 l 582 478 q 524 559 565 532 q 425 586 482 586 q 323 556 367 586 q 256 474 279 526 q 232 358 232 422 q 256 242 232 294 q 323 160 279 190 q 425 131 367 131 q 527 160 483 131 q 586 247 571 189 l 768 247 m 346 829 l 346 992 l 499 992 l 499 829 l 346 829 z "},"d":{"ha":876,"x_min":38,"x_max":794,"o":"m 376 738 q 478 717 433 738 q 550 667 522 697 q 590 607 578 638 l 592 607 l 592 992 l 794 992 l 794 0 l 589 0 l 589 103 l 588 103 q 511 18 564 56 q 379 -19 458 -19 q 206 27 283 -19 q 83 160 128 74 q 38 360 38 246 q 82 559 38 474 q 203 691 126 644 q 376 738 281 738 m 233 360 q 255 244 233 296 q 319 163 276 193 q 421 132 361 132 q 524 164 482 132 q 588 247 567 196 q 610 360 610 299 q 588 471 610 419 q 522 553 565 522 q 421 585 479 585 q 320 555 363 585 q 256 474 278 525 q 233 360 233 422 z "},"ð":{"ha":847,"x_min":38,"x_max":808,"o":"m 326 918 q 213 994 260 971 l 385 1097 q 506 1004 458 1042 l 650 1074 l 688 999 l 572 943 q 751 694 693 825 q 808 390 808 563 q 759 169 808 261 q 623 28 710 76 q 426 -19 536 -19 q 229 28 318 -19 q 89 163 140 75 q 38 367 38 250 q 83 560 38 475 q 206 692 128 644 q 375 740 283 740 q 474 728 438 740 q 542 689 511 717 q 483 771 521 726 q 396 858 444 815 l 263 794 l 225 869 l 326 918 m 236 367 q 260 246 236 299 q 328 164 285 193 q 426 135 371 135 q 526 164 482 135 q 594 246 569 193 q 619 367 619 299 q 597 477 619 428 q 531 556 575 526 q 424 585 486 585 q 322 557 364 585 q 258 480 281 529 q 236 367 236 431 z "},"ď":{"ha":876,"x_min":38,"x_max":1031,"o":"m 376 738 q 478 717 433 738 q 550 667 522 697 q 590 607 578 638 l 592 607 l 592 992 l 794 992 l 794 0 l 589 0 l 589 103 l 588 103 q 511 18 564 56 q 379 -19 458 -19 q 206 27 283 -19 q 83 160 128 74 q 38 360 38 246 q 82 559 38 474 q 203 691 126 644 q 376 738 281 738 m 233 360 q 255 244 233 296 q 319 163 276 193 q 421 132 361 132 q 524 164 482 132 q 588 247 567 196 q 610 360 610 299 q 588 471 610 419 q 522 553 565 522 q 421 585 479 585 q 320 555 363 585 q 256 474 278 525 q 233 360 233 422 m 1031 992 l 978 764 l 863 764 l 871 992 l 1031 992 z "},"đ":{"ha":876,"x_min":38,"x_max":929,"o":"m 376 738 q 478 717 433 738 q 550 667 522 697 q 590 607 578 638 l 592 607 l 592 810 l 410 810 l 410 888 l 592 888 l 592 992 l 794 992 l 794 888 l 929 888 l 929 810 l 794 810 l 794 0 l 589 0 l 589 103 l 588 103 q 511 18 564 56 q 379 -19 458 -19 q 206 27 283 -19 q 83 160 128 74 q 38 360 38 246 q 82 559 38 474 q 203 691 126 644 q 376 738 281 738 m 233 360 q 255 244 233 296 q 319 163 276 193 q 421 132 361 132 q 524 164 482 132 q 588 247 567 196 q 610 360 610 299 q 588 471 610 419 q 522 553 565 522 q 421 585 479 585 q 320 555 363 585 q 256 474 278 525 q 233 360 233 422 z "},"e":{"ha":814,"x_min":38,"x_max":771,"o":"m 760 211 q 689 88 738 140 q 569 6 640 35 q 410 -24 497 -24 q 217 24 301 -24 q 85 160 132 72 q 38 360 38 247 q 86 555 38 468 q 220 691 135 642 q 413 740 306 740 q 608 688 528 740 q 729 547 689 636 q 771 343 769 457 q 769 304 771 319 l 225 304 q 258 214 232 253 q 322 154 283 175 q 410 133 361 133 q 503 153 463 133 q 563 211 543 172 l 760 211 m 582 431 q 531 546 574 499 q 410 593 488 593 q 288 549 336 593 q 226 431 239 504 l 582 431 z "},"é":{"ha":814,"x_min":38,"x_max":771,"o":"m 760 211 q 689 88 738 140 q 569 6 640 35 q 410 -24 497 -24 q 217 24 301 -24 q 85 160 132 72 q 38 360 38 247 q 86 555 38 468 q 220 691 135 642 q 413 740 306 740 q 608 688 528 740 q 729 547 689 636 q 771 343 769 457 q 769 304 771 319 l 225 304 q 258 214 232 253 q 322 154 283 175 q 410 133 361 133 q 503 153 463 133 q 563 211 543 172 l 760 211 m 582 431 q 531 546 574 499 q 410 593 488 593 q 288 549 336 593 q 226 431 239 504 l 582 431 m 647 992 l 457 810 l 313 810 l 436 992 l 647 992 z "},"ĕ":{"ha":814,"x_min":38,"x_max":771,"o":"m 760 211 q 689 88 738 140 q 569 6 640 35 q 410 -24 497 -24 q 217 24 301 -24 q 85 160 132 72 q 38 360 38 247 q 86 555 38 468 q 220 691 135 642 q 413 740 306 740 q 608 688 528 740 q 729 547 689 636 q 771 343 769 457 q 769 304 771 319 l 225 304 q 258 214 232 253 q 322 154 283 175 q 410 133 361 133 q 503 153 463 133 q 563 211 543 172 l 760 211 m 582 431 q 531 546 574 499 q 410 593 488 593 q 288 549 336 593 q 226 431 239 504 l 582 431 m 415 806 q 310 828 357 806 q 236 894 264 851 q 204 992 208 936 l 335 992 q 357 933 336 954 q 415 913 378 913 q 472 933 451 913 q 494 992 492 954 l 625 992 q 593 894 621 936 q 519 828 565 851 q 415 806 474 806 z "},"ě":{"ha":814,"x_min":38,"x_max":771,"o":"m 760 211 q 689 88 738 140 q 569 6 640 35 q 410 -24 497 -24 q 217 24 301 -24 q 85 160 132 72 q 38 360 38 247 q 86 555 38 468 q 220 691 135 642 q 413 740 306 740 q 608 688 528 740 q 729 547 689 636 q 771 343 769 457 q 769 304 771 319 l 225 304 q 258 214 232 253 q 322 154 283 175 q 410 133 361 133 q 503 153 463 133 q 563 211 543 172 l 760 211 m 582 431 q 531 546 574 499 q 410 593 488 593 q 288 549 336 593 q 226 431 239 504 l 582 431 m 333 992 l 411 900 l 488 992 l 647 992 l 490 814 l 331 814 l 175 992 l 333 992 z "},"ê":{"ha":814,"x_min":38,"x_max":771,"o":"m 760 211 q 689 88 738 140 q 569 6 640 35 q 410 -24 497 -24 q 217 24 301 -24 q 85 160 132 72 q 38 360 38 247 q 86 555 38 468 q 220 691 135 642 q 413 740 306 740 q 608 688 528 740 q 729 547 689 636 q 771 343 769 457 q 769 304 771 319 l 225 304 q 258 214 232 253 q 322 154 283 175 q 410 133 361 133 q 503 153 463 133 q 563 211 543 172 l 760 211 m 582 431 q 531 546 574 499 q 410 593 488 593 q 288 549 336 593 q 226 431 239 504 l 582 431 m 331 992 l 490 992 l 647 814 l 488 814 l 411 906 l 333 814 l 175 814 l 331 992 z "},"ë":{"ha":814,"x_min":38,"x_max":771,"o":"m 760 211 q 689 88 738 140 q 569 6 640 35 q 410 -24 497 -24 q 217 24 301 -24 q 85 160 132 72 q 38 360 38 247 q 86 555 38 468 q 220 691 135 642 q 413 740 306 740 q 608 688 528 740 q 729 547 689 636 q 771 343 769 457 q 769 304 771 319 l 225 304 q 258 214 232 253 q 322 154 283 175 q 410 133 361 133 q 503 153 463 133 q 563 211 543 172 l 760 211 m 582 431 q 531 546 574 499 q 410 593 488 593 q 288 549 336 593 q 226 431 239 504 l 582 431 m 360 992 l 360 829 l 199 829 l 199 992 l 360 992 m 461 992 l 624 992 l 624 829 l 461 829 l 461 992 z "},"ė":{"ha":814,"x_min":38,"x_max":771,"o":"m 760 211 q 689 88 738 140 q 569 6 640 35 q 410 -24 497 -24 q 217 24 301 -24 q 85 160 132 72 q 38 360 38 247 q 86 555 38 468 q 220 691 135 642 q 413 740 306 740 q 608 688 528 740 q 729 547 689 636 q 771 343 769 457 q 769 304 771 319 l 225 304 q 258 214 232 253 q 322 154 283 175 q 410 133 361 133 q 503 153 463 133 q 563 211 543 172 l 760 211 m 582 431 q 531 546 574 499 q 410 593 488 593 q 288 549 336 593 q 226 431 239 504 l 582 431 m 335 829 l 335 992 l 488 992 l 488 829 l 335 829 z "},"è":{"ha":814,"x_min":38,"x_max":771,"o":"m 760 211 q 689 88 738 140 q 569 6 640 35 q 410 -24 497 -24 q 217 24 301 -24 q 85 160 132 72 q 38 360 38 247 q 86 555 38 468 q 220 691 135 642 q 413 740 306 740 q 608 688 528 740 q 729 547 689 636 q 771 343 769 457 q 769 304 771 319 l 225 304 q 258 214 232 253 q 322 154 283 175 q 410 133 361 133 q 503 153 463 133 q 563 211 543 172 l 760 211 m 582 431 q 531 546 574 499 q 410 593 488 593 q 288 549 336 593 q 226 431 239 504 l 582 431 m 514 810 l 369 810 l 179 992 l 390 992 l 514 810 z "},"ē":{"ha":814,"x_min":38,"x_max":771,"o":"m 760 211 q 689 88 738 140 q 569 6 640 35 q 410 -24 497 -24 q 217 24 301 -24 q 85 160 132 72 q 38 360 38 247 q 86 555 38 468 q 220 691 135 642 q 413 740 306 740 q 608 688 528 740 q 729 547 689 636 q 771 343 769 457 q 769 304 771 319 l 225 304 q 258 214 232 253 q 322 154 283 175 q 410 133 361 133 q 503 153 463 133 q 563 211 543 172 l 760 211 m 582 431 q 531 546 574 499 q 410 593 488 593 q 288 549 336 593 q 226 431 239 504 l 582 431 m 658 946 l 658 858 l 164 858 l 164 946 l 658 946 z "},"ę":{"ha":814,"x_min":38,"x_max":771,"o":"m 760 211 q 676 74 735 131 q 533 -7 618 18 q 440 -74 465 -42 q 414 -139 414 -106 q 508 -194 414 -194 l 497 -294 q 333 -264 388 -294 q 276 -164 278 -233 q 299 -88 276 -124 q 365 -21 321 -53 q 194 38 268 -12 q 78 171 119 88 q 38 360 38 254 q 86 555 38 468 q 220 691 135 642 q 413 740 306 740 q 608 688 528 740 q 729 547 689 636 q 771 343 769 457 q 769 304 771 319 l 225 304 q 258 214 232 253 q 322 154 283 175 q 410 133 361 133 q 503 153 463 133 q 563 211 543 172 l 760 211 m 582 431 q 531 546 574 499 q 410 593 488 593 q 288 549 336 593 q 226 431 239 504 l 582 431 z "},"f":{"ha":461,"x_min":19,"x_max":439,"o":"m 121 740 q 142 877 121 822 q 213 962 163 932 q 353 992 264 992 l 439 992 l 439 846 l 407 846 q 350 836 369 846 q 323 803 331 826 q 315 733 315 779 l 315 718 l 439 718 l 439 571 l 315 571 l 315 0 l 121 0 l 121 571 l 19 571 l 19 718 l 121 718 l 121 740 z "},"g":{"ha":871,"x_min":38,"x_max":789,"o":"m 789 718 l 789 82 q 739 -118 789 -40 q 606 -230 689 -196 q 419 -264 524 -264 q 241 -231 318 -264 q 119 -142 164 -199 q 63 -15 74 -85 l 254 -15 q 417 -117 278 -117 q 581 47 581 -117 l 581 135 l 579 135 q 505 48 556 82 q 372 14 454 14 q 201 57 276 14 q 81 183 125 100 q 38 378 38 265 q 81 572 38 490 q 199 695 124 653 q 371 738 274 738 q 504 705 450 738 q 579 626 558 672 l 581 626 l 581 718 l 789 718 m 233 376 q 255 272 233 319 q 318 195 276 224 q 418 167 360 167 q 521 197 479 167 q 582 276 563 228 q 601 376 601 324 q 580 476 601 428 q 517 554 558 524 q 418 585 475 585 q 318 556 360 585 q 255 481 276 528 q 233 376 233 433 z "},"ğ":{"ha":871,"x_min":38,"x_max":789,"o":"m 789 718 l 789 82 q 739 -118 789 -40 q 606 -230 689 -196 q 419 -264 524 -264 q 241 -231 318 -264 q 119 -142 164 -199 q 63 -15 74 -85 l 254 -15 q 417 -117 278 -117 q 581 47 581 -117 l 581 135 l 579 135 q 505 48 556 82 q 372 14 454 14 q 201 57 276 14 q 81 183 125 100 q 38 378 38 265 q 81 572 38 490 q 199 695 124 653 q 371 738 274 738 q 504 705 450 738 q 579 626 558 672 l 581 626 l 581 718 l 789 718 m 233 376 q 255 272 233 319 q 318 195 276 224 q 418 167 360 167 q 521 197 479 167 q 582 276 563 228 q 601 376 601 324 q 580 476 601 428 q 517 554 558 524 q 418 585 475 585 q 318 556 360 585 q 255 481 276 528 q 233 376 233 433 m 439 806 q 334 828 381 806 q 260 894 288 851 q 228 992 232 936 l 358 992 q 381 933 360 954 q 439 913 401 913 q 495 933 475 913 q 518 992 515 954 l 649 992 q 617 894 644 936 q 543 828 589 851 q 439 806 497 806 z "},"ĝ":{"ha":871,"x_min":38,"x_max":789,"o":"m 789 718 l 789 82 q 739 -118 789 -40 q 606 -230 689 -196 q 419 -264 524 -264 q 241 -231 318 -264 q 119 -142 164 -199 q 63 -15 74 -85 l 254 -15 q 417 -117 278 -117 q 581 47 581 -117 l 581 135 l 579 135 q 505 48 556 82 q 372 14 454 14 q 201 57 276 14 q 81 183 125 100 q 38 378 38 265 q 81 572 38 490 q 199 695 124 653 q 371 738 274 738 q 504 705 450 738 q 579 626 558 672 l 581 626 l 581 718 l 789 718 m 233 376 q 255 272 233 319 q 318 195 276 224 q 418 167 360 167 q 521 197 479 167 q 582 276 563 228 q 601 376 601 324 q 580 476 601 428 q 517 554 558 524 q 418 585 475 585 q 318 556 360 585 q 255 481 276 528 q 233 376 233 433 m 354 992 l 514 992 l 671 814 l 511 814 l 435 906 l 357 814 l 199 814 l 354 992 z "},"ģ":{"ha":871,"x_min":38,"x_max":789,"o":"m 789 718 l 789 82 q 739 -118 789 -40 q 606 -230 689 -196 q 419 -264 524 -264 q 241 -231 318 -264 q 119 -142 164 -199 q 63 -15 74 -85 l 254 -15 q 417 -117 278 -117 q 581 47 581 -117 l 581 135 l 579 135 q 505 48 556 82 q 372 14 454 14 q 201 57 276 14 q 81 183 125 100 q 38 378 38 265 q 81 572 38 490 q 199 695 124 653 q 371 738 274 738 q 504 705 450 738 q 579 626 558 672 l 581 626 l 581 718 l 789 718 m 233 376 q 255 272 233 319 q 318 195 276 224 q 418 167 360 167 q 521 197 479 167 q 582 276 563 228 q 601 376 601 324 q 580 476 601 428 q 517 554 558 524 q 418 585 475 585 q 318 556 360 585 q 255 481 276 528 q 233 376 233 433 m 349 835 l 349 958 q 388 1045 349 1017 q 501 1074 426 1074 l 501 1025 q 447 1006 460 1019 q 433 974 433 992 l 518 974 l 518 835 l 349 835 z "},"ġ":{"ha":871,"x_min":38,"x_max":789,"o":"m 789 718 l 789 82 q 739 -118 789 -40 q 606 -230 689 -196 q 419 -264 524 -264 q 241 -231 318 -264 q 119 -142 164 -199 q 63 -15 74 -85 l 254 -15 q 417 -117 278 -117 q 581 47 581 -117 l 581 135 l 579 135 q 505 48 556 82 q 372 14 454 14 q 201 57 276 14 q 81 183 125 100 q 38 378 38 265 q 81 572 38 490 q 199 695 124 653 q 371 738 274 738 q 504 705 450 738 q 579 626 558 672 l 581 626 l 581 718 l 789 718 m 233 376 q 255 272 233 319 q 318 195 276 224 q 418 167 360 167 q 521 197 479 167 q 582 276 563 228 q 601 376 601 324 q 580 476 601 428 q 517 554 558 524 q 418 585 475 585 q 318 556 360 585 q 255 481 276 528 q 233 376 233 433 m 357 829 l 357 992 l 510 992 l 510 829 l 357 829 z "},"h":{"ha":824,"x_min":82,"x_max":747,"o":"m 82 992 l 274 992 l 274 600 q 358 703 306 667 q 489 739 410 739 q 685 658 622 739 q 747 431 747 576 l 747 0 l 551 0 l 551 378 q 525 515 551 464 q 428 567 499 567 q 318 503 357 567 q 279 313 279 439 l 279 0 l 82 0 l 82 992 z "},"ħ":{"ha":824,"x_min":0,"x_max":747,"o":"m 82 810 l 0 810 l 0 888 l 82 888 l 82 992 l 274 992 l 274 888 l 474 888 l 474 810 l 274 810 l 274 600 q 358 703 306 667 q 489 739 410 739 q 685 658 622 739 q 747 431 747 576 l 747 0 l 551 0 l 551 378 q 525 515 551 464 q 428 567 499 567 q 318 503 357 567 q 279 313 279 439 l 279 0 l 82 0 l 82 810 z "},"ĥ":{"ha":824,"x_min":-60,"x_max":747,"o":"m 82 992 l 274 992 l 274 600 q 358 703 306 667 q 489 739 410 739 q 685 658 622 739 q 747 431 747 576 l 747 0 l 551 0 l 551 378 q 525 515 551 464 q 428 567 499 567 q 318 503 357 567 q 279 313 279 439 l 279 0 l 82 0 l 82 992 m 69 1219 l 289 1219 l 417 1058 l 239 1058 l 178 1139 l 118 1058 l -60 1058 l 69 1219 z "},"i":{"ha":368,"x_min":82,"x_max":286,"o":"m 83 815 l 83 992 l 286 992 l 286 815 l 83 815 m 82 718 l 279 718 l 279 0 l 82 0 l 82 718 z "},"ı":{"ha":361,"x_min":82,"x_max":279,"o":"m 82 718 l 279 718 l 279 0 l 82 0 l 82 718 z "},"í":{"ha":361,"x_min":82,"x_max":417,"o":"m 82 718 l 279 718 l 279 0 l 82 0 l 82 718 m 417 992 l 226 810 l 82 810 l 206 992 l 417 992 z "},"ĭ":{"ha":361,"x_min":-26,"x_max":394,"o":"m 82 718 l 279 718 l 279 0 l 82 0 l 82 718 m 185 806 q 80 828 126 806 q 6 894 33 851 q -26 992 -22 936 l 104 992 q 126 933 106 954 q 185 913 147 913 q 241 933 221 913 q 264 992 261 954 l 394 992 q 363 894 390 936 q 289 828 335 851 q 185 806 243 806 z "},"î":{"ha":361,"x_min":-56,"x_max":417,"o":"m 82 718 l 279 718 l 279 0 l 82 0 l 82 718 m 100 992 l 260 992 l 417 814 l 257 814 l 181 906 l 103 814 l -56 814 l 100 992 z "},"ï":{"ha":361,"x_min":-32,"x_max":393,"o":"m 82 718 l 279 718 l 279 0 l 82 0 l 82 718 m 129 992 l 129 829 l -32 829 l -32 992 l 129 992 m 231 992 l 393 992 l 393 829 l 231 829 l 231 992 z "},"ì":{"ha":361,"x_min":-51,"x_max":283,"o":"m 82 718 l 279 718 l 279 0 l 82 0 l 82 718 m 283 810 l 139 810 l -51 992 l 160 992 l 283 810 z "},"ĳ":{"ha":732,"x_min":82,"x_max":650,"o":"m 83 815 l 83 992 l 286 992 l 286 815 l 83 815 m 82 718 l 279 718 l 279 0 l 82 0 l 82 718 m 449 815 l 449 992 l 650 992 l 650 815 l 449 815 m 329 -125 l 363 -125 q 419 -116 400 -125 q 447 -83 439 -107 q 454 -14 454 -60 l 454 718 l 646 718 l 646 -25 q 626 -161 646 -107 q 556 -244 606 -215 q 417 -274 506 -274 l 329 -274 l 329 -125 z "},"ī":{"ha":361,"x_min":-67,"x_max":428,"o":"m 82 718 l 279 718 l 279 0 l 82 0 l 82 718 m 428 946 l 428 858 l -67 858 l -67 946 l 428 946 z "},"į":{"ha":361,"x_min":3,"x_max":279,"o":"m 82 718 l 279 718 l 279 0 l 82 0 l 82 718 m 104 829 l 104 992 l 257 992 l 257 829 l 104 829 m 279 0 q 171 -72 201 -37 q 140 -142 140 -107 q 235 -197 140 -197 l 224 -297 q 59 -267 114 -297 q 3 -167 4 -236 q 131 0 3 -72 l 279 0 z "},"ĩ":{"ha":361,"x_min":-64,"x_max":424,"o":"m 82 718 l 279 718 l 279 0 l 82 0 l 82 718 m -64 825 q -42 909 -62 871 q 13 969 -22 947 q 92 992 47 992 q 141 984 118 992 q 193 961 164 976 q 227 944 213 950 q 256 939 242 939 q 290 952 276 939 q 307 992 303 965 l 424 992 q 403 903 422 942 q 349 844 383 865 q 274 824 315 824 q 218 832 243 824 q 164 856 193 840 q 131 870 147 864 q 103 876 115 876 q 66 863 81 876 q 49 825 51 849 l -64 825 z "},"j":{"ha":376,"x_min":-26,"x_max":294,"o":"m 93 815 l 93 992 l 294 992 l 294 815 l 93 815 m -26 -125 l 7 -125 q 64 -116 44 -125 q 91 -83 83 -107 q 99 -14 99 -60 l 99 718 l 290 718 l 290 -25 q 270 -161 290 -107 q 200 -244 250 -215 q 61 -274 150 -274 l -26 -274 l -26 -125 z "},"ȷ":{"ha":376,"x_min":-22,"x_max":294,"o":"m 294 -25 q 274 -161 294 -107 q 204 -244 254 -215 q 65 -274 154 -274 l -22 -274 l -22 -125 l 11 -125 q 68 -116 49 -125 q 95 -83 88 -107 q 103 -14 103 -60 l 103 718 l 294 718 l 294 -25 z "},"ĵ":{"ha":376,"x_min":-39,"x_max":433,"o":"m 294 -25 q 274 -161 294 -107 q 204 -244 254 -215 q 65 -274 154 -274 l -22 -274 l -22 -125 l 11 -125 q 68 -116 49 -125 q 95 -83 88 -107 q 103 -14 103 -60 l 103 718 l 294 718 l 294 -25 m 117 992 l 276 992 l 433 814 l 274 814 l 197 906 l 119 814 l -39 814 l 117 992 z "},"k":{"ha":782,"x_min":82,"x_max":772,"o":"m 82 0 l 82 992 l 279 992 l 279 435 l 536 718 l 771 718 l 469 406 l 772 0 l 543 0 l 342 278 l 279 218 l 279 0 l 82 0 z "},"ķ":{"ha":782,"x_min":82,"x_max":772,"o":"m 82 0 l 82 992 l 279 992 l 279 435 l 536 718 l 771 718 l 469 406 l 772 0 l 543 0 l 342 278 l 279 218 l 279 0 l 82 0 m 479 -62 l 479 -185 q 440 -272 479 -243 q 326 -300 401 -300 l 326 -251 q 381 -232 368 -246 q 394 -200 394 -218 l 310 -200 l 310 -62 l 479 -62 z "},"ĸ":{"ha":782,"x_min":82,"x_max":772,"o":"m 82 0 l 82 718 l 279 718 l 279 424 l 536 718 l 771 718 l 474 400 l 772 0 l 543 0 l 346 271 l 279 207 l 279 0 l 82 0 z "},"l":{"ha":361,"x_min":82,"x_max":279,"o":"m 279 992 l 279 0 l 82 0 l 82 992 l 279 992 z "},"ĺ":{"ha":361,"x_min":72,"x_max":444,"o":"m 279 992 l 279 0 l 82 0 l 82 992 l 279 992 m 444 1222 l 256 1064 l 72 1064 l 225 1222 l 444 1222 z "},"ľ":{"ha":361,"x_min":82,"x_max":515,"o":"m 279 992 l 279 0 l 82 0 l 82 992 l 279 992 m 515 992 l 463 764 l 347 764 l 356 992 l 515 992 z "},"ļ":{"ha":361,"x_min":82,"x_max":279,"o":"m 279 992 l 279 0 l 82 0 l 82 992 l 279 992 m 268 -62 l 268 -185 q 229 -272 268 -243 q 115 -300 190 -300 l 115 -251 q 170 -232 157 -246 q 183 -200 183 -218 l 99 -200 l 99 -62 l 268 -62 z "},"ŀ":{"ha":499,"x_min":82,"x_max":511,"o":"m 279 992 l 279 0 l 82 0 l 82 992 l 279 992 m 358 414 l 358 576 l 511 576 l 511 414 l 358 414 z "},"ł":{"ha":363,"x_min":-6,"x_max":374,"o":"m 279 556 l 279 0 l 82 0 l 82 426 l -6 369 l -6 468 l 82 526 l 82 992 l 279 992 l 279 657 l 372 718 l 374 618 l 279 556 z "},"m":{"ha":1218,"x_min":82,"x_max":1142,"o":"m 82 718 l 274 718 l 274 601 q 345 699 294 658 q 471 739 396 739 q 664 607 610 739 q 741 706 696 672 q 863 739 786 739 q 1015 701 953 739 q 1110 594 1078 663 q 1142 431 1142 525 l 1142 0 l 947 0 l 947 378 q 836 567 947 567 q 767 539 796 567 q 724 459 739 511 q 708 339 708 407 l 708 0 l 519 0 l 519 378 q 512 475 519 435 q 480 541 504 515 q 408 567 456 567 q 308 498 336 567 q 279 313 279 429 l 279 0 l 82 0 l 82 718 z "},"n":{"ha":824,"x_min":82,"x_max":747,"o":"m 82 718 l 274 718 l 274 599 q 358 702 306 665 q 489 739 410 739 q 685 658 622 739 q 747 431 747 576 l 747 0 l 551 0 l 551 378 q 525 515 551 464 q 428 567 499 567 q 318 503 357 567 q 279 313 279 439 l 279 0 l 82 0 l 82 718 z "},"ń":{"ha":824,"x_min":82,"x_max":747,"o":"m 82 718 l 274 718 l 274 599 q 358 702 306 665 q 489 739 410 739 q 685 658 622 739 q 747 431 747 576 l 747 0 l 551 0 l 551 378 q 525 515 551 464 q 428 567 499 567 q 318 503 357 567 q 279 313 279 439 l 279 0 l 82 0 l 82 718 m 649 992 l 458 810 l 314 810 l 438 992 l 649 992 z "},"ŉ":{"ha":824,"x_min":-61,"x_max":747,"o":"m 82 718 l 274 718 l 274 599 q 358 702 306 665 q 489 739 410 739 q 685 658 622 739 q 747 431 747 576 l 747 0 l 551 0 l 551 378 q 525 515 551 464 q 428 567 499 567 q 318 503 357 567 q 279 313 279 439 l 279 0 l 82 0 l 82 718 m -61 999 l 75 999 l 75 868 l 13 743 l -50 743 l -7 868 l -61 868 l -61 999 z "},"ň":{"ha":824,"x_min":82,"x_max":747,"o":"m 82 718 l 274 718 l 274 599 q 358 702 306 665 q 489 739 410 739 q 685 658 622 739 q 747 431 747 576 l 747 0 l 551 0 l 551 378 q 525 515 551 464 q 428 567 499 567 q 318 503 357 567 q 279 313 279 439 l 279 0 l 82 0 l 82 718 m 333 992 l 411 900 l 488 992 l 647 992 l 490 814 l 331 814 l 175 992 l 333 992 z "},"ņ":{"ha":824,"x_min":82,"x_max":747,"o":"m 82 718 l 274 718 l 274 599 q 358 702 306 665 q 489 739 410 739 q 685 658 622 739 q 747 431 747 576 l 747 0 l 551 0 l 551 378 q 525 515 551 464 q 428 567 499 567 q 318 503 357 567 q 279 313 279 439 l 279 0 l 82 0 l 82 718 m 499 -62 l 499 -185 q 460 -272 499 -243 q 346 -300 421 -300 l 346 -251 q 401 -232 388 -246 q 414 -200 414 -218 l 329 -200 l 329 -62 l 499 -62 z "},"ñ":{"ha":824,"x_min":82,"x_max":747,"o":"m 82 718 l 274 718 l 274 599 q 358 702 306 665 q 489 739 410 739 q 685 658 622 739 q 747 431 747 576 l 747 0 l 551 0 l 551 378 q 525 515 551 464 q 428 567 499 567 q 318 503 357 567 q 279 313 279 439 l 279 0 l 82 0 l 82 718 m 167 825 q 188 909 168 871 q 243 969 208 947 q 322 992 278 992 q 372 984 349 992 q 424 961 394 976 q 458 944 443 950 q 486 939 472 939 q 520 952 507 939 q 538 992 533 965 l 654 992 q 633 903 653 942 q 580 844 614 865 q 504 824 546 824 q 449 832 474 824 q 394 856 424 840 q 362 870 378 864 q 333 876 346 876 q 297 863 311 876 q 279 825 282 849 l 167 825 z "},"ŋ":{"ha":824,"x_min":82,"x_max":747,"o":"m 747 -25 q 726 -161 747 -107 q 654 -244 706 -215 q 514 -274 603 -274 l 426 -274 l 426 -125 l 460 -125 q 517 -116 497 -125 q 544 -83 536 -107 q 551 -14 551 -60 l 551 378 q 525 515 551 464 q 428 567 499 567 q 318 503 357 567 q 279 313 279 439 l 279 0 l 82 0 l 82 718 l 274 718 l 274 599 q 358 702 306 665 q 489 739 410 739 q 685 658 622 739 q 747 431 747 576 l 747 -25 z "},"o":{"ha":838,"x_min":38,"x_max":800,"o":"m 419 -22 q 228 24 315 -22 q 89 158 140 71 q 38 360 38 244 q 89 561 38 475 q 228 693 140 647 q 419 739 315 739 q 610 693 524 739 q 749 561 697 647 q 800 360 800 475 q 749 158 800 244 q 610 24 697 71 q 419 -22 524 -22 m 228 360 q 251 245 228 297 q 319 163 275 193 q 419 132 363 132 q 519 163 476 132 q 586 245 563 193 q 610 360 610 297 q 586 474 610 422 q 519 556 563 525 q 419 586 476 586 q 319 556 363 586 q 251 474 275 525 q 228 360 228 422 z "},"ó":{"ha":838,"x_min":38,"x_max":800,"o":"m 419 -22 q 228 24 315 -22 q 89 158 140 71 q 38 360 38 244 q 89 561 38 475 q 228 693 140 647 q 419 739 315 739 q 610 693 524 739 q 749 561 697 647 q 800 360 800 475 q 749 158 800 244 q 610 24 697 71 q 419 -22 524 -22 m 228 360 q 251 245 228 297 q 319 163 275 193 q 419 132 363 132 q 519 163 476 132 q 586 245 563 193 q 610 360 610 297 q 586 474 610 422 q 519 556 563 525 q 419 586 476 586 q 319 556 363 586 q 251 474 275 525 q 228 360 228 422 m 657 992 l 467 810 l 322 810 l 446 992 l 657 992 z "},"ŏ":{"ha":838,"x_min":38,"x_max":800,"o":"m 419 -22 q 228 24 315 -22 q 89 158 140 71 q 38 360 38 244 q 89 561 38 475 q 228 693 140 647 q 419 739 315 739 q 610 693 524 739 q 749 561 697 647 q 800 360 800 475 q 749 158 800 244 q 610 24 697 71 q 419 -22 524 -22 m 228 360 q 251 245 228 297 q 319 163 275 193 q 419 132 363 132 q 519 163 476 132 q 586 245 563 193 q 610 360 610 297 q 586 474 610 422 q 519 556 563 525 q 419 586 476 586 q 319 556 363 586 q 251 474 275 525 q 228 360 228 422 m 424 806 q 319 828 365 806 q 244 894 272 851 q 213 992 217 936 l 343 992 q 365 933 344 954 q 424 913 386 913 q 480 933 460 913 q 503 992 500 954 l 633 992 q 601 894 629 936 q 528 828 574 851 q 424 806 482 806 z "},"ô":{"ha":838,"x_min":38,"x_max":800,"o":"m 419 -22 q 228 24 315 -22 q 89 158 140 71 q 38 360 38 244 q 89 561 38 475 q 228 693 140 647 q 419 739 315 739 q 610 693 524 739 q 749 561 697 647 q 800 360 800 475 q 749 158 800 244 q 610 24 697 71 q 419 -22 524 -22 m 228 360 q 251 245 228 297 q 319 163 275 193 q 419 132 363 132 q 519 163 476 132 q 586 245 563 193 q 610 360 610 297 q 586 474 610 422 q 519 556 563 525 q 419 586 476 586 q 319 556 363 586 q 251 474 275 525 q 228 360 228 422 m 339 992 l 499 992 l 656 814 l 496 814 l 419 906 l 342 814 l 183 814 l 339 992 z "},"ö":{"ha":838,"x_min":38,"x_max":800,"o":"m 419 -22 q 228 24 315 -22 q 89 158 140 71 q 38 360 38 244 q 89 561 38 475 q 228 693 140 647 q 419 739 315 739 q 610 693 524 739 q 749 561 697 647 q 800 360 800 475 q 749 158 800 244 q 610 24 697 71 q 419 -22 524 -22 m 228 360 q 251 245 228 297 q 319 163 275 193 q 419 132 363 132 q 519 163 476 132 q 586 245 563 193 q 610 360 610 297 q 586 474 610 422 q 519 556 563 525 q 419 586 476 586 q 319 556 363 586 q 251 474 275 525 q 228 360 228 422 m 368 992 l 368 829 l 207 829 l 207 992 l 368 992 m 469 992 l 632 992 l 632 829 l 469 829 l 469 992 z "},"ò":{"ha":838,"x_min":38,"x_max":800,"o":"m 419 -22 q 228 24 315 -22 q 89 158 140 71 q 38 360 38 244 q 89 561 38 475 q 228 693 140 647 q 419 739 315 739 q 610 693 524 739 q 749 561 697 647 q 800 360 800 475 q 749 158 800 244 q 610 24 697 71 q 419 -22 524 -22 m 228 360 q 251 245 228 297 q 319 163 275 193 q 419 132 363 132 q 519 163 476 132 q 586 245 563 193 q 610 360 610 297 q 586 474 610 422 q 519 556 563 525 q 419 586 476 586 q 319 556 363 586 q 251 474 275 525 q 228 360 228 422 m 524 810 l 379 810 l 189 992 l 400 992 l 524 810 z "},"ő":{"ha":838,"x_min":38,"x_max":800,"o":"m 419 -22 q 228 24 315 -22 q 89 158 140 71 q 38 360 38 244 q 89 561 38 475 q 228 693 140 647 q 419 739 315 739 q 610 693 524 739 q 749 561 697 647 q 800 360 800 475 q 749 158 800 244 q 610 24 697 71 q 419 -22 524 -22 m 228 360 q 251 245 228 297 q 319 163 275 193 q 419 132 363 132 q 519 163 476 132 q 586 245 563 193 q 610 360 610 297 q 586 474 610 422 q 519 556 563 525 q 419 586 476 586 q 319 556 363 586 q 251 474 275 525 q 228 360 228 422 m 715 992 l 558 810 l 429 810 l 539 992 l 715 992 m 314 992 l 490 992 l 333 810 l 206 810 l 314 992 z "},"ō":{"ha":838,"x_min":38,"x_max":800,"o":"m 419 -22 q 228 24 315 -22 q 89 158 140 71 q 38 360 38 244 q 89 561 38 475 q 228 693 140 647 q 419 739 315 739 q 610 693 524 739 q 749 561 697 647 q 800 360 800 475 q 749 158 800 244 q 610 24 697 71 q 419 -22 524 -22 m 228 360 q 251 245 228 297 q 319 163 275 193 q 419 132 363 132 q 519 163 476 132 q 586 245 563 193 q 610 360 610 297 q 586 474 610 422 q 519 556 563 525 q 419 586 476 586 q 319 556 363 586 q 251 474 275 525 q 228 360 228 422 m 667 946 l 667 858 l 172 858 l 172 946 l 667 946 z "},"ø":{"ha":838,"x_min":38,"x_max":800,"o":"m 419 -22 q 297 -5 356 -22 q 192 46 239 13 l 126 -25 l 58 33 l 125 106 q 60 219 83 156 q 38 360 38 283 q 89 561 38 475 q 228 693 140 647 q 419 739 315 739 q 541 721 482 739 q 649 669 600 703 l 715 740 l 779 676 l 715 608 q 778 496 756 558 q 800 360 800 433 q 749 158 800 244 q 610 24 697 71 q 419 -22 524 -22 m 228 360 q 253 243 228 293 l 533 544 q 419 586 485 586 q 319 556 363 586 q 251 474 275 525 q 228 360 228 422 m 308 171 q 419 132 356 132 q 519 163 476 132 q 586 245 563 193 q 610 360 610 297 q 588 471 610 418 l 308 171 z "},"ǿ":{"ha":838,"x_min":38,"x_max":800,"o":"m 419 -22 q 297 -5 356 -22 q 192 46 239 13 l 126 -25 l 58 33 l 125 106 q 60 219 83 156 q 38 360 38 283 q 89 561 38 475 q 228 693 140 647 q 419 739 315 739 q 541 721 482 739 q 649 669 600 703 l 715 740 l 779 676 l 715 608 q 778 496 756 558 q 800 360 800 433 q 749 158 800 244 q 610 24 697 71 q 419 -22 524 -22 m 228 360 q 253 243 228 293 l 533 544 q 419 586 485 586 q 319 556 363 586 q 251 474 275 525 q 228 360 228 422 m 308 171 q 419 132 356 132 q 519 163 476 132 q 586 245 563 193 q 610 360 610 297 q 588 471 610 418 l 308 171 m 657 992 l 467 810 l 322 810 l 446 992 l 657 992 z "},"õ":{"ha":838,"x_min":38,"x_max":800,"o":"m 419 -22 q 228 24 315 -22 q 89 158 140 71 q 38 360 38 244 q 89 561 38 475 q 228 693 140 647 q 419 739 315 739 q 610 693 524 739 q 749 561 697 647 q 800 360 800 475 q 749 158 800 244 q 610 24 697 71 q 419 -22 524 -22 m 228 360 q 251 245 228 297 q 319 163 275 193 q 419 132 363 132 q 519 163 476 132 q 586 245 563 193 q 610 360 610 297 q 586 474 610 422 q 519 556 563 525 q 419 586 476 586 q 319 556 363 586 q 251 474 275 525 q 228 360 228 422 m 175 825 q 197 909 176 871 q 251 969 217 947 q 331 992 286 992 q 380 984 357 992 q 432 961 403 976 q 466 944 451 950 q 494 939 481 939 q 528 952 515 939 q 546 992 542 965 l 663 992 q 642 903 661 942 q 588 844 622 865 q 513 824 554 824 q 457 832 482 824 q 403 856 432 840 q 370 870 386 864 q 342 876 354 876 q 305 863 319 876 q 288 825 290 849 l 175 825 z "},"œ":{"ha":1321,"x_min":38,"x_max":1278,"o":"m 413 -18 q 223 28 308 -18 q 88 160 138 74 q 38 360 38 246 q 88 558 38 474 q 223 689 138 643 q 413 735 308 735 q 563 703 497 735 q 674 614 629 672 q 781 702 715 671 q 932 733 846 733 q 1124 683 1046 733 q 1240 546 1201 633 q 1278 344 1278 458 q 1276 313 1278 328 l 758 313 q 810 178 764 225 q 933 131 857 131 q 1020 151 986 131 q 1074 215 1054 171 l 1269 215 q 1149 44 1236 106 q 929 -17 1063 -17 q 776 13 842 -17 q 671 100 711 43 q 561 13 626 43 q 413 -18 496 -18 m 236 360 q 259 235 236 288 q 322 157 282 183 q 413 131 363 131 q 503 157 464 131 q 565 235 543 183 q 588 360 588 286 q 565 483 588 432 q 502 561 542 535 q 413 588 463 588 q 323 561 363 588 q 260 483 283 535 q 236 360 236 432 m 1088 436 q 1040 553 1079 513 q 931 594 1000 594 q 815 553 858 594 q 761 436 771 511 l 1088 436 z "},"p":{"ha":876,"x_min":82,"x_max":839,"o":"m 500 738 q 673 691 596 738 q 794 559 750 644 q 839 360 839 474 q 794 160 839 246 q 672 27 749 74 q 499 -19 594 -19 q 366 18 418 -19 q 290 103 314 56 l 289 103 l 289 -278 l 82 -278 l 82 718 l 285 718 l 285 607 l 286 607 q 327 667 299 638 q 399 717 356 697 q 500 738 443 738 m 268 360 q 290 247 268 299 q 353 164 311 196 q 457 132 396 132 q 559 163 517 132 q 623 244 601 193 q 644 360 644 296 q 622 474 644 422 q 558 555 600 525 q 457 585 515 585 q 356 553 399 585 q 290 471 313 522 q 268 360 268 419 z "},"þ":{"ha":876,"x_min":82,"x_max":839,"o":"m 82 -275 l 82 992 l 285 992 l 285 607 l 286 607 q 327 667 299 638 q 399 717 356 697 q 500 738 443 738 q 673 691 596 738 q 794 559 750 644 q 839 360 839 474 q 794 160 839 246 q 672 27 749 74 q 499 -19 594 -19 q 366 18 418 -19 q 290 103 314 56 l 289 103 l 289 -275 l 82 -275 m 268 360 q 290 247 268 299 q 353 164 311 196 q 457 132 396 132 q 559 163 517 132 q 623 244 601 193 q 644 360 644 296 q 622 474 644 422 q 558 555 600 525 q 457 585 515 585 q 356 553 399 585 q 290 471 313 522 q 268 360 268 419 z "},"q":{"ha":876,"x_min":38,"x_max":794,"o":"m 376 738 q 478 717 433 738 q 550 667 522 697 q 590 607 578 638 l 592 607 l 592 718 l 794 718 l 794 -278 l 589 -278 l 589 103 l 588 103 q 511 18 564 56 q 379 -19 458 -19 q 206 27 283 -19 q 83 160 128 74 q 38 360 38 246 q 82 559 38 474 q 203 691 126 644 q 376 738 281 738 m 233 360 q 255 244 233 296 q 319 163 276 193 q 421 132 361 132 q 524 164 482 132 q 588 247 567 196 q 610 360 610 299 q 588 471 610 419 q 522 553 565 522 q 421 585 479 585 q 320 555 363 585 q 256 474 278 525 q 233 360 233 422 z "},"r":{"ha":514,"x_min":82,"x_max":492,"o":"m 274 597 q 492 729 329 725 l 492 543 q 442 542 475 543 q 393 533 410 540 q 334 504 358 524 q 294 440 310 485 q 279 318 279 394 l 279 0 l 82 0 l 82 718 l 274 718 l 274 597 z "},"ŕ":{"ha":514,"x_min":82,"x_max":501,"o":"m 274 597 q 492 729 329 725 l 492 543 q 442 542 475 543 q 393 533 410 540 q 334 504 358 524 q 294 440 310 485 q 279 318 279 394 l 279 0 l 82 0 l 82 718 l 274 718 l 274 597 m 501 992 l 311 810 l 167 810 l 290 992 l 501 992 z "},"ř":{"ha":514,"x_min":28,"x_max":500,"o":"m 274 597 q 492 729 329 725 l 492 543 q 442 542 475 543 q 393 533 410 540 q 334 504 358 524 q 294 440 310 485 q 279 318 279 394 l 279 0 l 82 0 l 82 718 l 274 718 l 274 597 m 186 992 l 264 900 l 340 992 l 500 992 l 343 814 l 183 814 l 28 992 l 186 992 z "},"ŗ":{"ha":514,"x_min":82,"x_max":492,"o":"m 274 597 q 492 729 329 725 l 492 543 q 442 542 475 543 q 393 533 410 540 q 334 504 358 524 q 294 440 310 485 q 279 318 279 394 l 279 0 l 82 0 l 82 718 l 274 718 l 274 597 m 267 -62 l 267 -185 q 228 -272 267 -243 q 114 -300 189 -300 l 114 -251 q 169 -232 156 -246 q 182 -200 182 -218 l 97 -200 l 97 -62 l 267 -62 z "},"s":{"ha":694,"x_min":38,"x_max":657,"o":"m 464 504 q 424 576 456 553 q 346 600 392 600 q 273 579 301 600 q 244 528 244 558 q 271 474 244 494 q 361 438 297 454 q 413 424 374 433 l 458 411 q 606 335 556 385 q 657 206 657 286 q 619 87 657 139 q 511 6 581 35 q 351 -24 442 -24 q 137 39 221 -24 q 38 224 53 101 l 229 224 q 269 146 238 172 q 353 119 300 119 q 434 141 403 119 q 465 199 465 163 q 438 253 465 236 q 363 283 411 271 q 319 297 338 292 q 288 304 300 301 l 256 313 q 112 392 163 339 q 61 525 61 444 q 97 637 61 588 q 199 714 133 686 q 346 742 264 742 q 553 680 475 742 q 646 504 632 618 l 464 504 z "},"ś":{"ha":694,"x_min":38,"x_max":657,"o":"m 464 504 q 424 576 456 553 q 346 600 392 600 q 273 579 301 600 q 244 528 244 558 q 271 474 244 494 q 361 438 297 454 q 413 424 374 433 l 458 411 q 606 335 556 385 q 657 206 657 286 q 619 87 657 139 q 511 6 581 35 q 351 -24 442 -24 q 137 39 221 -24 q 38 224 53 101 l 229 224 q 269 146 238 172 q 353 119 300 119 q 434 141 403 119 q 465 199 465 163 q 438 253 465 236 q 363 283 411 271 q 319 297 338 292 q 288 304 300 301 l 256 313 q 112 392 163 339 q 61 525 61 444 q 97 637 61 588 q 199 714 133 686 q 346 742 264 742 q 553 680 475 742 q 646 504 632 618 l 464 504 m 583 992 l 393 810 l 249 810 l 372 992 l 583 992 z "},"š":{"ha":694,"x_min":38,"x_max":657,"o":"m 464 504 q 424 576 456 553 q 346 600 392 600 q 273 579 301 600 q 244 528 244 558 q 271 474 244 494 q 361 438 297 454 q 413 424 374 433 l 458 411 q 606 335 556 385 q 657 206 657 286 q 619 87 657 139 q 511 6 581 35 q 351 -24 442 -24 q 137 39 221 -24 q 38 224 53 101 l 229 224 q 269 146 238 172 q 353 119 300 119 q 434 141 403 119 q 465 199 465 163 q 438 253 465 236 q 363 283 411 271 q 319 297 338 292 q 288 304 300 301 l 256 313 q 112 392 163 339 q 61 525 61 444 q 97 637 61 588 q 199 714 133 686 q 346 742 264 742 q 553 680 475 742 q 646 504 632 618 l 464 504 m 269 992 l 347 900 l 424 992 l 583 992 l 426 814 l 267 814 l 111 992 l 269 992 z "},"ş":{"ha":694,"x_min":38,"x_max":657,"o":"m 464 504 q 424 576 456 553 q 346 600 392 600 q 273 579 301 600 q 244 528 244 558 q 271 474 244 494 q 361 438 297 454 q 413 424 374 433 l 458 411 q 606 335 556 385 q 657 206 657 286 q 623 93 657 143 q 526 13 589 43 q 382 -22 464 -18 l 329 -74 l 331 -75 q 371 -69 347 -69 q 469 -97 432 -71 q 507 -172 507 -124 q 478 -244 507 -215 q 408 -285 450 -272 q 326 -299 367 -299 q 260 -294 289 -299 q 200 -278 232 -289 l 221 -194 q 300 -212 260 -212 q 347 -203 329 -212 q 365 -176 365 -193 q 351 -150 365 -160 q 315 -140 338 -140 q 294 -143 306 -140 q 272 -150 283 -146 l 224 -90 l 286 -19 q 116 56 182 -6 q 38 224 50 117 l 229 224 q 269 146 238 172 q 353 119 300 119 q 434 141 403 119 q 465 199 465 163 q 438 253 465 236 q 363 283 411 271 q 319 297 338 292 q 288 304 300 301 l 256 313 q 112 392 163 339 q 61 525 61 444 q 97 637 61 588 q 199 714 133 686 q 346 742 264 742 q 553 680 475 742 q 646 504 632 618 l 464 504 z "},"ŝ":{"ha":694,"x_min":38,"x_max":657,"o":"m 464 504 q 424 576 456 553 q 346 600 392 600 q 273 579 301 600 q 244 528 244 558 q 271 474 244 494 q 361 438 297 454 q 413 424 374 433 l 458 411 q 606 335 556 385 q 657 206 657 286 q 619 87 657 139 q 511 6 581 35 q 351 -24 442 -24 q 137 39 221 -24 q 38 224 53 101 l 229 224 q 269 146 238 172 q 353 119 300 119 q 434 141 403 119 q 465 199 465 163 q 438 253 465 236 q 363 283 411 271 q 319 297 338 292 q 288 304 300 301 l 256 313 q 112 392 163 339 q 61 525 61 444 q 97 637 61 588 q 199 714 133 686 q 346 742 264 742 q 553 680 475 742 q 646 504 632 618 l 464 504 m 267 992 l 426 992 l 583 814 l 424 814 l 347 906 l 269 814 l 111 814 l 267 992 z "},"ș":{"ha":694,"x_min":38,"x_max":657,"o":"m 464 504 q 424 576 456 553 q 346 600 392 600 q 273 579 301 600 q 244 528 244 558 q 271 474 244 494 q 361 438 297 454 q 413 424 374 433 l 458 411 q 606 335 556 385 q 657 206 657 286 q 619 87 657 139 q 511 6 581 35 q 351 -24 442 -24 q 137 39 221 -24 q 38 224 53 101 l 229 224 q 269 146 238 172 q 353 119 300 119 q 434 141 403 119 q 465 199 465 163 q 438 253 465 236 q 363 283 411 271 q 319 297 338 292 q 288 304 300 301 l 256 313 q 112 392 163 339 q 61 525 61 444 q 97 637 61 588 q 199 714 133 686 q 346 742 264 742 q 553 680 475 742 q 646 504 632 618 l 464 504 m 433 -62 l 433 -185 q 394 -272 433 -243 q 281 -300 356 -300 l 281 -251 q 335 -232 322 -246 q 349 -200 349 -218 l 264 -200 l 264 -62 l 433 -62 z "},"ß":{"ha":782,"x_min":75,"x_max":735,"o":"m 75 686 q 111 863 75 789 q 217 976 147 938 q 388 1015 288 1015 q 545 986 478 1015 q 650 901 613 957 q 688 767 688 844 q 649 623 688 679 q 547 544 611 567 q 684 459 633 522 q 735 290 735 396 q 694 128 735 196 q 583 24 654 60 q 425 -11 513 -11 q 374 -8 401 -11 q 326 -1 346 -6 l 326 161 q 356 156 339 158 q 388 154 372 154 q 499 194 458 154 q 540 313 540 235 q 523 404 540 371 q 470 452 506 438 q 379 467 435 467 l 356 467 l 356 606 q 460 640 426 607 q 494 739 494 674 q 466 824 494 793 q 389 856 438 856 q 276 724 276 856 l 276 0 l 75 0 l 75 686 z "},"t":{"ha":501,"x_min":7,"x_max":463,"o":"m 317 293 q 324 213 317 242 q 351 167 331 183 q 411 151 371 151 l 456 151 l 456 -3 l 361 -4 q 217 27 269 -6 q 145 119 165 60 q 125 263 125 178 l 125 571 l 7 571 l 7 718 l 125 718 l 125 878 l 317 963 l 317 718 l 463 718 l 463 571 l 317 571 l 317 293 z "},"ŧ":{"ha":501,"x_min":7,"x_max":463,"o":"m 317 367 l 317 293 q 324 213 317 242 q 351 167 331 183 q 411 151 371 151 l 456 151 l 456 -3 l 361 -4 q 217 27 269 -6 q 145 119 165 60 q 125 263 125 178 l 125 367 l 17 367 l 17 478 l 125 478 l 125 571 l 7 571 l 7 718 l 125 718 l 125 878 l 317 963 l 317 718 l 463 718 l 463 571 l 317 571 l 317 478 l 450 478 l 450 367 l 317 367 z "},"ť":{"ha":503,"x_min":7,"x_max":554,"o":"m 317 293 q 324 213 317 242 q 351 167 331 183 q 411 151 371 151 l 456 151 l 456 -3 l 361 -4 q 217 27 269 -6 q 145 119 165 60 q 125 263 125 178 l 125 571 l 7 571 l 7 718 l 125 718 l 125 878 l 317 963 l 317 718 l 463 718 l 463 571 l 317 571 l 317 293 m 554 992 l 501 764 l 386 764 l 394 992 l 554 992 z "},"ţ":{"ha":503,"x_min":7,"x_max":463,"o":"m 317 293 q 324 213 317 242 q 351 167 331 183 q 411 151 371 151 l 456 151 l 456 -3 l 361 -4 q 217 27 269 -6 q 145 119 165 60 q 125 263 125 178 l 125 571 l 7 571 l 7 718 l 125 718 l 125 878 l 317 963 l 317 718 l 463 718 l 463 571 l 317 571 l 317 293 m 381 -62 l 381 -185 q 342 -272 381 -243 q 228 -300 303 -300 l 228 -251 q 283 -232 269 -246 q 296 -200 296 -218 l 211 -200 l 211 -62 l 381 -62 z "},"ț":{"ha":503,"x_min":7,"x_max":463,"o":"m 317 293 q 324 213 317 242 q 351 167 331 183 q 411 151 371 151 l 456 151 l 456 -3 l 361 -4 q 217 27 269 -6 q 145 119 165 60 q 125 263 125 178 l 125 571 l 7 571 l 7 718 l 125 718 l 125 878 l 317 963 l 317 718 l 463 718 l 463 571 l 317 571 l 317 293 m 381 -62 l 381 -185 q 342 -272 381 -243 q 228 -300 303 -300 l 228 -251 q 283 -232 269 -246 q 296 -200 296 -218 l 211 -200 l 211 -62 l 381 -62 z "},"u":{"ha":824,"x_min":76,"x_max":742,"o":"m 76 718 l 272 718 l 272 340 q 299 203 272 254 q 396 151 325 151 q 506 215 467 151 q 544 406 544 279 l 544 718 l 742 718 l 742 0 l 550 0 l 550 119 q 466 16 518 53 q 335 -21 414 -21 q 139 60 201 -21 q 76 288 76 142 l 76 718 z "},"ú":{"ha":824,"x_min":76,"x_max":742,"o":"m 76 718 l 272 718 l 272 340 q 299 203 272 254 q 396 151 325 151 q 506 215 467 151 q 544 406 544 279 l 544 718 l 742 718 l 742 0 l 550 0 l 550 119 q 466 16 518 53 q 335 -21 414 -21 q 139 60 201 -21 q 76 288 76 142 l 76 718 m 650 992 l 460 810 l 315 810 l 439 992 l 650 992 z "},"ŭ":{"ha":824,"x_min":76,"x_max":742,"o":"m 76 718 l 272 718 l 272 340 q 299 203 272 254 q 396 151 325 151 q 506 215 467 151 q 544 406 544 279 l 544 718 l 742 718 l 742 0 l 550 0 l 550 119 q 466 16 518 53 q 335 -21 414 -21 q 139 60 201 -21 q 76 288 76 142 l 76 718 m 417 806 q 312 828 358 806 q 238 894 265 851 q 206 992 210 936 l 336 992 q 358 933 338 954 q 417 913 379 913 q 473 933 453 913 q 496 992 493 954 l 626 992 q 594 894 622 936 q 521 828 567 851 q 417 806 475 806 z "},"û":{"ha":824,"x_min":76,"x_max":742,"o":"m 76 718 l 272 718 l 272 340 q 299 203 272 254 q 396 151 325 151 q 506 215 467 151 q 544 406 544 279 l 544 718 l 742 718 l 742 0 l 550 0 l 550 119 q 466 16 518 53 q 335 -21 414 -21 q 139 60 201 -21 q 76 288 76 142 l 76 718 m 333 992 l 493 992 l 650 814 l 490 814 l 414 906 l 336 814 l 178 814 l 333 992 z "},"ü":{"ha":824,"x_min":76,"x_max":742,"o":"m 76 718 l 272 718 l 272 340 q 299 203 272 254 q 396 151 325 151 q 506 215 467 151 q 544 406 544 279 l 544 718 l 742 718 l 742 0 l 550 0 l 550 119 q 466 16 518 53 q 335 -21 414 -21 q 139 60 201 -21 q 76 288 76 142 l 76 718 m 361 992 l 361 829 l 200 829 l 200 992 l 361 992 m 463 992 l 625 992 l 625 829 l 463 829 l 463 992 z "},"ù":{"ha":824,"x_min":76,"x_max":742,"o":"m 76 718 l 272 718 l 272 340 q 299 203 272 254 q 396 151 325 151 q 506 215 467 151 q 544 406 544 279 l 544 718 l 742 718 l 742 0 l 550 0 l 550 119 q 466 16 518 53 q 335 -21 414 -21 q 139 60 201 -21 q 76 288 76 142 l 76 718 m 517 810 l 372 810 l 182 992 l 393 992 l 517 810 z "},"ű":{"ha":824,"x_min":76,"x_max":742,"o":"m 76 718 l 272 718 l 272 340 q 299 203 272 254 q 396 151 325 151 q 506 215 467 151 q 544 406 544 279 l 544 718 l 742 718 l 742 0 l 550 0 l 550 119 q 466 16 518 53 q 335 -21 414 -21 q 139 60 201 -21 q 76 288 76 142 l 76 718 m 708 992 l 551 810 l 422 810 l 532 992 l 708 992 m 307 992 l 483 992 l 326 810 l 199 810 l 307 992 z "},"ū":{"ha":824,"x_min":76,"x_max":742,"o":"m 76 718 l 272 718 l 272 340 q 299 203 272 254 q 396 151 325 151 q 506 215 467 151 q 544 406 544 279 l 544 718 l 742 718 l 742 0 l 550 0 l 550 119 q 466 16 518 53 q 335 -21 414 -21 q 139 60 201 -21 q 76 288 76 142 l 76 718 m 661 946 l 661 858 l 167 858 l 167 946 l 661 946 z "},"ų":{"ha":824,"x_min":76,"x_max":742,"o":"m 76 718 l 272 718 l 272 340 q 299 203 272 254 q 396 151 325 151 q 506 215 467 151 q 544 406 544 279 l 544 718 l 742 718 l 742 0 l 740 0 q 632 -72 663 -37 q 601 -142 601 -107 q 696 -197 601 -197 l 685 -297 q 520 -267 575 -297 q 464 -167 465 -236 q 592 0 464 -72 l 550 0 l 550 119 q 466 16 518 53 q 335 -21 414 -21 q 139 60 201 -21 q 76 288 76 142 l 76 718 z "},"ů":{"ha":824,"x_min":76,"x_max":742,"o":"m 76 718 l 272 718 l 272 340 q 299 203 272 254 q 396 151 325 151 q 506 215 467 151 q 544 406 544 279 l 544 718 l 742 718 l 742 0 l 550 0 l 550 119 q 466 16 518 53 q 335 -21 414 -21 q 139 60 201 -21 q 76 288 76 142 l 76 718 m 258 928 q 279 1005 258 969 q 335 1061 300 1040 q 413 1082 371 1082 q 490 1061 454 1082 q 546 1005 525 1040 q 567 928 567 969 q 546 851 567 886 q 490 796 525 817 q 413 775 454 775 q 335 796 371 775 q 279 851 300 817 q 258 928 258 886 m 353 926 q 370 883 353 900 q 413 867 388 867 q 456 883 439 867 q 472 926 472 900 q 456 971 472 954 q 413 988 439 988 q 370 970 388 988 q 353 926 353 953 z "},"ũ":{"ha":824,"x_min":76,"x_max":742,"o":"m 76 718 l 272 718 l 272 340 q 299 203 272 254 q 396 151 325 151 q 506 215 467 151 q 544 406 544 279 l 544 718 l 742 718 l 742 0 l 550 0 l 550 119 q 466 16 518 53 q 335 -21 414 -21 q 139 60 201 -21 q 76 288 76 142 l 76 718 m 168 825 q 190 909 169 871 q 244 969 210 947 q 324 992 279 992 q 373 984 350 992 q 425 961 396 976 q 459 944 444 950 q 488 939 474 939 q 522 952 508 939 q 539 992 535 965 l 656 992 q 635 903 654 942 q 581 844 615 865 q 506 824 547 824 q 450 832 475 824 q 396 856 425 840 q 363 870 379 864 q 335 876 347 876 q 298 863 313 876 q 281 825 283 849 l 168 825 z "},"v":{"ha":742,"x_min":7,"x_max":735,"o":"m 215 718 q 275 522 250 597 q 317 383 286 485 q 371 196 347 282 l 375 196 q 433 399 397 282 q 479 551 468 517 q 501 621 488 579 q 531 718 514 663 l 735 718 q 481 0 583 294 l 261 0 l 7 718 l 215 718 z "},"w":{"ha":1128,"x_min":7,"x_max":1121,"o":"m 7 718 l 207 718 l 282 418 q 301 331 293 374 q 317 246 310 289 l 331 172 l 332 172 q 347 240 339 203 q 358 294 354 276 q 388 431 375 378 l 456 718 l 672 718 l 743 426 l 768 306 l 797 169 l 799 169 l 826 301 l 853 426 l 919 718 l 1121 718 l 913 0 l 682 0 l 614 268 q 565 499 575 424 l 560 499 q 511 271 536 375 l 444 0 l 214 0 l 7 718 z "},"ẃ":{"ha":1128,"x_min":7,"x_max":1121,"o":"m 7 718 l 207 718 l 282 418 q 301 331 293 374 q 317 246 310 289 l 331 172 l 332 172 q 347 240 339 203 q 358 294 354 276 q 388 431 375 378 l 456 718 l 672 718 l 743 426 l 768 306 l 797 169 l 799 169 l 826 301 l 853 426 l 919 718 l 1121 718 l 913 0 l 682 0 l 614 268 q 565 499 575 424 l 560 499 q 511 271 536 375 l 444 0 l 214 0 l 7 718 m 801 992 l 611 810 l 467 810 l 590 992 l 801 992 z "},"ŵ":{"ha":1128,"x_min":7,"x_max":1121,"o":"m 7 718 l 207 718 l 282 418 q 301 331 293 374 q 317 246 310 289 l 331 172 l 332 172 q 347 240 339 203 q 358 294 354 276 q 388 431 375 378 l 456 718 l 672 718 l 743 426 l 768 306 l 797 169 l 799 169 l 826 301 l 853 426 l 919 718 l 1121 718 l 913 0 l 682 0 l 614 268 q 565 499 575 424 l 560 499 q 511 271 536 375 l 444 0 l 214 0 l 7 718 m 483 992 l 643 992 l 800 814 l 640 814 l 564 906 l 486 814 l 328 814 l 483 992 z "},"ẅ":{"ha":1128,"x_min":7,"x_max":1121,"o":"m 7 718 l 207 718 l 282 418 q 301 331 293 374 q 317 246 310 289 l 331 172 l 332 172 q 347 240 339 203 q 358 294 354 276 q 388 431 375 378 l 456 718 l 672 718 l 743 426 l 768 306 l 797 169 l 799 169 l 826 301 l 853 426 l 919 718 l 1121 718 l 913 0 l 682 0 l 614 268 q 565 499 575 424 l 560 499 q 511 271 536 375 l 444 0 l 214 0 l 7 718 m 513 992 l 513 829 l 351 829 l 351 992 l 513 992 m 614 992 l 776 992 l 776 829 l 614 829 l 614 992 z "},"ẁ":{"ha":1128,"x_min":7,"x_max":1121,"o":"m 7 718 l 207 718 l 282 418 q 301 331 293 374 q 317 246 310 289 l 331 172 l 332 172 q 347 240 339 203 q 358 294 354 276 q 388 431 375 378 l 456 718 l 672 718 l 743 426 l 768 306 l 797 169 l 799 169 l 826 301 l 853 426 l 919 718 l 1121 718 l 913 0 l 682 0 l 614 268 q 565 499 575 424 l 560 499 q 511 271 536 375 l 444 0 l 214 0 l 7 718 m 668 810 l 524 810 l 333 992 l 544 992 l 668 810 z "},"x":{"ha":750,"x_min":18,"x_max":731,"o":"m 268 365 l 22 718 l 235 718 l 375 515 l 514 718 l 726 718 l 482 367 l 731 0 l 518 0 l 375 217 l 231 0 l 18 0 l 268 365 z "},"y":{"ha":747,"x_min":7,"x_max":740,"o":"m 214 718 q 300 457 260 574 q 338 345 313 421 q 381 210 363 269 l 383 210 q 417 331 397 264 q 451 442 436 397 q 472 513 465 488 q 535 718 499 594 l 740 718 l 588 288 q 432 -143 540 160 q 362 -244 407 -210 q 246 -278 317 -278 l 97 -278 l 97 -129 l 174 -129 q 231 -115 210 -129 q 261 -65 251 -101 l 278 -12 q 143 349 232 115 q 7 718 50 596 l 214 718 z "},"ý":{"ha":747,"x_min":7,"x_max":740,"o":"m 214 718 q 300 457 260 574 q 338 345 313 421 q 381 210 363 269 l 383 210 q 417 331 397 264 q 451 442 436 397 q 472 513 465 488 q 535 718 499 594 l 740 718 l 588 288 q 432 -143 540 160 q 362 -244 407 -210 q 246 -278 317 -278 l 97 -278 l 97 -129 l 174 -129 q 231 -115 210 -129 q 261 -65 251 -101 l 278 -12 q 143 349 232 115 q 7 718 50 596 l 214 718 m 610 992 l 419 810 l 275 810 l 399 992 l 610 992 z "},"ŷ":{"ha":747,"x_min":7,"x_max":740,"o":"m 214 718 q 300 457 260 574 q 338 345 313 421 q 381 210 363 269 l 383 210 q 417 331 397 264 q 451 442 436 397 q 472 513 465 488 q 535 718 499 594 l 740 718 l 588 288 q 432 -143 540 160 q 362 -244 407 -210 q 246 -278 317 -278 l 97 -278 l 97 -129 l 174 -129 q 231 -115 210 -129 q 261 -65 251 -101 l 278 -12 q 143 349 232 115 q 7 718 50 596 l 214 718 m 293 992 l 453 992 l 610 814 l 450 814 l 374 906 l 296 814 l 138 814 l 293 992 z "},"ÿ":{"ha":747,"x_min":7,"x_max":740,"o":"m 214 718 q 300 457 260 574 q 338 345 313 421 q 381 210 363 269 l 383 210 q 417 331 397 264 q 451 442 436 397 q 472 513 465 488 q 535 718 499 594 l 740 718 l 588 288 q 432 -143 540 160 q 362 -244 407 -210 q 246 -278 317 -278 l 97 -278 l 97 -129 l 174 -129 q 231 -115 210 -129 q 261 -65 251 -101 l 278 -12 q 143 349 232 115 q 7 718 50 596 l 214 718 m 322 992 l 322 829 l 161 829 l 161 992 l 322 992 m 424 992 l 586 992 l 586 829 l 424 829 l 424 992 z "},"ỳ":{"ha":747,"x_min":7,"x_max":740,"o":"m 214 718 q 300 457 260 574 q 338 345 313 421 q 381 210 363 269 l 383 210 q 417 331 397 264 q 451 442 436 397 q 472 513 465 488 q 535 718 499 594 l 740 718 l 588 288 q 432 -143 540 160 q 362 -244 407 -210 q 246 -278 317 -278 l 97 -278 l 97 -129 l 174 -129 q 231 -115 210 -129 q 261 -65 251 -101 l 278 -12 q 143 349 232 115 q 7 718 50 596 l 214 718 m 476 810 l 332 810 l 142 992 l 353 992 l 476 810 z "},"z":{"ha":710,"x_min":44,"x_max":664,"o":"m 413 571 q 363 569 394 569 l 260 571 l 61 571 l 61 718 l 646 718 l 646 578 l 276 147 q 351 149 326 147 l 439 150 l 664 150 l 664 0 l 44 0 l 44 143 l 413 571 z "},"ź":{"ha":710,"x_min":44,"x_max":664,"o":"m 413 571 q 363 569 394 569 l 260 571 l 61 571 l 61 718 l 646 718 l 646 578 l 276 147 q 351 149 326 147 l 439 150 l 664 150 l 664 0 l 44 0 l 44 143 l 413 571 m 586 992 l 396 810 l 251 810 l 375 992 l 586 992 z "},"ž":{"ha":710,"x_min":44,"x_max":664,"o":"m 413 571 q 363 569 394 569 l 260 571 l 61 571 l 61 718 l 646 718 l 646 578 l 276 147 q 351 149 326 147 l 439 150 l 664 150 l 664 0 l 44 0 l 44 143 l 413 571 m 272 992 l 350 900 l 426 992 l 586 992 l 429 814 l 269 814 l 114 992 l 272 992 z "},"ż":{"ha":710,"x_min":44,"x_max":664,"o":"m 413 571 q 363 569 394 569 l 260 571 l 61 571 l 61 718 l 646 718 l 646 578 l 276 147 q 351 149 326 147 l 439 150 l 664 150 l 664 0 l 44 0 l 44 143 l 413 571 m 272 829 l 272 992 l 425 992 l 425 829 l 272 829 z "},"ﬁ":{"ha":831,"x_min":19,"x_max":747,"o":"m 121 740 q 142 877 121 822 q 213 962 163 932 q 353 992 264 992 l 439 992 l 439 846 l 407 846 q 350 836 369 846 q 323 803 331 826 q 315 733 315 779 l 315 718 l 439 718 l 439 571 l 315 571 l 315 0 l 121 0 l 121 571 l 19 571 l 19 718 l 121 718 l 121 740 m 544 815 l 544 992 l 747 992 l 747 815 l 544 815 m 543 718 l 740 718 l 740 0 l 543 0 l 543 718 z "},"ﬂ":{"ha":824,"x_min":19,"x_max":740,"o":"m 121 740 q 142 877 121 822 q 213 962 163 932 q 353 992 264 992 l 439 992 l 439 846 l 407 846 q 350 836 369 846 q 323 803 331 826 q 315 733 315 779 l 315 718 l 439 718 l 439 571 l 315 571 l 315 0 l 121 0 l 121 571 l 19 571 l 19 718 l 121 718 l 121 740 m 740 992 l 740 0 l 543 0 l 543 992 l 740 992 z "},"ª":{"ha":567,"x_min":50,"x_max":515,"o":"m 226 451 q 136 470 176 451 q 73 524 96 489 q 50 604 50 558 q 88 701 50 667 q 168 746 126 735 q 275 768 210 757 q 330 780 313 775 q 358 794 347 785 q 368 821 368 804 q 346 863 368 849 q 289 876 324 876 q 229 858 254 876 q 199 804 204 840 l 69 804 q 102 888 75 847 q 177 955 129 929 q 289 981 225 981 q 449 929 389 981 q 508 763 508 878 l 508 597 q 510 525 508 564 q 515 464 511 486 l 374 464 q 371 490 371 472 q 371 514 371 508 l 369 514 q 226 451 321 451 m 193 611 q 211 572 193 588 q 265 556 229 556 q 333 583 307 556 q 365 671 358 610 q 369 724 369 694 q 335 694 357 706 q 278 675 314 682 q 213 649 232 665 q 193 611 193 633 z "},"º":{"ha":632,"x_min":47,"x_max":583,"o":"m 315 449 q 182 481 243 449 q 84 573 121 513 q 47 715 47 633 q 84 858 47 797 q 182 949 121 918 q 315 981 243 981 q 449 949 388 981 q 547 858 510 918 q 583 715 583 797 q 547 573 583 633 q 449 481 510 513 q 315 449 388 449 m 186 715 q 203 637 186 672 q 249 581 219 601 q 315 561 278 561 q 383 581 354 561 q 428 637 413 601 q 444 715 444 672 q 428 793 444 758 q 383 848 413 828 q 315 868 353 868 q 249 848 278 868 q 203 793 219 828 q 186 715 186 758 z "},"А":{"ha":996,"x_min":14,"x_max":982,"o":"m 14 0 l 371 992 l 628 992 l 982 0 l 767 0 l 682 249 l 313 249 l 226 0 l 14 0 m 626 411 l 499 804 l 494 804 l 367 411 l 626 411 z "},"Б":{"ha":861,"x_min":99,"x_max":821,"o":"m 747 992 l 747 818 l 303 818 l 303 608 l 467 608 q 650 570 569 608 q 776 463 731 532 q 821 308 821 394 q 778 147 821 218 q 656 38 736 76 q 467 -1 576 -1 l 99 0 l 99 992 l 747 992 m 443 169 q 569 203 519 169 q 618 310 618 238 q 568 415 618 381 q 442 449 518 449 l 303 449 l 303 169 l 443 169 z "},"В":{"ha":886,"x_min":99,"x_max":832,"o":"m 99 992 l 447 992 q 705 926 611 992 q 799 731 799 861 q 757 592 799 646 q 631 508 715 538 l 631 506 q 776 433 719 486 q 832 283 832 381 q 731 66 832 132 q 440 0 629 0 l 99 0 l 99 992 m 418 167 q 533 178 488 167 q 604 217 579 189 q 629 297 629 246 q 583 394 629 367 q 449 422 536 422 l 303 422 l 303 167 l 418 167 m 414 583 q 553 611 508 583 q 597 710 597 639 q 578 782 597 757 q 522 817 558 807 q 428 826 485 826 l 303 826 l 303 583 l 414 583 z "},"Г":{"ha":747,"x_min":99,"x_max":728,"o":"m 99 992 l 728 992 l 728 818 l 303 818 l 303 0 l 99 0 l 99 992 z "},"Ѓ":{"ha":747,"x_min":99,"x_max":728,"o":"m 99 992 l 728 992 l 728 818 l 303 818 l 303 0 l 99 0 l 99 992 m 672 1222 l 483 1064 l 300 1064 l 453 1222 l 672 1222 z "},"Ґ":{"ha":747,"x_min":99,"x_max":728,"o":"m 303 0 l 99 0 l 99 992 l 535 992 l 535 1214 l 728 1214 l 728 818 l 303 818 l 303 0 z "},"Ғ":{"ha":747,"x_min":7,"x_max":728,"o":"m 7 536 l 99 536 l 99 992 l 728 992 l 728 818 l 303 818 l 303 536 l 483 536 l 483 406 l 303 406 l 303 0 l 99 0 l 99 406 l 7 406 l 7 536 z "},"Д":{"ha":1058,"x_min":19,"x_max":1031,"o":"m 913 172 l 1031 172 l 1031 -250 l 838 -250 l 838 0 l 213 0 l 213 -250 l 19 -250 l 19 172 l 129 172 q 219 421 182 260 q 255 653 243 518 q 276 992 267 788 l 913 992 l 913 172 m 708 172 l 708 818 l 444 818 q 424 565 433 661 q 399 400 414 469 q 385 340 396 389 q 359 247 374 290 q 329 172 344 203 l 708 172 z "},"Е":{"ha":826,"x_min":99,"x_max":756,"o":"m 751 818 l 303 818 l 303 585 l 722 585 l 722 415 l 303 415 l 303 174 l 756 174 l 756 0 l 99 0 l 99 992 l 751 992 l 751 818 z "},"Ѐ":{"ha":826,"x_min":99,"x_max":756,"o":"m 751 818 l 303 818 l 303 585 l 722 585 l 722 415 l 303 415 l 303 174 l 756 174 l 756 0 l 99 0 l 99 992 l 751 992 l 751 818 m 561 1064 l 378 1064 l 189 1222 l 408 1222 l 561 1064 z "},"Ё":{"ha":826,"x_min":99,"x_max":756,"o":"m 751 818 l 303 818 l 303 585 l 722 585 l 722 415 l 303 415 l 303 174 l 756 174 l 756 0 l 99 0 l 99 992 l 751 992 l 751 818 m 393 1222 l 393 1064 l 240 1064 l 240 1222 l 393 1222 m 496 1222 l 646 1222 l 646 1064 l 496 1064 l 496 1222 z "},"Ж":{"ha":1356,"x_min":10,"x_max":1346,"o":"m 861 414 l 781 414 l 781 0 l 576 0 l 576 414 l 494 414 l 243 0 l 10 0 l 333 518 l 19 992 l 258 992 l 508 588 l 576 588 l 576 992 l 781 992 l 781 588 l 847 588 l 1097 992 l 1336 992 l 1022 518 l 1346 0 l 1114 0 l 861 414 z "},"З":{"ha":901,"x_min":46,"x_max":856,"o":"m 75 708 q 183 926 90 846 q 447 1006 276 1006 q 641 974 558 1006 q 769 883 724 943 q 814 738 814 822 q 658 522 814 592 q 805 428 754 494 q 856 278 856 361 q 814 124 856 192 q 683 17 772 57 q 454 -22 593 -22 q 163 57 267 -22 q 46 288 58 136 l 244 288 q 313 184 256 217 q 453 151 371 151 q 596 189 540 151 q 651 303 651 226 q 605 399 651 371 q 479 428 558 428 l 326 428 l 326 594 l 464 594 q 569 626 529 594 q 610 717 610 657 q 570 803 610 775 q 456 832 531 832 q 276 708 300 832 l 75 708 z "},"И":{"ha":1047,"x_min":99,"x_max":947,"o":"m 947 0 l 749 0 l 749 457 q 753 739 749 621 l 713 661 q 674 588 701 639 q 625 490 647 536 l 358 0 l 99 0 l 99 992 l 297 992 l 297 535 q 293 253 297 332 l 342 346 q 422 501 389 435 l 688 992 l 947 992 l 947 0 z "},"Й":{"ha":1047,"x_min":99,"x_max":947,"o":"m 947 0 l 749 0 l 749 457 q 753 739 749 621 l 713 661 q 674 588 701 639 q 625 490 647 536 l 358 0 l 99 0 l 99 992 l 297 992 l 297 535 q 293 253 297 332 l 342 346 q 422 501 389 435 l 688 992 l 947 992 l 947 0 m 433 1232 q 459 1174 435 1196 q 525 1153 483 1153 q 590 1174 565 1153 q 615 1232 614 1196 l 753 1232 q 685 1100 746 1149 q 525 1051 625 1051 q 362 1099 422 1051 q 294 1232 301 1147 l 433 1232 z "},"Ѝ":{"ha":1047,"x_min":99,"x_max":947,"o":"m 947 0 l 749 0 l 749 457 q 753 739 749 621 l 713 661 q 674 588 701 639 q 625 490 647 536 l 358 0 l 99 0 l 99 992 l 297 992 l 297 535 q 293 253 297 332 l 342 346 q 422 501 389 435 l 688 992 l 947 992 l 947 0 m 642 1064 l 458 1064 l 269 1222 l 489 1222 l 642 1064 z "},"К":{"ha":944,"x_min":99,"x_max":933,"o":"m 415 414 l 303 414 l 303 0 l 99 0 l 99 992 l 303 992 l 303 588 l 403 588 l 683 992 l 924 992 l 575 518 l 933 0 l 699 0 l 415 414 z "},"Ќ":{"ha":944,"x_min":99,"x_max":933,"o":"m 415 414 l 303 414 l 303 0 l 99 0 l 99 992 l 303 992 l 303 588 l 403 588 l 683 992 l 924 992 l 575 518 l 933 0 l 699 0 l 415 414 m 714 1222 l 525 1064 l 342 1064 l 494 1222 l 714 1222 z "},"Л":{"ha":1013,"x_min":21,"x_max":914,"o":"m 21 168 l 43 168 q 106 188 79 168 q 167 274 143 215 q 203 403 190 332 q 227 601 219 492 q 244 919 235 710 q 247 992 244 942 l 914 992 l 914 0 l 710 0 l 710 818 l 436 818 q 420 592 429 699 q 400 404 411 485 q 371 253 389 324 q 319 131 353 185 q 240 46 286 78 q 159 8 203 21 q 72 -6 115 -6 l 21 -6 l 21 168 z "},"М":{"ha":1258,"x_min":99,"x_max":1160,"o":"m 99 992 l 399 992 l 633 246 l 635 246 l 863 992 l 1160 992 l 1160 0 l 969 0 l 969 740 l 964 740 l 731 0 l 529 0 l 294 740 l 290 740 l 290 0 l 99 0 l 99 992 z "},"Н":{"ha":1004,"x_min":99,"x_max":906,"o":"m 906 992 l 906 0 l 701 0 l 701 411 l 303 411 l 303 0 l 99 0 l 99 992 l 303 992 l 303 583 l 701 583 l 701 992 l 906 992 z "},"О":{"ha":1136,"x_min":46,"x_max":1089,"o":"m 568 1015 q 847 944 728 1015 q 1027 755 965 874 q 1089 496 1089 636 q 1027 237 1089 356 q 847 47 965 118 q 568 -24 728 -24 q 290 47 408 -24 q 108 237 171 118 q 46 496 46 356 q 108 755 46 636 q 290 944 171 874 q 568 1015 408 1015 m 250 496 q 288 321 250 400 q 399 196 326 242 q 568 150 471 150 q 736 196 664 150 q 847 321 808 242 q 885 496 885 400 q 847 671 885 592 q 736 796 808 750 q 568 842 664 842 q 399 796 471 842 q 288 671 326 750 q 250 496 250 592 z "},"П":{"ha":1008,"x_min":99,"x_max":908,"o":"m 908 0 l 704 0 l 704 818 l 303 818 l 303 0 l 99 0 l 99 992 l 908 992 l 908 0 z "},"Р":{"ha":881,"x_min":99,"x_max":840,"o":"m 453 519 q 587 559 536 519 q 638 675 638 599 q 588 786 638 750 q 454 822 539 822 l 303 822 l 303 519 l 453 519 m 99 992 l 468 992 q 666 951 582 992 q 795 840 750 911 q 840 679 840 768 q 791 513 840 588 q 656 394 742 438 q 467 351 571 351 l 303 351 l 303 0 l 99 0 l 99 992 z "},"С":{"ha":1053,"x_min":46,"x_max":1019,"o":"m 1018 317 q 927 138 992 213 q 766 22 863 63 q 549 -18 669 -18 q 289 46 403 -18 q 110 226 175 110 q 46 494 46 343 q 110 762 46 644 q 290 944 175 879 q 551 1010 406 1010 q 853 922 735 1010 q 1019 675 972 835 l 818 675 q 714 797 781 758 q 551 836 647 836 q 397 792 465 836 q 289 671 328 749 q 250 494 250 593 q 289 320 250 397 q 397 199 328 243 q 551 156 465 156 q 722 197 657 156 q 817 317 786 238 l 1018 317 z "},"Т":{"ha":804,"x_min":15,"x_max":789,"o":"m 15 992 l 789 992 l 789 818 l 504 818 l 504 0 l 300 0 l 300 818 l 15 818 l 15 992 z "},"У":{"ha":901,"x_min":15,"x_max":903,"o":"m 136 174 l 213 174 q 275 182 253 174 q 317 215 297 190 q 368 293 338 239 l 15 992 l 242 992 l 471 507 l 681 992 l 903 992 l 551 233 q 460 90 508 142 q 358 19 411 39 q 242 0 306 0 l 136 0 l 136 174 z "},"Ў":{"ha":901,"x_min":15,"x_max":903,"o":"m 136 174 l 213 174 q 275 182 253 174 q 317 215 297 190 q 368 293 338 239 l 15 992 l 242 992 l 471 507 l 681 992 l 903 992 l 551 233 q 460 90 508 142 q 358 19 411 39 q 242 0 306 0 l 136 0 l 136 174 m 336 1232 q 362 1174 338 1196 q 428 1153 386 1153 q 492 1174 468 1153 q 518 1232 517 1196 l 656 1232 q 588 1100 649 1149 q 428 1051 528 1051 q 265 1099 325 1051 q 197 1232 204 1147 l 336 1232 z "},"Ф":{"ha":1215,"x_min":33,"x_max":1182,"o":"m 506 103 q 269 156 376 107 q 97 297 161 206 q 33 517 33 389 q 97 736 33 644 q 269 877 161 828 q 506 931 376 926 l 506 1033 l 710 1033 l 710 931 q 947 877 839 926 q 1118 736 1054 828 q 1182 517 1182 644 q 1118 297 1182 389 q 947 156 1054 206 q 710 103 839 107 l 710 0 l 506 0 l 506 103 m 238 517 q 270 394 238 449 q 363 306 303 339 q 506 269 424 274 l 506 764 q 363 727 424 760 q 270 640 303 694 q 238 517 238 585 m 710 269 q 852 306 792 274 q 945 394 913 339 q 978 517 978 449 q 945 640 978 585 q 852 727 913 694 q 710 764 792 760 l 710 269 z "},"Х":{"ha":946,"x_min":8,"x_max":938,"o":"m 351 501 l 11 992 l 250 992 l 472 657 l 697 992 l 933 990 l 592 500 l 938 0 l 693 0 l 472 340 l 249 0 l 8 0 l 351 501 z "},"Ч":{"ha":953,"x_min":63,"x_max":853,"o":"m 415 338 q 215 382 294 338 q 99 501 136 426 q 63 671 63 576 l 63 992 l 267 992 l 267 714 q 322 563 267 614 q 481 511 376 511 q 649 536 558 511 l 649 992 l 853 992 l 853 0 l 649 0 l 649 368 q 530 346 586 354 q 415 338 474 338 z "},"Ц":{"ha":1054,"x_min":100,"x_max":1028,"o":"m 100 992 l 304 992 l 304 174 l 706 174 l 706 992 l 910 992 l 910 174 l 1028 174 l 1028 -250 l 835 -250 l 835 0 l 100 0 l 100 992 z "},"Ш":{"ha":1424,"x_min":99,"x_max":1324,"o":"m 99 992 l 303 992 l 303 174 l 610 174 l 610 992 l 814 992 l 814 174 l 1119 174 l 1119 992 l 1324 992 l 1324 0 l 99 0 l 99 992 z "},"Щ":{"ha":1469,"x_min":99,"x_max":1443,"o":"m 99 992 l 303 992 l 303 174 l 610 174 l 610 992 l 814 992 l 814 174 l 1119 174 l 1119 992 l 1324 992 l 1324 174 l 1443 174 l 1443 -250 l 1250 -250 l 1250 0 l 99 0 l 99 992 z "},"Џ":{"ha":1008,"x_min":100,"x_max":910,"o":"m 407 0 l 100 0 l 100 992 l 304 992 l 304 174 l 706 174 l 706 992 l 910 992 l 910 0 l 600 0 l 600 -222 l 407 -222 l 407 0 z "},"Ь":{"ha":864,"x_min":99,"x_max":840,"o":"m 99 992 l 303 992 l 303 640 l 468 640 q 666 600 582 640 q 795 488 750 560 q 840 328 840 417 q 791 161 840 236 q 656 43 742 86 q 467 0 571 0 l 99 0 l 99 992 m 453 169 q 587 208 536 169 q 638 324 638 247 q 588 435 638 399 q 454 472 538 472 l 303 472 l 303 169 l 453 169 z "},"Ы":{"ha":1218,"x_min":99,"x_max":1119,"o":"m 1119 992 l 1119 0 l 915 0 l 915 992 l 1119 992 m 99 992 l 303 992 l 303 640 l 446 640 q 645 600 561 640 q 774 488 729 560 q 819 328 819 417 q 770 161 819 236 q 635 43 721 86 q 444 0 549 0 l 99 0 l 99 992 m 431 169 q 565 208 514 169 q 617 324 617 247 q 567 435 617 399 q 432 472 517 472 l 303 472 l 303 169 l 431 169 z "},"Ъ":{"ha":1021,"x_min":15,"x_max":999,"o":"m 15 992 l 482 992 l 482 640 l 625 640 q 824 600 740 640 q 953 488 908 560 q 999 328 999 417 q 949 161 999 236 q 814 43 900 86 q 624 0 728 0 l 278 0 l 278 818 l 15 818 l 15 992 m 610 169 q 744 208 693 169 q 794 324 794 247 q 744 435 794 399 q 611 472 694 472 l 482 472 l 482 169 l 610 169 z "},"Љ":{"ha":1425,"x_min":21,"x_max":1401,"o":"m 1014 169 q 1148 208 1097 169 q 1199 324 1199 247 q 1149 435 1199 399 q 1015 472 1099 472 l 886 472 l 886 169 l 1014 169 m 21 168 l 43 168 q 106 188 79 168 q 169 268 147 218 q 203 403 192 318 q 228 650 218 510 q 247 992 239 790 l 886 992 l 886 640 l 1029 640 q 1227 600 1143 640 q 1356 488 1311 560 q 1401 328 1401 417 q 1352 161 1401 236 q 1217 43 1303 86 q 1028 0 1132 0 l 682 0 l 682 818 l 436 818 q 408 473 421 590 q 368 253 396 356 q 318 131 351 185 q 238 46 285 78 q 158 8 201 21 q 72 -6 115 -6 l 21 -6 l 21 168 z "},"Њ":{"ha":1410,"x_min":99,"x_max":1388,"o":"m 99 0 l 99 992 l 303 992 l 303 613 l 674 613 l 674 992 l 878 992 l 878 613 l 1033 613 q 1217 572 1136 613 q 1342 463 1297 532 q 1388 314 1388 394 q 1347 153 1388 224 q 1228 41 1307 82 q 1035 0 1149 0 l 674 0 l 674 439 l 303 439 l 303 0 l 99 0 m 1021 169 q 1142 204 1101 169 q 1183 313 1183 239 q 1141 406 1183 374 q 1019 439 1099 439 l 878 439 l 878 169 l 1021 169 z "},"Ѕ":{"ha":875,"x_min":46,"x_max":825,"o":"m 256 324 q 286 228 260 268 q 357 167 313 188 q 457 146 401 146 q 581 178 538 146 q 624 272 624 210 q 599 344 624 317 q 535 388 575 372 q 415 429 496 404 q 245 492 313 460 q 133 585 178 525 q 89 740 89 646 q 140 891 89 829 q 273 984 190 953 q 450 1015 356 1015 q 706 938 607 1015 q 819 697 804 861 l 615 697 q 560 811 601 775 q 444 847 519 847 q 333 818 375 847 q 290 731 290 789 q 313 667 290 693 q 379 621 336 640 q 492 581 422 601 q 670 517 604 547 q 781 428 736 488 q 825 271 825 369 q 774 108 825 174 q 638 9 722 42 q 457 -24 554 -24 q 257 15 346 -24 q 113 131 168 53 q 46 324 57 208 l 256 324 z "},"Є":{"ha":1083,"x_min":46,"x_max":1019,"o":"m 1018 317 q 927 138 992 213 q 766 22 863 63 q 549 -18 669 -18 q 289 46 403 -18 q 110 226 175 110 q 46 494 46 343 q 110 762 46 644 q 290 944 175 879 q 551 1010 406 1010 q 853 922 735 1010 q 1019 675 972 835 l 818 675 q 714 797 781 758 q 551 836 647 836 q 418 805 479 836 q 316 717 357 774 q 260 585 275 660 l 690 585 l 690 415 l 257 415 q 314 280 272 339 q 417 188 356 221 q 551 156 478 156 q 722 197 657 156 q 817 317 786 238 l 1018 317 z "},"Э":{"ha":1083,"x_min":64,"x_max":1038,"o":"m 267 317 q 362 197 297 238 q 532 156 426 156 q 667 188 606 156 q 769 280 728 221 q 826 415 811 339 l 393 415 l 393 585 l 824 585 q 767 717 808 660 q 665 805 726 774 q 532 836 604 836 q 369 797 436 836 q 265 675 303 758 l 64 675 q 230 922 111 835 q 532 1010 349 1010 q 793 944 678 1010 q 973 762 908 879 q 1038 494 1038 644 q 973 226 1038 343 q 794 46 908 110 q 535 -18 681 -18 q 317 22 414 -18 q 156 138 221 63 q 65 317 92 213 l 267 317 z "},"І":{"ha":401,"x_min":99,"x_max":303,"o":"m 303 992 l 303 0 l 99 0 l 99 992 l 303 992 z "},"Ї":{"ha":401,"x_min":-1,"x_max":404,"o":"m 303 992 l 303 0 l 99 0 l 99 992 l 303 992 m 151 1222 l 151 1064 l -1 1064 l -1 1222 l 151 1222 m 254 1222 l 404 1222 l 404 1064 l 254 1064 l 254 1222 z "},"Ј":{"ha":769,"x_min":39,"x_max":676,"o":"m 238 293 q 360 147 243 147 q 450 188 428 147 q 472 294 472 229 l 472 992 l 676 992 l 676 314 q 599 63 676 146 q 360 -19 521 -19 q 191 15 264 -19 q 78 115 118 50 q 39 271 39 181 l 39 350 l 236 350 l 238 293 z "},"Ћ":{"ha":1108,"x_min":13,"x_max":1046,"o":"m 693 624 q 893 579 814 624 q 1009 460 972 535 q 1046 290 1046 385 l 1046 0 l 842 0 l 842 249 q 786 399 842 347 q 628 451 731 451 q 460 426 550 451 l 460 0 l 256 0 l 256 818 l 13 818 l 13 992 l 786 992 l 786 818 l 460 818 l 460 593 q 693 624 590 624 z "},"Ю":{"ha":1447,"x_min":99,"x_max":1401,"o":"m 99 0 l 99 992 l 303 992 l 303 588 l 424 588 q 504 804 442 708 q 671 956 567 900 q 910 1013 775 1013 q 1174 942 1063 1013 q 1343 754 1285 872 q 1401 496 1401 636 q 1343 238 1401 356 q 1174 49 1285 119 q 910 -21 1063 -21 q 668 37 772 -21 q 501 193 564 94 q 422 414 439 292 l 303 414 l 303 0 l 99 0 m 621 496 q 656 322 621 400 q 756 197 690 243 q 910 151 821 151 q 1063 197 999 151 q 1163 322 1128 243 q 1197 496 1197 400 q 1163 670 1197 592 q 1063 794 1128 749 q 910 839 999 839 q 756 794 821 839 q 656 670 690 749 q 621 496 621 592 z "},"Я":{"ha":940,"x_min":40,"x_max":842,"o":"m 638 1 l 638 374 l 532 374 q 434 356 472 374 q 372 307 396 339 q 332 225 349 275 l 307 151 q 278 67 293 108 q 247 0 263 26 l 40 0 l 40 7 q 74 83 60 42 q 108 190 89 125 q 116 215 113 203 q 124 239 119 228 q 160 337 142 297 q 208 404 179 376 q 281 446 238 432 q 183 495 226 461 q 113 584 139 529 q 88 710 88 639 q 131 858 88 794 q 257 957 175 922 q 451 992 339 992 l 842 992 l 842 1 l 638 1 m 288 685 q 334 578 288 618 q 463 538 381 538 l 638 538 l 638 828 l 465 828 q 334 789 381 828 q 288 685 288 750 z "},"Ђ":{"ha":1079,"x_min":13,"x_max":1044,"o":"m 693 624 q 894 580 815 624 q 1008 464 972 536 q 1044 301 1044 392 q 1005 138 1044 208 q 893 30 965 68 q 725 -8 821 -8 q 656 -4 696 -8 q 576 6 615 0 l 582 176 q 628 168 606 171 q 683 165 651 165 q 801 205 763 165 q 840 307 840 244 q 792 413 840 374 q 646 451 743 451 q 547 445 590 451 q 460 426 503 439 l 460 0 l 256 0 l 256 818 l 13 818 l 13 992 l 786 992 l 786 818 l 460 818 l 460 593 q 693 624 590 624 z "},"Җ":{"ha":1404,"x_min":10,"x_max":1388,"o":"m 861 414 l 781 414 l 781 0 l 576 0 l 576 414 l 494 414 l 243 0 l 10 0 l 333 518 l 19 992 l 258 992 l 508 588 l 576 588 l 576 992 l 781 992 l 781 588 l 847 588 l 1097 992 l 1336 992 l 1022 518 l 1238 174 l 1388 174 l 1388 -250 l 1196 -250 l 1196 0 l 1114 0 l 861 414 z "},"Қ":{"ha":990,"x_min":99,"x_max":972,"o":"m 415 414 l 303 414 l 303 0 l 99 0 l 99 992 l 303 992 l 303 588 l 403 588 l 683 992 l 924 992 l 575 518 l 813 174 l 972 174 l 972 -250 l 781 -250 l 781 0 l 699 0 l 415 414 z "},"Ҝ":{"ha":944,"x_min":99,"x_max":933,"o":"m 438 414 l 397 414 l 397 250 l 347 250 l 347 414 l 303 414 l 303 0 l 99 0 l 99 992 l 303 992 l 303 588 l 347 588 l 347 743 l 397 743 l 397 588 l 425 588 l 683 992 l 924 992 l 601 517 l 933 0 l 699 0 l 438 414 z "},"Ң":{"ha":1050,"x_min":99,"x_max":1024,"o":"m 906 992 l 906 174 l 1024 174 l 1024 -250 l 831 -250 l 831 0 l 701 0 l 701 411 l 303 411 l 303 0 l 99 0 l 99 992 l 303 992 l 303 583 l 701 583 l 701 992 l 906 992 z "},"Ү":{"ha":893,"x_min":15,"x_max":879,"o":"m 315 850 q 451 572 375 731 q 586 849 492 651 q 654 992 607 894 l 879 992 l 547 379 l 547 0 l 343 0 l 343 379 l 15 992 l 246 992 l 315 850 z "},"Ҳ":{"ha":989,"x_min":8,"x_max":971,"o":"m 351 501 l 11 992 l 250 992 l 472 657 l 697 992 l 933 990 l 592 500 l 818 174 l 971 174 l 971 -250 l 779 -250 l 779 0 l 693 0 l 472 340 l 249 0 l 8 0 l 351 501 z "},"Ҹ":{"ha":953,"x_min":63,"x_max":853,"o":"m 429 338 l 415 338 q 215 382 294 338 q 99 501 136 426 q 63 671 63 576 l 63 992 l 267 992 l 267 714 q 308 577 267 628 q 429 515 350 526 l 429 678 l 479 678 l 479 511 l 481 511 q 649 536 558 511 l 649 992 l 853 992 l 853 0 l 649 0 l 649 368 q 479 340 550 346 l 479 183 l 429 183 l 429 338 z "},"Һ":{"ha":953,"x_min":100,"x_max":890,"o":"m 538 654 q 738 610 658 654 q 853 490 817 565 q 890 321 890 415 l 890 0 l 686 0 l 686 278 q 631 429 686 378 q 472 481 576 481 q 304 456 394 481 l 304 0 l 100 0 l 100 992 l 304 992 l 304 624 q 423 646 367 638 q 538 654 479 654 z "},"Ӏ":{"ha":401,"x_min":99,"x_max":303,"o":"m 303 992 l 303 0 l 99 0 l 99 992 l 303 992 z "},"Ә":{"ha":1085,"x_min":46,"x_max":1039,"o":"m 536 -21 q 275 49 386 -21 q 105 238 164 119 q 46 496 46 356 q 51 574 46 521 l 828 574 q 776 705 815 646 q 674 799 736 764 q 535 835 611 835 q 285 711 365 835 l 72 711 q 244 932 128 857 q 535 1007 361 1007 q 790 945 675 1007 q 972 768 904 883 q 1039 499 1039 653 q 978 236 1039 354 q 803 49 917 118 q 536 -21 689 -21 m 249 413 q 301 279 263 339 q 400 185 340 219 q 536 151 460 151 q 674 185 614 151 q 773 278 735 219 q 825 413 811 338 l 249 413 z "},"Ө":{"ha":1136,"x_min":46,"x_max":1089,"o":"m 568 1015 q 847 944 728 1015 q 1027 755 965 874 q 1089 496 1089 636 q 1027 237 1089 356 q 847 47 965 118 q 568 -24 728 -24 q 290 47 408 -24 q 108 237 171 118 q 46 496 46 356 q 108 755 46 636 q 290 944 171 874 q 568 1015 408 1015 m 257 419 q 312 281 271 342 q 419 185 353 219 q 568 150 485 150 q 715 185 650 150 q 822 281 781 219 q 878 419 864 342 l 257 419 m 876 581 q 819 716 861 657 q 713 808 778 775 q 568 842 649 842 q 421 808 486 842 q 315 716 356 775 q 258 581 274 657 l 876 581 z "},"а":{"ha":776,"x_min":43,"x_max":718,"o":"m 75 497 q 126 617 86 561 q 232 707 165 672 q 389 742 299 742 q 624 660 544 742 q 704 429 704 579 l 704 185 q 718 0 704 61 l 524 0 q 517 64 517 35 l 517 103 l 515 103 q 296 -19 449 -19 q 163 8 221 -19 q 74 84 106 35 q 43 196 43 133 q 99 333 43 285 q 219 399 154 382 q 371 429 285 417 q 453 444 425 436 q 497 467 482 451 q 513 514 513 483 q 479 576 513 554 q 390 599 446 599 q 306 572 340 599 q 257 497 271 544 l 75 497 m 239 207 q 268 145 239 169 q 353 121 297 121 q 470 170 425 121 q 515 333 515 219 l 515 383 q 467 337 501 357 q 368 303 433 317 q 269 266 300 289 q 239 207 239 243 z "},"б":{"ha":813,"x_min":49,"x_max":775,"o":"m 417 -22 q 213 34 300 -22 q 85 192 125 90 q 49 418 49 281 q 84 683 49 569 q 214 867 119 797 q 409 951 288 922 q 724 992 531 979 l 724 826 q 469 791 565 811 q 321 731 372 771 q 265 661 283 701 q 243 567 246 621 q 339 638 282 614 q 464 663 396 663 q 626 621 556 663 q 736 503 697 579 q 775 328 775 426 q 729 147 775 226 q 602 23 683 68 q 417 -22 521 -22 m 239 321 q 260 222 239 265 q 322 156 282 179 q 413 132 361 132 q 503 156 464 132 q 563 222 542 179 q 585 321 585 265 q 564 419 585 376 q 504 486 543 463 q 414 510 465 510 q 324 485 364 510 q 261 418 283 461 q 239 321 239 375 z "},"в":{"ha":760,"x_min":82,"x_max":718,"o":"m 82 718 l 408 718 q 613 673 543 718 q 682 542 682 628 q 656 442 682 485 q 578 374 629 400 q 682 308 646 353 q 718 200 718 264 q 647 51 718 103 q 440 0 576 0 l 82 0 l 82 718 m 415 119 q 498 143 468 119 q 528 210 528 167 q 498 276 528 253 q 415 300 468 300 l 279 300 l 279 119 l 415 119 m 381 419 q 463 443 433 419 q 493 510 493 467 q 463 575 493 551 q 381 599 433 599 l 279 599 l 279 419 l 381 419 z "},"г":{"ha":629,"x_min":82,"x_max":622,"o":"m 622 569 l 279 569 l 279 0 l 82 0 l 82 718 l 622 718 l 622 569 z "},"ѓ":{"ha":629,"x_min":82,"x_max":622,"o":"m 622 569 l 279 569 l 279 0 l 82 0 l 82 718 l 622 718 l 622 569 m 590 992 l 400 810 l 256 810 l 379 992 l 590 992 z "},"ґ":{"ha":629,"x_min":82,"x_max":622,"o":"m 279 0 l 82 0 l 82 718 l 440 718 l 440 933 l 622 933 l 622 569 l 279 569 l 279 0 z "},"ғ":{"ha":631,"x_min":14,"x_max":622,"o":"m 279 279 l 279 0 l 82 0 l 82 279 l 14 279 l 14 390 l 82 390 l 82 718 l 622 718 l 622 569 l 279 569 l 279 390 l 453 390 l 453 279 l 279 279 z "},"д":{"ha":913,"x_min":24,"x_max":889,"o":"m 786 149 l 889 149 l 889 -222 l 707 -222 l 707 0 l 206 0 l 206 -222 l 24 -222 l 24 149 l 56 149 q 103 158 82 149 q 138 182 124 167 q 179 254 164 208 q 201 369 194 300 q 212 508 207 417 q 221 718 217 599 l 786 718 l 786 149 m 589 149 l 589 569 l 397 569 q 394 517 394 533 l 386 408 q 373 303 379 343 q 351 225 367 263 q 315 149 339 188 l 589 149 z "},"е":{"ha":814,"x_min":38,"x_max":771,"o":"m 760 211 q 689 88 738 140 q 569 6 640 35 q 410 -24 497 -24 q 217 24 301 -24 q 85 160 132 72 q 38 360 38 247 q 86 555 38 468 q 220 691 135 642 q 413 740 306 740 q 608 688 528 740 q 729 547 689 636 q 771 343 769 457 q 769 304 771 319 l 225 304 q 258 214 232 253 q 322 154 283 175 q 410 133 361 133 q 503 153 463 133 q 563 211 543 172 l 760 211 m 582 431 q 531 546 574 499 q 410 593 488 593 q 288 549 336 593 q 226 431 239 504 l 582 431 z "},"ѐ":{"ha":814,"x_min":38,"x_max":771,"o":"m 760 211 q 689 88 738 140 q 569 6 640 35 q 410 -24 497 -24 q 217 24 301 -24 q 85 160 132 72 q 38 360 38 247 q 86 555 38 468 q 220 691 135 642 q 413 740 306 740 q 608 688 528 740 q 729 547 689 636 q 771 343 769 457 q 769 304 771 319 l 225 304 q 258 214 232 253 q 322 154 283 175 q 410 133 361 133 q 503 153 463 133 q 563 211 543 172 l 760 211 m 582 431 q 531 546 574 499 q 410 593 488 593 q 288 549 336 593 q 226 431 239 504 l 582 431 m 514 810 l 369 810 l 179 992 l 390 992 l 514 810 z "},"ё":{"ha":814,"x_min":38,"x_max":771,"o":"m 760 211 q 689 88 738 140 q 569 6 640 35 q 410 -24 497 -24 q 217 24 301 -24 q 85 160 132 72 q 38 360 38 247 q 86 555 38 468 q 220 691 135 642 q 413 740 306 740 q 608 688 528 740 q 729 547 689 636 q 771 343 769 457 q 769 304 771 319 l 225 304 q 258 214 232 253 q 322 154 283 175 q 410 133 361 133 q 503 153 463 133 q 563 211 543 172 l 760 211 m 582 431 q 531 546 574 499 q 410 593 488 593 q 288 549 336 593 q 226 431 239 504 l 582 431 m 360 992 l 360 829 l 199 829 l 199 992 l 360 992 m 461 992 l 624 992 l 624 829 l 461 829 l 461 992 z "},"ж":{"ha":1131,"x_min":15,"x_max":1115,"o":"m 261 374 l 21 718 l 240 718 l 418 439 l 467 439 l 467 718 l 664 718 l 664 439 l 713 439 l 890 718 l 1110 718 l 869 374 l 1115 0 l 896 0 l 718 289 l 664 289 l 664 0 l 467 0 l 467 289 l 413 289 l 235 0 l 15 0 l 261 374 z "},"з":{"ha":715,"x_min":38,"x_max":672,"o":"m 354 -22 q 134 38 211 -22 q 38 211 57 97 l 208 211 q 251 144 217 168 q 350 119 286 119 q 449 145 414 119 q 483 214 483 171 q 452 278 483 257 q 367 299 421 299 l 250 299 l 250 426 l 356 426 q 428 450 400 426 q 456 515 456 474 q 428 576 456 556 q 350 597 400 597 q 231 508 249 597 l 53 508 q 144 678 67 617 q 365 739 222 739 q 511 715 449 739 q 608 647 574 692 q 643 538 643 601 q 614 432 643 472 q 540 374 585 392 q 639 313 606 356 q 672 210 672 271 q 636 93 672 146 q 528 9 600 40 q 354 -22 457 -22 z "},"и":{"ha":874,"x_min":82,"x_max":792,"o":"m 82 718 l 279 718 l 279 246 l 563 718 l 792 718 l 792 0 l 594 0 l 594 472 l 311 0 l 82 0 l 82 718 z "},"й":{"ha":874,"x_min":82,"x_max":792,"o":"m 82 718 l 279 718 l 279 246 l 563 718 l 792 718 l 792 0 l 594 0 l 594 472 l 311 0 l 82 0 l 82 718 m 346 988 q 372 929 347 951 q 438 907 396 907 q 502 929 478 907 q 528 988 526 951 l 665 988 q 598 854 658 903 q 438 806 538 806 q 275 854 336 806 q 207 988 214 903 l 346 988 z "},"ѝ":{"ha":874,"x_min":82,"x_max":792,"o":"m 82 718 l 279 718 l 279 246 l 563 718 l 792 718 l 792 0 l 594 0 l 594 472 l 311 0 l 82 0 l 82 718 m 540 810 l 396 810 l 206 992 l 417 992 l 540 810 z "},"к":{"ha":778,"x_min":82,"x_max":769,"o":"m 82 0 l 82 718 l 279 718 l 279 438 l 340 438 l 539 718 l 764 718 l 503 372 l 769 0 l 543 0 l 346 289 l 279 289 l 279 0 l 82 0 z "},"ќ":{"ha":778,"x_min":82,"x_max":769,"o":"m 82 0 l 82 718 l 279 718 l 279 438 l 340 438 l 539 718 l 764 718 l 503 372 l 769 0 l 543 0 l 346 289 l 279 289 l 279 0 l 82 0 m 626 992 l 436 810 l 292 810 l 415 992 l 626 992 z "},"л":{"ha":825,"x_min":13,"x_max":743,"o":"m 743 0 l 546 0 l 546 569 l 353 569 q 343 408 349 464 q 326 269 333 319 q 301 165 319 219 q 250 75 282 110 q 158 14 213 33 q 43 -6 104 -6 l 13 -6 l 13 143 l 22 143 q 94 174 64 143 q 158 369 142 221 q 176 718 168 472 l 743 718 l 743 0 z "},"м":{"ha":1075,"x_min":82,"x_max":993,"o":"m 82 718 l 346 718 l 535 236 l 539 236 l 729 718 l 993 718 l 993 0 l 804 0 l 804 481 l 803 481 l 606 0 l 469 0 l 272 481 l 271 481 l 271 0 l 82 0 l 82 718 z "},"н":{"ha":822,"x_min":82,"x_max":740,"o":"m 279 436 l 544 436 l 544 718 l 740 718 l 740 0 l 544 0 l 544 288 l 279 288 l 279 0 l 82 0 l 82 718 l 279 718 l 279 436 z "},"о":{"ha":838,"x_min":38,"x_max":800,"o":"m 419 -22 q 228 24 315 -22 q 89 158 140 71 q 38 360 38 244 q 89 561 38 475 q 228 693 140 647 q 419 739 315 739 q 610 693 524 739 q 749 561 697 647 q 800 360 800 475 q 749 158 800 244 q 610 24 697 71 q 419 -22 524 -22 m 228 360 q 251 245 228 297 q 319 163 275 193 q 419 132 363 132 q 519 163 476 132 q 586 245 563 193 q 610 360 610 297 q 586 474 610 422 q 519 556 563 525 q 419 586 476 586 q 319 556 363 586 q 251 474 275 525 q 228 360 228 422 z "},"п":{"ha":824,"x_min":82,"x_max":740,"o":"m 740 0 l 544 0 l 544 569 l 279 569 l 279 0 l 82 0 l 82 718 l 740 718 l 740 0 z "},"р":{"ha":876,"x_min":82,"x_max":839,"o":"m 500 738 q 673 691 596 738 q 794 559 750 644 q 839 360 839 474 q 794 160 839 246 q 672 27 749 74 q 499 -19 594 -19 q 366 18 418 -19 q 290 103 314 56 l 289 103 l 289 -278 l 82 -278 l 82 718 l 285 718 l 285 607 l 286 607 q 327 667 299 638 q 399 717 356 697 q 500 738 443 738 m 268 360 q 290 247 268 299 q 353 164 311 196 q 457 132 396 132 q 559 163 517 132 q 623 244 601 193 q 644 360 644 296 q 622 474 644 422 q 558 555 600 525 q 457 585 515 585 q 356 553 399 585 q 290 471 313 522 q 268 360 268 419 z "},"с":{"ha":814,"x_min":38,"x_max":768,"o":"m 768 247 q 706 101 754 163 q 585 9 658 40 q 426 -22 513 -22 q 232 24 321 -22 q 90 156 143 69 q 38 360 38 243 q 90 563 38 476 q 232 694 143 649 q 426 739 321 739 q 585 708 513 739 q 706 617 658 676 q 765 478 753 558 l 582 478 q 524 559 565 532 q 425 586 482 586 q 323 556 367 586 q 256 474 279 526 q 232 358 232 422 q 256 242 232 294 q 323 160 279 190 q 425 131 367 131 q 527 160 483 131 q 586 247 571 189 l 768 247 z "},"т":{"ha":681,"x_min":14,"x_max":667,"o":"m 667 569 l 439 569 l 439 0 l 242 0 l 242 569 l 14 569 l 14 718 l 667 718 l 667 569 z "},"у":{"ha":747,"x_min":7,"x_max":740,"o":"m 214 718 q 300 457 260 574 q 338 345 313 421 q 381 210 363 269 l 383 210 q 417 331 397 264 q 451 442 436 397 q 472 513 465 488 q 535 718 499 594 l 740 718 l 588 288 q 432 -143 540 160 q 362 -244 407 -210 q 246 -278 317 -278 l 97 -278 l 97 -129 l 174 -129 q 231 -115 210 -129 q 261 -65 251 -101 l 278 -12 q 143 349 232 115 q 7 718 50 596 l 214 718 z "},"ў":{"ha":747,"x_min":7,"x_max":740,"o":"m 214 718 q 300 457 260 574 q 338 345 313 421 q 381 210 363 269 l 383 210 q 417 331 397 264 q 451 442 436 397 q 472 513 465 488 q 535 718 499 594 l 740 718 l 588 288 q 432 -143 540 160 q 362 -244 407 -210 q 246 -278 317 -278 l 97 -278 l 97 -129 l 174 -129 q 231 -115 210 -129 q 261 -65 251 -101 l 278 -12 q 143 349 232 115 q 7 718 50 596 l 214 718 m 282 988 q 308 929 283 951 q 374 907 332 907 q 438 929 414 907 q 464 988 463 951 l 601 988 q 534 854 594 903 q 374 806 474 806 q 211 854 272 806 q 143 988 150 903 l 282 988 z "},"ф":{"ha":1088,"x_min":38,"x_max":1050,"o":"m 442 -24 q 239 27 331 -17 q 92 155 147 71 q 38 360 38 239 q 92 563 38 479 q 239 691 147 647 q 442 742 331 735 l 442 992 l 644 992 l 644 742 q 848 691 756 735 q 995 563 940 647 q 1050 360 1050 479 q 995 155 1050 239 q 848 27 940 71 q 644 -24 756 -17 l 644 -278 l 442 -278 l 442 -24 m 228 360 q 253 245 228 294 q 327 165 279 196 q 442 129 375 135 l 442 588 q 327 552 375 582 q 253 473 279 522 q 228 360 228 424 m 644 129 q 760 165 711 135 q 834 245 808 196 q 860 360 860 294 q 834 473 860 424 q 760 552 808 522 q 644 588 711 582 l 644 129 z "},"х":{"ha":750,"x_min":18,"x_max":731,"o":"m 268 365 l 22 718 l 235 718 l 375 515 l 514 718 l 726 718 l 482 367 l 731 0 l 518 0 l 375 217 l 231 0 l 18 0 l 268 365 z "},"ч":{"ha":760,"x_min":42,"x_max":678,"o":"m 333 221 q 117 297 193 221 q 42 517 42 374 l 42 718 l 239 718 l 239 513 q 276 409 239 443 q 394 375 314 375 q 481 382 432 375 l 481 718 l 678 718 l 678 0 l 481 0 l 481 233 q 333 221 410 221 z "},"ц":{"ha":868,"x_min":83,"x_max":844,"o":"m 83 718 l 279 718 l 279 149 l 544 149 l 544 718 l 742 718 l 742 149 l 844 149 l 844 -215 l 663 -215 l 663 0 l 83 0 l 83 718 z "},"ш":{"ha":1211,"x_min":82,"x_max":1128,"o":"m 82 718 l 279 718 l 279 149 l 507 149 l 507 718 l 704 718 l 704 149 l 931 149 l 931 718 l 1128 718 l 1128 0 l 82 0 l 82 718 z "},"щ":{"ha":1254,"x_min":82,"x_max":1232,"o":"m 82 718 l 279 718 l 279 149 l 507 149 l 507 718 l 704 718 l 704 149 l 931 149 l 931 718 l 1128 718 l 1128 149 l 1232 149 l 1232 -215 l 1050 -215 l 1050 0 l 82 0 l 82 718 z "},"џ":{"ha":822,"x_min":82,"x_max":740,"o":"m 319 0 l 82 0 l 82 718 l 278 718 l 278 149 l 543 149 l 543 718 l 740 718 l 740 0 l 501 0 l 501 -215 l 319 -215 l 319 0 z "},"ь":{"ha":728,"x_min":82,"x_max":703,"o":"m 82 718 l 279 718 l 279 479 l 417 479 q 567 450 503 479 q 667 367 632 421 q 703 240 703 313 q 667 113 703 168 q 567 29 632 58 q 417 0 503 0 l 82 0 l 82 718 m 374 126 q 474 157 436 126 q 513 240 513 188 q 474 323 513 293 q 374 353 436 353 l 279 353 l 279 126 l 374 126 z "},"ы":{"ha":1046,"x_min":82,"x_max":964,"o":"m 767 718 l 964 718 l 964 0 l 767 0 l 767 718 m 82 718 l 279 718 l 279 479 l 394 479 q 545 450 481 479 q 645 367 610 421 q 681 240 681 313 q 645 113 681 168 q 545 29 610 58 q 394 0 481 0 l 82 0 l 82 718 m 351 126 q 453 157 415 126 q 492 240 492 188 q 453 323 492 293 q 351 353 415 353 l 279 353 l 279 126 l 351 126 z "},"ъ":{"ha":879,"x_min":7,"x_max":854,"o":"m 235 569 l 7 569 l 7 718 l 432 718 l 432 479 l 569 479 q 719 450 656 479 q 819 367 783 421 q 854 240 854 313 q 819 113 854 168 q 719 29 783 58 q 569 0 656 0 l 235 0 l 235 569 m 522 122 q 623 153 585 122 q 661 239 661 185 q 624 324 661 293 q 522 356 586 356 l 432 356 l 432 122 l 522 122 z "},"љ":{"ha":1163,"x_min":13,"x_max":1138,"o":"m 729 479 l 853 479 q 1003 450 939 479 q 1103 367 1068 421 q 1138 240 1138 313 q 1103 113 1138 167 q 1003 29 1068 58 q 853 0 939 0 l 532 0 l 532 569 l 353 569 q 343 408 349 464 q 326 269 333 319 q 301 165 319 219 q 250 75 282 110 q 158 14 213 33 q 43 -6 104 -6 l 13 -6 l 13 143 l 22 143 q 94 174 64 143 q 158 369 142 221 q 176 718 168 472 l 729 718 l 729 479 m 808 126 q 910 157 872 126 q 949 240 949 188 q 910 323 949 293 q 808 353 872 353 l 729 353 l 729 126 l 808 126 z "},"њ":{"ha":1161,"x_min":82,"x_max":1136,"o":"m 279 449 l 529 449 l 529 718 l 726 718 l 726 449 l 868 449 q 1013 421 953 449 q 1105 343 1074 393 q 1136 226 1136 293 q 1105 106 1136 157 q 1013 28 1074 56 q 868 0 953 0 l 529 0 l 529 306 l 279 306 l 279 0 l 82 0 l 82 718 l 279 718 l 279 449 m 819 125 q 915 151 883 125 q 947 225 947 178 q 915 297 947 271 q 819 324 882 324 l 726 324 l 726 125 l 819 125 z "},"ѕ":{"ha":694,"x_min":38,"x_max":657,"o":"m 464 504 q 424 576 456 553 q 346 600 392 600 q 273 579 301 600 q 244 528 244 558 q 271 474 244 494 q 361 438 297 454 q 413 424 374 433 l 458 411 q 606 335 556 385 q 657 206 657 286 q 619 87 657 139 q 511 6 581 35 q 351 -24 442 -24 q 137 39 221 -24 q 38 224 53 101 l 229 224 q 269 146 238 172 q 353 119 300 119 q 434 141 403 119 q 465 199 465 163 q 438 253 465 236 q 363 283 411 271 q 319 297 338 292 q 288 304 300 301 l 256 313 q 112 392 163 339 q 61 525 61 444 q 97 637 61 588 q 199 714 133 686 q 346 742 264 742 q 553 680 475 742 q 646 504 632 618 l 464 504 z "},"є":{"ha":814,"x_min":38,"x_max":768,"o":"m 238 299 q 302 177 253 224 q 425 131 351 131 q 527 160 483 131 q 586 247 571 189 l 768 247 q 706 101 754 163 q 585 9 658 40 q 426 -22 513 -22 q 232 24 321 -22 q 90 156 143 69 q 38 360 38 243 q 90 563 38 476 q 232 694 143 649 q 426 739 321 739 q 585 708 513 739 q 706 617 658 676 q 765 478 753 558 l 582 478 q 524 559 565 532 q 425 586 482 586 q 305 542 354 586 q 239 426 256 499 l 504 426 l 504 299 l 238 299 z "},"э":{"ha":814,"x_min":46,"x_max":776,"o":"m 310 426 l 575 426 q 509 542 558 499 q 389 586 460 586 q 290 559 332 586 q 232 478 249 532 l 49 478 q 108 617 61 558 q 228 708 156 676 q 388 739 301 739 q 582 694 493 739 q 724 563 671 649 q 776 360 776 476 q 724 156 776 243 q 582 24 671 69 q 388 -22 493 -22 q 228 9 301 -22 q 108 101 156 40 q 46 247 60 163 l 228 247 q 287 160 243 189 q 389 131 331 131 q 512 177 463 131 q 576 299 561 224 l 310 299 l 310 426 z "},"і":{"ha":368,"x_min":82,"x_max":286,"o":"m 83 815 l 83 992 l 286 992 l 286 815 l 83 815 m 82 718 l 279 718 l 279 0 l 82 0 l 82 718 z "},"ї":{"ha":361,"x_min":-32,"x_max":393,"o":"m 82 718 l 279 718 l 279 0 l 82 0 l 82 718 m 129 992 l 129 829 l -32 829 l -32 992 l 129 992 m 231 992 l 393 992 l 393 829 l 231 829 l 231 992 z "},"ј":{"ha":376,"x_min":-26,"x_max":294,"o":"m 93 815 l 93 992 l 294 992 l 294 815 l 93 815 m -26 -125 l 7 -125 q 64 -116 44 -125 q 91 -83 83 -107 q 99 -14 99 -60 l 99 718 l 290 718 l 290 -25 q 270 -161 290 -107 q 200 -244 250 -215 q 61 -274 150 -274 l -26 -274 l -26 -125 z "},"ћ":{"ha":824,"x_min":0,"x_max":747,"o":"m 82 810 l 0 810 l 0 888 l 82 888 l 82 992 l 274 992 l 274 888 l 474 888 l 474 810 l 274 810 l 274 600 q 358 703 306 667 q 489 739 410 739 q 685 658 622 739 q 747 431 747 576 l 747 0 l 551 0 l 551 378 q 525 515 551 464 q 428 567 499 567 q 318 503 357 567 q 279 313 279 439 l 279 0 l 82 0 l 82 810 z "},"ю":{"ha":1124,"x_min":82,"x_max":1086,"o":"m 279 436 l 385 436 q 447 595 399 526 q 568 701 494 664 q 732 739 642 739 q 915 690 835 739 q 1041 555 996 642 q 1086 358 1086 468 q 1041 162 1086 249 q 915 26 996 75 q 732 -22 835 -22 q 566 17 640 -22 q 444 126 492 56 q 383 288 397 196 l 279 288 l 279 0 l 82 0 l 82 718 l 279 718 l 279 436 m 567 358 q 588 242 567 293 q 646 161 608 190 q 732 132 683 132 q 817 161 779 132 q 875 242 854 190 q 896 358 896 293 q 875 475 896 424 q 817 556 854 526 q 732 585 779 585 q 646 556 683 585 q 588 475 608 526 q 567 358 567 424 z "},"я":{"ha":779,"x_min":42,"x_max":697,"o":"m 42 3 q 66 57 54 25 q 88 121 78 89 q 106 172 92 132 q 150 259 124 225 q 219 313 176 293 q 117 386 154 338 q 81 500 81 435 q 115 617 81 568 q 213 692 150 667 q 363 718 276 718 l 697 718 l 697 0 l 500 0 l 500 268 l 444 268 q 382 256 407 268 q 340 221 357 244 q 308 158 324 197 l 292 111 q 279 76 288 101 q 263 31 271 50 q 246 0 254 13 l 42 0 l 42 3 m 269 492 q 308 417 269 443 q 410 390 346 390 l 500 390 l 500 597 l 410 597 q 308 569 346 597 q 269 492 269 542 z "},"ђ":{"ha":829,"x_min":0,"x_max":747,"o":"m 82 810 l 0 810 l 0 888 l 82 888 l 82 992 l 274 992 l 274 888 l 474 888 l 474 810 l 274 810 l 274 600 q 358 703 306 667 q 489 739 410 739 q 685 658 622 739 q 747 431 747 576 l 747 -12 q 728 -159 747 -103 q 659 -244 710 -215 q 514 -274 608 -274 l 435 -274 l 435 -122 l 465 -122 q 519 -111 501 -122 q 544 -74 538 -100 q 551 1 551 -47 l 551 378 q 525 515 551 464 q 428 567 499 567 q 318 503 357 567 q 279 313 279 439 l 279 0 l 82 0 l 82 810 z "},"җ":{"ha":1178,"x_min":15,"x_max":1161,"o":"m 261 374 l 21 718 l 240 718 l 418 439 l 467 439 l 467 718 l 664 718 l 664 439 l 713 439 l 890 718 l 1110 718 l 869 374 l 1018 149 l 1161 149 l 1161 -215 l 979 -215 l 979 0 l 896 0 l 718 289 l 664 289 l 664 0 l 467 0 l 467 289 l 413 289 l 235 0 l 15 0 l 261 374 z "},"қ":{"ha":825,"x_min":82,"x_max":808,"o":"m 82 0 l 82 718 l 279 718 l 279 438 l 340 438 l 539 718 l 764 718 l 503 372 l 663 149 l 808 149 l 808 -215 l 626 -215 l 626 0 l 543 0 l 346 289 l 279 289 l 279 0 l 82 0 z "},"ҝ":{"ha":778,"x_min":82,"x_max":769,"o":"m 82 0 l 82 718 l 279 718 l 279 436 l 310 436 l 310 542 l 357 542 l 357 436 l 368 436 l 539 718 l 764 718 l 532 374 l 769 0 l 543 0 l 375 288 l 357 288 l 357 185 l 310 185 l 310 288 l 279 288 l 279 0 l 82 0 z "},"ң":{"ha":867,"x_min":82,"x_max":843,"o":"m 279 436 l 544 436 l 544 718 l 740 718 l 740 149 l 843 149 l 843 -215 l 661 -215 l 661 0 l 544 0 l 544 288 l 279 288 l 279 0 l 82 0 l 82 718 l 279 718 l 279 436 z "},"ү":{"ha":742,"x_min":7,"x_max":735,"o":"m 211 718 q 276 514 261 560 q 371 208 339 324 l 375 208 q 410 333 389 261 q 448 453 432 404 q 472 529 464 503 q 533 718 485 567 l 735 718 q 469 -35 614 378 l 469 -278 l 272 -278 l 272 -35 l 7 718 l 211 718 z "},"ҳ":{"ha":797,"x_min":18,"x_max":781,"o":"m 268 365 l 22 718 l 235 718 l 375 515 l 514 718 l 726 718 l 482 367 l 629 149 l 781 149 l 781 -215 l 599 -215 l 599 0 l 518 0 l 375 217 l 231 0 l 18 0 l 268 365 z "},"ҹ":{"ha":760,"x_min":42,"x_max":678,"o":"m 343 221 l 333 221 q 117 297 193 221 q 42 517 42 374 l 42 718 l 239 718 l 239 513 q 264 422 239 454 q 343 379 289 389 l 343 481 l 390 481 l 390 375 l 394 375 q 481 382 432 375 l 481 718 l 678 718 l 678 0 l 481 0 l 481 233 q 390 222 425 225 l 390 124 l 343 124 l 343 221 z "},"һ":{"ha":824,"x_min":82,"x_max":747,"o":"m 82 992 l 274 992 l 274 600 q 358 703 306 667 q 489 739 410 739 q 685 658 622 739 q 747 431 747 576 l 747 0 l 551 0 l 551 378 q 525 515 551 464 q 428 567 499 567 q 318 503 357 567 q 279 313 279 439 l 279 0 l 82 0 l 82 992 z "},"ӏ":{"ha":361,"x_min":82,"x_max":279,"o":"m 279 992 l 279 0 l 82 0 l 82 992 l 279 992 z "},"ә":{"ha":814,"x_min":43,"x_max":776,"o":"m 54 507 q 125 631 76 578 q 245 713 174 683 q 404 742 317 742 q 597 694 513 742 q 729 558 682 646 q 776 358 776 471 q 728 163 776 250 q 594 27 679 76 q 401 -22 508 -22 q 206 30 286 -22 q 85 172 125 82 q 43 375 44 261 q 44 414 43 399 l 589 414 q 556 504 582 465 q 492 564 531 543 q 404 585 453 585 q 311 565 351 585 q 251 507 271 546 l 54 507 m 232 288 q 283 172 240 219 q 404 125 326 125 q 526 169 478 125 q 588 288 575 214 l 232 288 z "},"ө":{"ha":839,"x_min":38,"x_max":800,"o":"m 419 -22 q 228 24 315 -22 q 89 158 140 71 q 38 360 38 244 q 89 561 38 475 q 228 693 140 647 q 419 739 315 739 q 610 693 524 739 q 749 561 697 647 q 800 360 800 475 q 749 158 800 244 q 610 24 697 71 q 419 -22 524 -22 m 233 300 q 299 178 250 225 q 419 132 349 132 q 540 179 490 132 q 604 300 589 226 l 233 300 m 601 428 q 537 542 585 499 q 419 586 489 586 q 301 542 350 586 q 236 428 253 499 l 601 428 z "},"Α":{"ha":996,"x_min":14,"x_max":982,"o":"m 14 0 l 371 992 l 628 992 l 982 0 l 767 0 l 682 249 l 313 249 l 226 0 l 14 0 m 626 411 l 499 804 l 494 804 l 367 411 l 626 411 z "},"Β":{"ha":883,"x_min":99,"x_max":832,"o":"m 99 992 l 447 992 q 705 926 611 992 q 799 731 799 861 q 757 592 799 646 q 631 508 715 538 l 631 506 q 776 433 719 486 q 832 283 832 381 q 731 66 832 132 q 440 0 629 0 l 99 0 l 99 992 m 418 167 q 533 178 488 167 q 604 217 579 189 q 629 297 629 246 q 583 394 629 367 q 449 422 536 422 l 303 422 l 303 167 l 418 167 m 414 583 q 553 611 508 583 q 597 710 597 639 q 578 782 597 757 q 522 817 558 807 q 428 826 485 826 l 303 826 l 303 583 l 414 583 z "},"Γ":{"ha":747,"x_min":99,"x_max":728,"o":"m 99 992 l 728 992 l 728 818 l 303 818 l 303 0 l 99 0 l 99 992 z "},"Δ":{"ha":1024,"x_min":14,"x_max":1010,"o":"m 385 992 l 642 992 l 1010 0 l 14 0 l 385 992 m 738 161 l 513 804 l 508 804 l 283 161 l 738 161 z "},"Ε":{"ha":824,"x_min":99,"x_max":756,"o":"m 751 818 l 303 818 l 303 585 l 722 585 l 722 415 l 303 415 l 303 174 l 756 174 l 756 0 l 99 0 l 99 992 l 751 992 l 751 818 z "},"Ζ":{"ha":856,"x_min":58,"x_max":810,"o":"m 539 822 l 78 822 l 78 992 l 796 992 l 796 860 l 301 169 l 810 169 l 810 0 l 58 0 l 58 165 l 539 822 z "},"Η":{"ha":1008,"x_min":99,"x_max":906,"o":"m 906 992 l 906 0 l 701 0 l 701 411 l 303 411 l 303 0 l 99 0 l 99 992 l 303 992 l 303 583 l 701 583 l 701 992 l 906 992 z "},"Θ":{"ha":1132,"x_min":46,"x_max":1089,"o":"m 568 1015 q 847 944 728 1015 q 1027 755 965 874 q 1089 496 1089 636 q 1027 237 1089 356 q 847 47 965 118 q 568 -24 728 -24 q 290 47 408 -24 q 108 237 171 118 q 46 496 46 356 q 108 755 46 636 q 290 944 171 874 q 568 1015 408 1015 m 250 496 q 288 321 250 400 q 399 196 326 242 q 568 150 471 150 q 736 196 664 150 q 847 321 808 242 q 885 496 885 400 q 847 671 885 592 q 736 796 808 750 q 568 842 664 842 q 399 796 471 842 q 288 671 326 750 q 250 496 250 592 m 357 578 l 775 578 l 775 411 l 357 411 l 357 578 z "},"Ι":{"ha":401,"x_min":99,"x_max":303,"o":"m 303 992 l 303 0 l 99 0 l 99 992 l 303 992 z "},"Κ":{"ha":946,"x_min":99,"x_max":935,"o":"m 99 0 l 99 992 l 303 992 l 303 556 l 688 992 l 932 992 l 551 575 l 935 0 l 699 0 l 422 433 l 303 304 l 303 0 l 99 0 z "},"Λ":{"ha":939,"x_min":7,"x_max":932,"o":"m 354 992 l 585 992 l 932 0 l 717 0 l 469 742 l 467 742 l 224 0 l 7 0 l 354 992 z "},"Μ":{"ha":1244,"x_min":99,"x_max":1160,"o":"m 99 992 l 399 992 l 633 246 l 635 246 l 863 992 l 1160 992 l 1160 0 l 969 0 l 969 740 l 964 740 l 731 0 l 529 0 l 294 740 l 290 740 l 290 0 l 99 0 l 99 992 z "},"Ν":{"ha":1047,"x_min":99,"x_max":947,"o":"m 374 992 l 647 468 l 753 250 q 749 519 749 371 l 749 992 l 947 992 l 947 0 l 676 0 l 432 458 q 383 560 410 507 q 347 631 357 613 q 294 736 314 694 q 297 565 297 689 l 297 443 l 297 0 l 99 0 l 99 992 l 374 992 z "},"Ξ":{"ha":863,"x_min":57,"x_max":806,"o":"m 57 174 l 806 174 l 806 0 l 57 0 l 57 174 m 60 992 l 801 992 l 801 818 l 60 818 l 60 992 m 107 583 l 758 583 l 758 415 l 107 415 l 107 583 z "},"Ο":{"ha":1132,"x_min":46,"x_max":1089,"o":"m 568 1015 q 847 944 728 1015 q 1027 755 965 874 q 1089 496 1089 636 q 1027 237 1089 356 q 847 47 965 118 q 568 -24 728 -24 q 290 47 408 -24 q 108 237 171 118 q 46 496 46 356 q 108 755 46 636 q 290 944 171 874 q 568 1015 408 1015 m 250 496 q 288 321 250 400 q 399 196 326 242 q 568 150 471 150 q 736 196 664 150 q 847 321 808 242 q 885 496 885 400 q 847 671 885 592 q 736 796 808 750 q 568 842 664 842 q 399 796 471 842 q 288 671 326 750 q 250 496 250 592 z "},"Π":{"ha":1008,"x_min":99,"x_max":908,"o":"m 908 0 l 704 0 l 704 818 l 303 818 l 303 0 l 99 0 l 99 992 l 908 992 l 908 0 z "},"Ρ":{"ha":881,"x_min":99,"x_max":840,"o":"m 453 519 q 587 559 536 519 q 638 675 638 599 q 588 786 638 750 q 454 822 539 822 l 303 822 l 303 519 l 453 519 m 99 992 l 468 992 q 666 951 582 992 q 795 840 750 911 q 840 679 840 768 q 791 513 840 588 q 656 394 742 438 q 467 351 571 351 l 303 351 l 303 0 l 99 0 l 99 992 z "},"Σ":{"ha":843,"x_min":61,"x_max":801,"o":"m 318 174 l 801 174 l 801 0 l 61 0 l 61 157 l 374 496 l 61 835 l 61 992 l 801 992 l 801 818 l 318 818 l 596 496 l 318 174 z "},"Τ":{"ha":807,"x_min":15,"x_max":789,"o":"m 15 992 l 789 992 l 789 818 l 504 818 l 504 0 l 300 0 l 300 818 l 15 818 l 15 992 z "},"Υ":{"ha":878,"x_min":15,"x_max":879,"o":"m 315 850 q 451 572 375 731 q 586 849 492 651 q 654 992 607 894 l 879 992 l 547 379 l 547 0 l 343 0 l 343 379 l 15 992 l 246 992 l 315 850 z "},"Φ":{"ha":1185,"x_min":15,"x_max":1168,"o":"m 490 78 q 238 140 344 86 q 73 285 131 193 q 15 499 15 378 q 73 706 15 617 q 238 849 131 796 q 490 908 344 901 l 490 1038 l 694 1038 l 694 908 q 946 851 839 903 q 1110 708 1053 799 q 1168 499 1168 618 q 1110 283 1168 376 q 946 138 1053 190 q 694 78 839 85 l 694 -46 l 490 -46 l 490 78 m 219 499 q 252 372 219 426 q 345 285 285 318 q 490 244 406 251 l 490 743 q 345 705 406 736 q 252 621 285 674 q 219 499 219 568 m 694 244 q 839 285 778 251 q 932 372 900 318 q 964 499 964 426 q 931 621 964 568 q 838 705 899 674 q 694 743 778 736 l 694 244 z "},"Χ":{"ha":938,"x_min":8,"x_max":938,"o":"m 351 501 l 11 992 l 250 992 l 472 657 l 697 992 l 933 990 l 592 500 l 938 0 l 693 0 l 472 340 l 249 0 l 8 0 l 351 501 z "},"Ψ":{"ha":1128,"x_min":38,"x_max":1090,"o":"m 461 242 q 140 365 243 251 q 38 681 38 479 l 38 992 l 242 992 l 242 681 q 296 495 242 564 q 461 417 350 426 l 461 992 l 665 992 l 665 415 q 832 490 778 421 q 886 681 886 560 l 886 992 l 1090 992 l 1090 681 q 987 364 1090 482 q 665 240 883 246 l 665 0 l 461 0 l 461 242 z "},"Ω":{"ha":1040,"x_min":57,"x_max":985,"o":"m 57 165 l 290 165 l 290 229 q 123 374 188 281 q 58 593 58 468 q 117 808 58 714 q 281 956 175 903 q 521 1008 386 1008 q 760 956 656 1008 q 924 808 865 903 q 982 593 982 714 q 918 375 982 469 q 753 229 854 281 l 753 165 l 985 165 l 985 0 l 590 0 l 590 342 q 735 428 682 365 q 789 589 789 492 q 755 719 789 661 q 659 810 721 778 q 519 843 597 843 q 381 810 442 843 q 287 719 321 778 q 253 589 253 661 q 306 428 253 492 q 451 342 360 365 l 451 0 l 57 0 l 57 165 z "},"Ά":{"ha":993,"x_min":-24,"x_max":982,"o":"m 14 0 l 371 992 l 628 992 l 982 0 l 767 0 l 682 249 l 313 249 l 226 0 l 14 0 m 626 411 l 499 804 l 494 804 l 367 411 l 626 411 m 242 992 l 117 783 l -24 783 l 54 992 l 242 992 z "},"Έ":{"ha":824,"x_min":-214,"x_max":756,"o":"m 751 818 l 303 818 l 303 585 l 722 585 l 722 415 l 303 415 l 303 174 l 756 174 l 756 0 l 99 0 l 99 992 l 751 992 l 751 818 m 51 992 l -74 783 l -214 783 l -136 992 l 51 992 z "},"Ή":{"ha":1008,"x_min":-214,"x_max":906,"o":"m 906 992 l 906 0 l 701 0 l 701 411 l 303 411 l 303 0 l 99 0 l 99 992 l 303 992 l 303 583 l 701 583 l 701 992 l 906 992 m 51 992 l -74 783 l -214 783 l -136 992 l 51 992 z "},"Ί":{"ha":401,"x_min":-210,"x_max":303,"o":"m 303 992 l 303 0 l 99 0 l 99 992 l 303 992 m 56 992 l -69 783 l -210 783 l -132 992 l 56 992 z "},"Ό":{"ha":1132,"x_min":-128,"x_max":1089,"o":"m 568 1015 q 847 944 728 1015 q 1027 755 965 874 q 1089 496 1089 636 q 1027 237 1089 356 q 847 47 965 118 q 568 -24 728 -24 q 290 47 408 -24 q 108 237 171 118 q 46 496 46 356 q 108 755 46 636 q 290 944 171 874 q 568 1015 408 1015 m 250 496 q 288 321 250 400 q 399 196 326 242 q 568 150 471 150 q 736 196 664 150 q 847 321 808 242 q 885 496 885 400 q 847 671 885 592 q 736 796 808 750 q 568 842 664 842 q 399 796 471 842 q 288 671 326 750 q 250 496 250 592 m 138 992 l 13 783 l -128 783 l -50 992 l 138 992 z "},"Ύ":{"ha":878,"x_min":-274,"x_max":879,"o":"m 315 850 q 451 572 375 731 q 586 849 492 651 q 654 992 607 894 l 879 992 l 547 379 l 547 0 l 343 0 l 343 379 l 15 992 l 246 992 l 315 850 m -8 992 l -133 783 l -274 783 l -196 992 l -8 992 z "},"Ώ":{"ha":1040,"x_min":-137,"x_max":985,"o":"m 57 165 l 290 165 l 290 229 q 123 374 188 281 q 58 593 58 468 q 117 808 58 714 q 281 956 175 903 q 521 1008 386 1008 q 760 956 656 1008 q 924 808 865 903 q 982 593 982 714 q 918 375 982 469 q 753 229 854 281 l 753 165 l 985 165 l 985 0 l 590 0 l 590 342 q 735 428 682 365 q 789 589 789 492 q 755 719 789 661 q 659 810 721 778 q 519 843 597 843 q 381 810 442 843 q 287 719 321 778 q 253 589 253 661 q 306 428 253 492 q 451 342 360 365 l 451 0 l 57 0 l 57 165 m 128 992 l 3 783 l -137 783 l -60 992 l 128 992 z "},"Ϊ":{"ha":401,"x_min":-1,"x_max":404,"o":"m 303 992 l 303 0 l 99 0 l 99 992 l 303 992 m 151 1222 l 151 1064 l -1 1064 l -1 1222 l 151 1222 m 254 1222 l 404 1222 l 404 1064 l 254 1064 l 254 1222 z "},"Ϋ":{"ha":878,"x_min":15,"x_max":879,"o":"m 315 850 q 451 572 375 731 q 586 849 492 651 q 654 992 607 894 l 879 992 l 547 379 l 547 0 l 343 0 l 343 379 l 15 992 l 246 992 l 315 850 m 389 1222 l 389 1064 l 236 1064 l 236 1222 l 389 1222 m 492 1222 l 642 1222 l 642 1064 l 492 1064 l 492 1222 z "},"Ϗ":{"ha":797,"x_min":-36,"x_max":788,"o":"m 81 117 l -36 117 l -36 276 l 81 276 l 81 888 l 278 888 l 278 613 l 550 888 l 788 888 l 479 589 l 771 276 l 771 117 l 278 117 l 278 0 l 81 0 l 81 117 m 540 276 l 358 474 l 278 399 l 278 276 l 540 276 z "},"α":{"ha":900,"x_min":38,"x_max":881,"o":"m 376 -19 q 192 28 268 -19 q 76 162 115 76 q 38 358 38 247 q 77 552 38 465 q 188 689 117 639 q 351 739 260 739 q 494 707 438 739 q 575 628 550 675 l 576 628 l 576 718 l 774 718 l 774 271 q 791 178 774 206 q 850 151 808 151 q 881 154 856 151 l 881 -7 q 786 -11 833 -11 q 658 15 704 -11 q 593 93 611 40 q 512 13 569 44 q 376 -19 454 -19 m 238 358 q 259 247 238 296 q 320 169 281 197 q 414 140 360 140 q 515 167 472 140 q 581 244 558 194 q 604 358 604 293 q 581 474 604 424 q 515 552 558 524 q 414 581 472 581 q 321 551 361 581 q 259 472 281 522 q 238 358 238 421 z "},"β":{"ha":822,"x_min":75,"x_max":792,"o":"m 75 658 q 162 921 75 829 q 415 1013 249 1013 q 589 983 515 1013 q 703 894 663 953 q 743 754 743 836 q 702 623 743 678 q 586 546 661 568 l 586 544 q 738 456 685 522 q 792 274 792 389 q 757 118 792 185 q 659 15 722 51 q 510 -21 596 -21 q 369 6 435 -21 q 272 79 304 33 l 271 79 l 271 -271 l 75 -271 l 75 658 m 271 325 q 319 198 274 244 q 444 151 365 151 q 524 171 489 151 q 577 226 558 190 q 596 308 596 261 q 572 390 596 356 q 506 444 547 425 q 417 463 465 463 l 375 463 l 375 597 q 504 633 460 599 q 549 732 549 668 q 531 798 549 769 q 483 842 514 826 q 414 857 453 857 q 310 819 350 857 q 271 713 271 781 l 271 325 z "},"γ":{"ha":811,"x_min":21,"x_max":790,"o":"m 303 -14 q 78 568 210 218 l 21 718 l 225 718 l 244 664 q 401 196 343 379 l 406 196 q 496 456 442 296 l 588 718 l 790 718 l 732 569 q 500 -7 606 240 l 499 -278 l 301 -278 l 303 -14 z "},"δ":{"ha":790,"x_min":38,"x_max":753,"o":"m 396 -22 q 217 19 299 -22 q 86 137 135 60 q 38 319 38 214 q 67 463 38 401 q 144 561 96 524 q 254 613 193 599 l 256 615 q 147 695 183 649 q 110 810 110 742 q 440 1008 110 1008 q 676 989 546 1008 l 676 839 q 458 860 538 860 q 327 838 361 860 q 293 788 293 817 q 342 726 293 756 q 501 664 392 696 q 633 596 576 643 q 722 481 690 549 q 753 331 753 413 q 704 141 753 221 q 574 19 656 61 q 396 -22 493 -22 m 236 331 q 256 230 236 275 q 311 159 275 185 q 396 133 347 133 q 479 159 443 133 q 535 230 515 185 q 554 331 554 275 q 535 431 554 386 q 479 501 515 475 q 396 526 443 526 q 311 501 347 526 q 256 431 275 475 q 236 331 236 386 z "},"ε":{"ha":742,"x_min":50,"x_max":729,"o":"m 372 -18 q 200 8 272 -18 q 89 81 128 33 q 50 196 50 129 q 90 314 50 268 q 201 378 129 360 l 201 379 q 107 442 140 399 q 74 547 74 485 q 109 651 74 608 q 208 716 144 694 q 360 738 272 738 q 535 710 458 738 q 660 629 613 683 q 717 497 707 575 l 542 497 q 490 563 533 538 q 386 588 447 588 q 297 566 332 588 q 263 508 263 544 q 297 449 263 472 q 394 426 331 426 l 474 426 l 471 301 l 385 301 q 281 278 317 301 q 246 213 246 254 q 284 149 246 172 q 389 126 322 126 q 497 152 456 126 q 547 217 539 178 l 729 217 q 672 92 721 144 q 546 10 624 39 q 372 -18 468 -18 z "},"ζ":{"ha":690,"x_min":44,"x_max":672,"o":"m 449 -222 q 456 -160 456 -183 q 440 -99 456 -124 q 387 -56 425 -75 q 281 -17 349 -36 q 44 238 44 49 q 82 392 44 314 q 199 572 119 471 q 424 829 278 672 l 47 829 l 47 992 l 672 992 l 672 842 q 415 566 501 663 q 282 396 329 469 q 235 269 235 322 q 258 207 235 232 q 326 163 281 182 q 451 121 371 143 q 576 67 531 100 q 638 -7 621 35 q 656 -104 656 -49 q 644 -222 656 -153 l 449 -222 z "},"η":{"ha":824,"x_min":82,"x_max":747,"o":"m 551 378 q 525 515 551 464 q 428 567 499 567 q 318 503 357 567 q 279 313 279 439 l 279 0 l 82 0 l 82 718 l 274 718 l 274 599 q 358 702 306 665 q 489 739 410 739 q 685 658 622 739 q 747 431 747 576 l 747 -278 l 551 -278 l 551 378 z "},"θ":{"ha":894,"x_min":51,"x_max":843,"o":"m 449 -22 q 239 42 329 -22 q 100 224 149 106 q 51 499 51 342 q 100 772 51 654 q 239 953 149 889 q 449 1017 329 1017 q 656 953 567 1017 q 794 772 746 889 q 843 499 843 654 q 794 224 843 342 q 656 42 746 106 q 449 -22 567 -22 m 246 424 q 281 272 254 336 q 351 172 308 207 q 449 138 394 138 q 544 172 501 138 q 615 272 588 207 q 650 424 642 336 l 246 424 m 650 574 q 615 724 642 660 q 544 824 588 789 q 449 858 501 858 q 352 824 394 858 q 282 724 310 789 q 246 574 254 660 l 650 574 z "},"ι":{"ha":400,"x_min":75,"x_max":379,"o":"m 285 -7 q 153 22 199 -7 q 92 106 108 51 q 75 251 75 161 l 75 718 l 272 718 l 272 275 q 289 183 272 210 q 349 157 306 157 q 379 160 354 157 l 379 -3 q 285 -7 332 -7 z "},"κ":{"ha":788,"x_min":75,"x_max":782,"o":"m 75 0 l 75 718 l 272 718 l 272 431 l 546 718 l 782 718 l 481 408 l 778 0 l 547 0 l 347 278 l 272 207 l 272 0 l 75 0 z "},"λ":{"ha":774,"x_min":8,"x_max":765,"o":"m 8 0 q 285 725 192 483 l 268 758 q 240 806 254 789 q 203 830 225 822 q 144 838 181 838 l 81 838 l 81 1000 l 147 1000 q 315 974 257 1000 q 401 902 374 947 q 463 767 428 857 l 474 735 q 708 143 579 476 l 765 0 l 561 0 l 381 493 l 379 493 l 210 0 l 8 0 z "},"μ":{"ha":826,"x_min":76,"x_max":742,"o":"m 76 718 l 274 718 l 274 304 q 303 194 274 236 q 396 151 333 151 q 506 215 468 151 q 544 406 544 279 l 544 718 l 742 718 l 742 0 l 550 0 l 550 119 q 335 -21 485 -21 q 301 -17 318 -21 q 274 -6 285 -12 l 274 -278 l 76 -278 l 76 718 z "},"ν":{"ha":743,"x_min":8,"x_max":736,"o":"m 213 718 q 278 514 263 560 q 372 208 340 324 l 376 208 q 412 333 390 261 q 449 453 433 404 q 474 529 465 503 q 535 718 486 567 l 736 718 q 676 550 701 621 q 635 435 651 479 q 481 0 507 74 l 261 0 q 8 718 157 290 l 213 718 z "},"ξ":{"ha":683,"x_min":42,"x_max":681,"o":"m 486 -222 q 492 -167 492 -181 q 476 -105 492 -129 q 422 -61 460 -81 q 314 -22 385 -42 q 115 70 179 14 q 50 218 50 126 q 116 374 50 314 q 294 450 182 433 l 294 451 q 173 493 225 464 q 94 563 121 522 q 67 649 67 603 q 211 838 67 774 l 42 829 l 42 992 l 646 992 l 646 900 l 649 835 q 475 814 564 832 q 321 756 386 796 q 256 653 256 717 q 288 590 256 618 q 381 544 319 561 q 529 524 442 526 l 529 369 q 316 340 390 369 q 242 251 242 310 q 265 198 242 219 q 333 160 288 176 q 464 119 378 143 q 596 64 549 97 q 662 -12 643 31 q 681 -111 681 -54 q 671 -222 681 -151 l 486 -222 z "},"ο":{"ha":839,"x_min":38,"x_max":800,"o":"m 421 -22 q 229 24 317 -22 q 90 156 142 69 q 38 360 38 243 q 89 563 38 476 q 228 694 140 649 q 421 739 317 739 q 610 694 524 739 q 749 563 697 649 q 800 360 800 476 q 749 156 800 243 q 610 24 697 69 q 421 -22 524 -22 m 233 360 q 256 246 233 297 q 322 165 279 194 q 421 135 365 135 q 517 165 475 135 q 583 246 560 194 q 606 360 606 297 q 583 472 606 421 q 517 553 560 524 q 421 583 475 583 q 322 553 365 583 q 256 472 279 524 q 233 360 233 421 z "},"π":{"ha":911,"x_min":32,"x_max":881,"o":"m 151 568 l 32 568 l 32 718 l 881 718 l 881 568 l 746 568 l 746 275 q 763 183 746 210 q 822 157 779 157 q 853 160 828 157 l 853 -3 q 758 -7 806 -7 q 627 22 672 -7 q 565 106 582 51 q 549 251 549 161 l 549 568 l 349 568 l 349 0 l 151 0 l 151 568 z "},"ρ":{"ha":843,"x_min":68,"x_max":804,"o":"m 475 -22 q 265 107 322 -22 l 264 107 l 264 -278 l 68 -278 l 68 378 q 122 572 72 490 q 253 697 171 654 q 436 739 336 739 q 619 694 535 739 q 753 563 703 649 q 804 360 804 476 q 762 167 804 254 q 644 28 719 79 q 475 -22 569 -22 m 250 360 q 271 243 250 294 q 333 163 292 192 q 429 133 374 133 q 525 163 485 133 q 587 244 565 193 q 608 360 608 296 q 587 473 608 422 q 525 553 565 524 q 429 583 485 583 q 333 553 374 583 q 271 473 292 524 q 250 360 250 422 z "},"ς":{"ha":814,"x_min":50,"x_max":771,"o":"m 50 367 q 97 572 50 488 q 226 697 144 656 q 408 739 307 739 q 576 707 499 739 q 706 609 654 675 q 771 446 758 543 l 589 446 q 530 549 576 514 q 417 583 483 583 q 325 559 364 583 q 265 490 286 535 q 243 388 243 446 q 267 272 243 318 q 339 194 290 225 q 469 139 388 164 q 613 70 561 108 q 686 -16 665 32 q 707 -129 707 -64 q 700 -222 707 -167 l 517 -222 q 521 -164 521 -189 q 506 -93 521 -121 q 453 -44 490 -65 q 346 1 417 -22 q 126 135 203 50 q 50 367 50 219 z "},"σ":{"ha":844,"x_min":38,"x_max":831,"o":"m 421 -22 q 225 23 313 -22 q 88 154 138 68 q 38 360 38 240 q 90 564 38 478 q 235 694 143 650 q 442 739 328 739 q 796 726 553 739 l 831 725 l 831 572 l 665 579 q 762 476 732 539 q 792 339 792 414 q 749 160 792 242 q 622 28 706 78 q 421 -22 538 -22 m 228 360 q 251 244 228 296 q 319 163 275 193 q 421 133 363 133 q 522 163 479 133 q 588 244 565 193 q 611 360 611 296 q 588 474 611 424 q 522 554 565 525 q 421 583 479 583 q 319 554 363 583 q 251 474 275 525 q 228 360 228 422 z "},"τ":{"ha":636,"x_min":18,"x_max":618,"o":"m 18 718 l 618 718 l 618 568 l 400 568 l 400 275 q 408 206 400 231 q 433 169 415 181 q 482 157 450 157 q 517 160 489 157 l 517 -3 q 419 -7 485 -7 q 285 22 332 -7 q 222 106 239 51 q 206 251 206 161 l 206 568 l 18 568 l 18 718 z "},"υ":{"ha":814,"x_min":76,"x_max":738,"o":"m 407 -18 q 160 60 244 -18 q 76 304 76 138 l 76 718 l 274 718 l 274 340 q 301 195 274 253 q 407 138 328 138 q 514 195 486 138 q 542 340 542 253 l 542 718 l 738 718 l 738 304 q 653 60 738 138 q 407 -18 569 -18 z "},"φ":{"ha":1107,"x_min":38,"x_max":1069,"o":"m 649 992 l 649 738 q 870 682 775 732 q 1017 549 965 632 q 1069 360 1069 465 q 1017 170 1069 254 q 870 35 965 86 q 649 -21 775 -15 l 649 -278 l 450 -278 l 450 -22 q 233 33 326 -17 q 89 168 140 83 q 38 360 38 253 q 89 549 38 465 q 233 683 140 633 q 450 739 326 733 l 450 992 l 649 992 m 226 361 q 255 253 226 301 q 334 174 283 204 q 450 140 385 144 l 450 581 q 334 547 385 576 q 255 469 283 517 q 226 361 226 421 m 649 140 q 767 177 715 147 q 849 255 819 207 q 878 361 878 303 q 849 467 878 419 q 767 544 819 514 q 649 581 715 574 l 649 140 z "},"χ":{"ha":813,"x_min":10,"x_max":800,"o":"m 294 228 l 11 718 l 217 718 l 404 390 l 592 718 l 800 718 l 511 235 l 800 -278 l 594 -278 l 403 63 l 218 -278 l 10 -278 l 294 228 z "},"ψ":{"ha":1160,"x_min":76,"x_max":1083,"o":"m 682 992 l 682 143 q 833 218 779 151 q 888 396 888 285 l 888 718 l 1083 718 l 1083 354 q 1035 162 1083 244 q 897 33 988 79 q 682 -18 807 -14 l 682 -278 l 485 -278 l 485 -18 q 266 33 358 -14 q 125 161 174 79 q 76 354 76 243 l 76 718 l 274 718 l 274 396 q 329 217 274 283 q 485 143 385 150 l 485 992 l 682 992 z "},"ω":{"ha":1119,"x_min":51,"x_max":1068,"o":"m 342 -19 q 188 23 253 -19 q 87 144 122 65 q 51 332 51 224 q 90 533 51 443 q 203 679 129 624 q 376 742 276 735 l 376 579 q 274 503 307 569 q 240 333 240 438 q 272 190 240 244 q 364 136 304 136 q 459 196 426 136 q 492 358 492 256 l 492 489 l 628 489 l 628 358 q 660 196 628 256 q 756 136 693 136 q 849 190 817 136 q 881 333 881 244 q 847 503 881 438 q 743 579 813 569 l 743 742 q 917 679 844 735 q 1029 533 990 624 q 1068 332 1068 443 q 1033 144 1068 224 q 932 23 997 65 q 779 -19 867 -19 q 679 3 725 -19 q 603 65 633 25 q 561 158 574 106 l 560 158 q 518 66 549 107 q 442 3 488 25 q 342 -19 396 -19 z "},"ί":{"ha":400,"x_min":75,"x_max":379,"o":"m 285 -7 q 153 22 199 -7 q 92 106 108 51 q 75 251 75 161 l 75 718 l 272 718 l 272 275 q 289 183 272 210 q 349 157 306 157 q 379 160 354 157 l 379 -3 q 285 -7 332 -7 m 368 1003 l 226 799 l 81 799 l 167 1003 l 368 1003 z "},"ϊ":{"ha":400,"x_min":-39,"x_max":386,"o":"m 285 -7 q 153 22 199 -7 q 92 106 108 51 q 75 251 75 161 l 75 718 l 272 718 l 272 275 q 289 183 272 210 q 349 157 306 157 q 379 160 354 157 l 379 -3 q 285 -7 332 -7 m 122 992 l 122 829 l -39 829 l -39 992 l 122 992 m 224 992 l 386 992 l 386 829 l 224 829 l 224 992 z "},"ΐ":{"ha":400,"x_min":-126,"x_max":475,"o":"m 285 -7 q 153 22 199 -7 q 92 106 108 51 q 75 251 75 161 l 75 718 l 272 718 l 272 275 q 289 183 272 210 q 349 157 306 157 q 379 160 354 157 l 379 -3 q 285 -7 332 -7 m 35 990 l 35 828 l -126 828 l -126 990 l 35 990 m 99 1026 l 289 1026 l 221 794 l 74 794 l 99 1026 m 313 990 l 475 990 l 475 828 l 313 828 l 313 990 z "},"ύ":{"ha":811,"x_min":76,"x_max":738,"o":"m 407 -18 q 160 60 244 -18 q 76 304 76 138 l 76 718 l 274 718 l 274 340 q 301 195 274 253 q 407 138 328 138 q 514 195 486 138 q 542 340 542 253 l 542 718 l 738 718 l 738 304 q 653 60 738 138 q 407 -18 569 -18 m 601 1003 l 460 799 l 314 799 l 400 1003 l 601 1003 z "},"ϋ":{"ha":811,"x_min":76,"x_max":738,"o":"m 407 -18 q 160 60 244 -18 q 76 304 76 138 l 76 718 l 274 718 l 274 340 q 301 195 274 253 q 407 138 328 138 q 514 195 486 138 q 542 340 542 253 l 542 718 l 738 718 l 738 304 q 653 60 738 138 q 407 -18 569 -18 m 356 992 l 356 829 l 194 829 l 194 992 l 356 992 m 457 992 l 619 992 l 619 829 l 457 829 l 457 992 z "},"ΰ":{"ha":811,"x_min":76,"x_max":738,"o":"m 407 -18 q 160 60 244 -18 q 76 304 76 138 l 76 718 l 274 718 l 274 340 q 301 195 274 253 q 407 138 328 138 q 514 195 486 138 q 542 340 542 253 l 542 718 l 738 718 l 738 304 q 653 60 738 138 q 407 -18 569 -18 m 267 990 l 267 828 l 106 828 l 106 990 l 267 990 m 331 1026 l 521 1026 l 453 794 l 306 794 l 331 1026 m 544 990 l 707 990 l 707 828 l 544 828 l 544 990 z "},"ό":{"ha":840,"x_min":38,"x_max":800,"o":"m 421 -22 q 229 24 317 -22 q 90 156 142 69 q 38 360 38 243 q 89 563 38 476 q 228 694 140 649 q 421 739 317 739 q 610 694 524 739 q 749 563 697 649 q 800 360 800 476 q 749 156 800 243 q 610 24 697 69 q 421 -22 524 -22 m 233 360 q 256 246 233 297 q 322 165 279 194 q 421 135 365 135 q 517 165 475 135 q 583 246 560 194 q 606 360 606 297 q 583 472 606 421 q 517 553 560 524 q 421 583 475 583 q 322 553 365 583 q 256 472 279 524 q 233 360 233 421 m 615 1003 l 474 799 l 328 799 l 414 1003 l 615 1003 z "},"ώ":{"ha":1121,"x_min":51,"x_max":1068,"o":"m 342 -19 q 188 23 253 -19 q 87 144 122 65 q 51 332 51 224 q 90 533 51 443 q 203 679 129 624 q 376 742 276 735 l 376 579 q 274 503 307 569 q 240 333 240 438 q 272 190 240 244 q 364 136 304 136 q 459 196 426 136 q 492 358 492 256 l 492 489 l 628 489 l 628 358 q 660 196 628 256 q 756 136 693 136 q 849 190 817 136 q 881 333 881 244 q 847 503 881 438 q 743 579 813 569 l 743 742 q 917 679 844 735 q 1029 533 990 624 q 1068 332 1068 443 q 1033 144 1068 224 q 932 23 997 65 q 779 -19 867 -19 q 679 3 725 -19 q 603 65 633 25 q 561 158 574 106 l 560 158 q 518 66 549 107 q 442 3 488 25 q 342 -19 396 -19 m 754 1003 l 613 799 l 467 799 l 553 1003 l 754 1003 z "},"ά":{"ha":901,"x_min":38,"x_max":881,"o":"m 376 -19 q 192 28 268 -19 q 76 162 115 76 q 38 358 38 247 q 77 552 38 465 q 188 689 117 639 q 351 739 260 739 q 494 707 438 739 q 575 628 550 675 l 576 628 l 576 718 l 774 718 l 774 271 q 791 178 774 206 q 850 151 808 151 q 881 154 856 151 l 881 -7 q 786 -11 833 -11 q 658 15 704 -11 q 593 93 611 40 q 512 13 569 44 q 376 -19 454 -19 m 238 358 q 259 247 238 296 q 320 169 281 197 q 414 140 360 140 q 515 167 472 140 q 581 244 558 194 q 604 358 604 293 q 581 474 604 424 q 515 552 558 524 q 414 581 472 581 q 321 551 361 581 q 259 472 281 522 q 238 358 238 421 m 578 1003 l 436 799 l 290 799 l 376 1003 l 578 1003 z "},"έ":{"ha":742,"x_min":50,"x_max":729,"o":"m 372 -18 q 200 8 272 -18 q 89 81 128 33 q 50 196 50 129 q 90 314 50 268 q 201 378 129 360 l 201 379 q 107 442 140 399 q 74 547 74 485 q 109 651 74 608 q 208 716 144 694 q 360 738 272 738 q 535 710 458 738 q 660 629 613 683 q 717 497 707 575 l 542 497 q 490 563 533 538 q 386 588 447 588 q 297 566 332 588 q 263 508 263 544 q 297 449 263 472 q 394 426 331 426 l 474 426 l 471 301 l 385 301 q 281 278 317 301 q 246 213 246 254 q 284 149 246 172 q 389 126 322 126 q 497 152 456 126 q 547 217 539 178 l 729 217 q 672 92 721 144 q 546 10 624 39 q 372 -18 468 -18 m 551 1003 l 410 799 l 264 799 l 350 1003 l 551 1003 z "},"ή":{"ha":826,"x_min":82,"x_max":747,"o":"m 551 378 q 525 515 551 464 q 428 567 499 567 q 318 503 357 567 q 279 313 279 439 l 279 0 l 82 0 l 82 718 l 274 718 l 274 599 q 358 702 306 665 q 489 739 410 739 q 685 658 622 739 q 747 431 747 576 l 747 -278 l 551 -278 l 551 378 m 594 1003 l 453 799 l 307 799 l 393 1003 l 594 1003 z "},"ϗ":{"ha":840,"x_min":82,"x_max":856,"o":"m 82 0 l 82 718 l 279 718 l 279 431 l 553 718 l 789 718 l 468 389 l 644 189 l 732 278 l 856 143 l 432 -278 l 194 -275 l 515 54 l 336 260 l 279 207 l 279 0 l 82 0 z "},"⁄":{"ha":378,"x_min":-85,"x_max":461,"o":"m 79 -7 l -85 -7 l 297 1000 l 461 1000 l 79 -7 z "},"½":{"ha":1201,"x_min":26,"x_max":1167,"o":"m 182 785 l 26 785 l 26 869 q 131 897 88 869 q 200 992 175 924 l 321 992 l 321 396 l 182 396 l 182 785 m 447 -7 l 283 -7 l 665 1000 l 829 1000 l 447 -7 m 717 0 q 731 108 715 67 q 780 181 746 150 q 883 258 814 213 q 974 321 949 301 q 1010 361 999 340 q 1021 417 1021 382 q 1001 469 1021 447 q 947 490 981 490 q 890 467 913 490 q 865 396 867 443 l 725 396 q 755 503 725 456 q 835 578 785 551 q 944 606 885 606 q 1060 582 1011 606 q 1135 517 1110 558 q 1161 426 1161 476 q 1149 347 1161 381 q 1111 282 1138 313 q 1038 215 1085 251 q 961 164 1011 194 q 897 119 915 136 l 1167 119 l 1167 0 l 717 0 z "},"⅓":{"ha":1196,"x_min":26,"x_max":1164,"o":"m 182 785 l 26 785 l 26 869 q 131 897 88 869 q 200 992 175 924 l 321 992 l 321 396 l 182 396 l 182 785 m 439 -7 l 275 -7 l 657 1000 l 821 1000 l 439 -7 m 947 -14 q 782 31 842 -14 q 708 161 722 75 l 704 175 l 843 175 l 844 167 q 874 118 850 136 q 942 100 899 100 q 1005 122 981 100 q 1029 178 1029 143 q 1004 231 1029 213 q 938 250 979 250 q 876 249 896 250 l 876 357 l 931 357 q 985 374 964 357 q 1007 425 1007 392 q 986 473 1007 456 q 933 490 965 490 q 885 476 904 490 q 861 433 867 461 l 860 421 l 719 421 q 785 556 729 506 q 933 606 840 606 q 1088 561 1031 606 q 1146 436 1146 517 q 1122 357 1146 388 q 1061 311 1099 326 q 1164 158 1164 279 q 1138 74 1164 113 q 1062 10 1111 35 q 947 -14 1013 -14 z "},"⅔":{"ha":1301,"x_min":33,"x_max":1269,"o":"m 35 396 q 49 504 33 463 q 98 577 64 546 q 201 654 132 608 q 292 717 267 697 q 328 757 317 736 q 339 813 339 778 q 319 865 339 843 q 265 886 299 886 q 208 863 231 886 q 183 792 185 839 l 43 792 q 73 899 43 851 q 153 974 103 947 q 263 1001 203 1001 q 378 978 329 1001 q 453 913 428 954 q 479 822 479 872 q 467 742 479 776 q 429 678 456 708 q 356 611 403 647 q 279 560 329 590 q 215 515 233 532 l 485 515 l 485 396 l 35 396 m 575 -7 l 411 -7 l 793 1000 l 957 1000 l 575 -7 m 1053 -14 q 888 31 947 -14 q 814 161 828 75 l 810 175 l 949 175 l 950 167 q 980 118 956 136 q 1047 100 1004 100 q 1110 122 1086 100 q 1135 178 1135 143 q 1110 231 1135 213 q 1043 250 1085 250 q 982 249 1001 250 l 982 357 l 1036 357 q 1091 374 1069 357 q 1113 425 1113 392 q 1092 473 1113 456 q 1039 490 1071 490 q 991 476 1010 490 q 967 433 972 461 l 965 421 l 825 421 q 890 556 835 506 q 1039 606 946 606 q 1194 561 1136 606 q 1251 436 1251 517 q 1228 357 1251 388 q 1167 311 1204 326 q 1269 158 1269 279 q 1243 74 1269 113 q 1167 10 1217 35 q 1053 -14 1118 -14 z "},"¼":{"ha":1144,"x_min":26,"x_max":1115,"o":"m 182 785 l 26 785 l 26 869 q 131 897 88 869 q 200 992 175 924 l 321 992 l 321 396 l 182 396 l 182 785 m 446 -7 l 282 -7 l 664 1000 l 828 1000 l 446 -7 m 901 132 l 644 132 l 644 281 l 885 596 l 1040 596 l 1040 247 l 1115 247 l 1115 132 l 1040 132 l 1040 0 l 901 0 l 901 132 m 901 247 l 901 439 l 900 439 l 760 247 l 901 247 z "},"¾":{"ha":1218,"x_min":32,"x_max":1190,"o":"m 275 382 q 110 426 169 382 q 36 557 50 471 l 32 571 l 171 571 l 172 563 q 202 514 178 532 q 269 496 226 496 q 333 517 308 496 q 357 574 357 539 q 332 627 357 608 q 265 646 307 646 q 204 644 224 646 l 204 753 l 258 753 q 313 770 292 753 q 335 821 335 788 q 314 869 335 851 q 261 886 293 886 q 213 872 232 886 q 189 829 194 857 l 188 817 l 47 817 q 113 951 57 901 q 261 1001 168 1001 q 416 957 358 1001 q 474 832 474 913 q 450 753 474 783 q 389 707 426 722 q 492 554 492 675 q 465 469 492 508 q 390 406 439 431 q 275 382 340 382 m 532 -7 l 368 -7 l 750 1000 l 914 1000 l 532 -7 m 976 132 l 719 132 l 719 281 l 960 596 l 1115 596 l 1115 247 l 1190 247 l 1190 132 l 1115 132 l 1115 0 l 976 0 l 976 132 m 976 247 l 976 439 l 975 439 l 835 247 l 976 247 z "},"⅛":{"ha":1193,"x_min":26,"x_max":1158,"o":"m 182 785 l 26 785 l 26 869 q 131 897 88 869 q 200 992 175 924 l 321 992 l 321 396 l 182 396 l 182 785 m 446 -7 l 282 -7 l 664 1000 l 828 1000 l 446 -7 m 936 -14 q 769 34 826 -14 q 713 165 713 82 q 745 263 714 222 q 819 317 776 303 q 758 365 781 332 q 735 447 735 399 q 757 526 735 489 q 825 585 779 563 q 936 608 871 608 q 1047 585 1001 608 q 1114 526 1092 563 q 1136 447 1136 489 q 1113 365 1136 397 q 1050 317 1090 332 q 1103 288 1079 308 q 1143 235 1128 267 q 1158 165 1158 203 q 1101 34 1158 82 q 936 -14 1044 -14 m 842 174 q 867 112 842 138 q 936 86 892 86 q 1003 112 979 86 q 1028 174 1028 138 q 1017 215 1028 196 q 986 247 1007 235 q 936 260 965 260 q 885 247 906 260 q 853 215 864 235 q 842 174 842 196 m 863 436 q 882 386 863 406 q 936 367 901 367 q 990 385 971 367 q 1010 436 1010 404 q 990 485 1010 467 q 936 504 971 504 q 882 485 901 504 q 863 436 863 467 z "},"⅜":{"ha":1278,"x_min":32,"x_max":1243,"o":"m 275 382 q 110 426 169 382 q 36 557 50 471 l 32 571 l 171 571 l 172 563 q 202 514 178 532 q 269 496 226 496 q 333 517 308 496 q 357 574 357 539 q 332 627 357 608 q 265 646 307 646 q 204 644 224 646 l 204 753 l 258 753 q 313 770 292 753 q 335 821 335 788 q 314 869 335 851 q 261 886 293 886 q 213 872 232 886 q 189 829 194 857 l 188 817 l 47 817 q 113 951 57 901 q 261 1001 168 1001 q 416 957 358 1001 q 474 832 474 913 q 450 753 474 783 q 389 707 426 722 q 492 554 492 675 q 465 469 492 508 q 390 406 439 431 q 275 382 340 382 m 535 -7 l 371 -7 l 753 1000 l 917 1000 l 535 -7 m 1021 -14 q 854 34 911 -14 q 797 165 797 82 q 830 263 799 222 q 904 317 861 303 q 842 365 865 332 q 819 447 819 399 q 842 526 819 489 q 910 585 864 563 q 1021 608 956 608 q 1131 585 1086 608 q 1199 526 1176 563 q 1221 447 1221 489 q 1198 365 1221 397 q 1135 317 1175 332 q 1188 288 1164 308 q 1228 235 1213 267 q 1243 165 1243 203 q 1186 34 1243 82 q 1021 -14 1129 -14 m 926 174 q 951 112 926 138 q 1021 86 976 86 q 1088 112 1064 86 q 1113 174 1113 138 q 1102 215 1113 196 q 1071 247 1092 235 q 1021 260 1050 260 q 969 247 990 260 q 938 215 949 235 q 926 174 926 196 m 947 436 q 967 386 947 406 q 1021 367 986 367 q 1075 385 1056 367 q 1094 436 1094 404 q 1075 485 1094 467 q 1021 504 1056 504 q 967 485 986 504 q 947 436 947 467 z "},"⅝":{"ha":1275,"x_min":35,"x_max":1240,"o":"m 268 382 q 104 433 156 382 q 35 551 53 483 l 175 556 q 206 516 183 532 q 265 500 228 500 q 328 527 306 500 q 350 596 350 554 q 328 660 350 635 q 267 686 306 686 q 213 675 232 686 q 176 640 194 664 l 43 649 l 92 993 l 446 992 l 446 876 l 211 876 l 196 769 q 235 792 211 785 q 290 800 260 800 q 396 774 350 800 q 467 702 442 749 q 492 594 492 656 q 461 486 492 535 q 379 410 431 438 q 268 382 328 382 m 540 -7 l 376 -7 l 758 1000 l 922 1000 l 540 -7 m 1018 -14 q 851 34 908 -14 q 794 165 794 82 q 827 263 796 222 q 901 317 858 303 q 840 365 863 332 q 817 447 817 399 q 839 526 817 489 q 907 585 861 563 q 1018 608 953 608 q 1128 585 1083 608 q 1196 526 1174 563 q 1218 447 1218 489 q 1195 365 1218 397 q 1132 317 1172 332 q 1185 288 1161 308 q 1225 235 1210 267 q 1240 165 1240 203 q 1183 34 1240 82 q 1018 -14 1126 -14 m 924 174 q 949 112 924 138 q 1018 86 974 86 q 1085 112 1061 86 q 1110 174 1110 138 q 1099 215 1110 196 q 1068 247 1089 235 q 1018 260 1047 260 q 967 247 988 260 q 935 215 946 235 q 924 174 924 196 m 944 436 q 964 386 944 406 q 1018 367 983 367 q 1072 385 1053 367 q 1092 436 1092 404 q 1072 485 1092 467 q 1018 504 1053 504 q 964 485 983 504 q 944 436 944 467 z "},"⅞":{"ha":1194,"x_min":26,"x_max":1160,"o":"m 97 396 q 163 678 110 554 q 286 869 215 801 l 26 869 l 26 992 l 457 992 l 457 903 q 349 761 397 844 q 272 583 301 678 q 236 396 242 488 l 97 396 m 418 -7 l 254 -7 l 636 1000 l 800 1000 l 418 -7 m 938 -14 q 771 34 828 -14 q 714 165 714 82 q 747 263 715 222 q 821 317 778 303 q 759 365 782 332 q 736 447 736 399 q 758 526 736 489 q 826 585 781 563 q 938 608 872 608 q 1048 585 1003 608 q 1115 526 1093 563 q 1138 447 1138 489 q 1115 365 1138 397 q 1051 317 1092 332 q 1105 288 1081 308 q 1144 235 1129 267 q 1160 165 1160 203 q 1103 34 1160 82 q 938 -14 1046 -14 m 843 174 q 868 112 843 138 q 938 86 893 86 q 1005 112 981 86 q 1029 174 1029 138 q 1019 215 1029 196 q 988 247 1008 235 q 938 260 967 260 q 886 247 907 260 q 854 215 865 235 q 843 174 843 196 m 864 436 q 883 386 864 406 q 938 367 903 367 q 992 385 972 367 q 1011 436 1011 404 q 992 485 1011 467 q 938 504 972 504 q 883 485 903 504 q 864 436 864 467 z "},"¹":{"ha":383,"x_min":26,"x_max":321,"o":"m 182 932 l 26 932 l 26 1017 q 131 1044 88 1017 q 200 1139 175 1071 l 321 1139 l 321 543 l 182 543 l 182 932 z "},"²":{"ha":519,"x_min":33,"x_max":485,"o":"m 35 543 q 49 651 33 610 q 98 724 64 693 q 201 801 132 756 q 292 864 267 844 q 328 904 317 883 q 339 960 339 925 q 319 1012 339 990 q 265 1033 299 1033 q 208 1010 231 1033 q 183 939 185 986 l 43 939 q 73 1047 43 999 q 153 1122 103 1094 q 263 1149 203 1149 q 378 1125 329 1149 q 453 1060 428 1101 q 479 969 479 1019 q 467 890 479 924 q 429 825 456 856 q 356 758 403 794 q 279 707 329 738 q 215 663 233 679 l 485 663 l 485 543 l 35 543 z "},"³":{"ha":524,"x_min":32,"x_max":492,"o":"m 275 529 q 110 574 169 529 q 36 704 50 618 l 32 718 l 171 718 l 172 710 q 202 661 178 679 q 269 643 226 643 q 333 665 308 643 q 357 721 357 686 q 332 774 357 756 q 265 793 307 793 q 204 792 224 793 l 204 900 l 258 900 q 313 917 292 900 q 335 968 335 935 q 314 1016 335 999 q 261 1033 293 1033 q 213 1019 232 1033 q 189 976 194 1004 l 188 964 l 47 964 q 113 1099 57 1049 q 261 1149 168 1149 q 416 1104 358 1149 q 474 979 474 1060 q 450 900 474 931 q 389 854 426 869 q 492 701 492 822 q 465 617 492 656 q 390 553 439 578 q 275 529 340 529 z "},"﻿":{"ha":4,"x_min":0,"x_max":0,"o":""}," ":{"ha":315,"x_min":0,"x_max":0,"o":""},"·":{"ha":331,"x_min":76,"x_max":254,"o":"m 165 451 q 210 440 189 451 q 242 407 231 428 q 254 363 254 386 q 242 320 254 340 q 209 287 229 300 q 167 274 189 274 q 122 285 143 274 q 89 318 101 297 q 76 363 76 339 q 88 407 76 386 q 121 440 100 428 q 165 451 142 451 z "},";":{"ha":383,"x_min":25,"x_max":319,"o":"z "},".":{"ha":349,"x_min":76,"x_max":272,"o":"m 272 189 l 272 0 l 76 0 l 76 189 l 272 189 z "},",":{"ha":375,"x_min":25,"x_max":319,"o":"m 319 189 l 197 -179 l 25 -179 l 108 189 l 319 189 z "},":":{"ha":349,"x_min":76,"x_max":272,"o":"m 272 663 l 272 474 l 76 474 l 76 663 l 272 663 m 272 189 l 272 0 l 76 0 l 76 189 l 272 189 z "},";":{"ha":388,"x_min":25,"x_max":319,"o":"m 319 189 l 197 -179 l 25 -179 l 108 189 l 319 189 m 294 663 l 294 474 l 99 474 l 99 663 l 294 663 z "},"…":{"ha":1072,"x_min":76,"x_max":996,"o":"m 272 189 l 272 0 l 76 0 l 76 189 l 272 189 m 633 189 l 633 0 l 438 0 l 438 189 l 633 189 m 996 189 l 996 0 l 800 0 l 800 189 l 996 189 z "},"!":{"ha":406,"x_min":101,"x_max":306,"o":"m 268 275 l 139 275 l 101 697 l 101 992 l 306 992 l 306 697 l 268 275 m 106 189 l 301 189 l 301 0 l 106 0 l 106 189 z "},"¡":{"ha":406,"x_min":101,"x_max":306,"o":"m 306 -274 l 101 -274 l 101 21 l 139 443 l 268 443 l 306 21 l 306 -274 m 106 718 l 301 718 l 301 529 l 106 529 l 106 718 z "},"?":{"ha":775,"x_min":64,"x_max":713,"o":"m 65 707 q 108 863 69 793 q 218 974 146 933 q 392 1015 290 1015 q 566 978 493 1015 q 676 878 639 942 q 713 732 713 814 q 697 639 713 679 q 658 570 681 599 q 596 503 635 542 q 532 438 554 463 q 494 380 510 413 q 479 308 479 347 l 479 279 l 286 279 l 286 322 q 321 461 286 404 q 413 569 356 518 q 472 622 450 601 q 508 670 493 643 q 522 729 522 697 q 488 822 522 788 q 392 857 454 857 q 319 838 350 857 q 269 784 288 818 q 250 707 251 750 l 247 676 l 64 676 l 65 707 m 279 189 l 483 189 l 483 0 l 279 0 l 279 189 z "},"¿":{"ha":736,"x_min":60,"x_max":708,"o":"m 707 17 q 665 -140 703 -69 q 554 -251 626 -210 q 381 -292 482 -292 q 206 -255 279 -292 q 97 -154 133 -218 q 60 -8 60 -90 q 76 85 60 44 q 115 153 92 125 q 176 221 138 182 q 240 286 218 261 q 278 344 263 311 q 293 415 293 376 l 293 444 l 486 444 l 486 401 q 451 263 486 319 q 360 154 417 206 q 301 101 322 122 q 265 53 279 81 q 250 -6 250 26 q 284 -99 250 -64 q 381 -133 318 -133 q 453 -114 422 -133 q 503 -60 485 -94 q 522 17 521 -26 l 525 47 l 708 47 l 707 17 m 288 724 l 492 724 l 492 535 l 288 535 l 288 724 z "},"·":{"ha":331,"x_min":76,"x_max":254,"o":"m 165 451 q 210 440 189 451 q 242 407 231 428 q 254 363 254 386 q 242 320 254 340 q 209 287 229 300 q 167 274 189 274 q 122 285 143 274 q 89 318 101 297 q 76 363 76 339 q 88 407 76 386 q 121 440 100 428 q 165 451 142 451 z "},"•":{"ha":710,"x_min":99,"x_max":611,"o":"m 356 617 q 485 583 426 617 q 577 492 543 550 q 611 363 611 433 q 577 233 611 292 q 485 139 543 174 q 356 104 426 104 q 226 139 285 104 q 133 233 167 174 q 99 363 99 292 q 133 492 99 433 q 226 583 167 550 q 356 617 285 617 z "},"*":{"ha":542,"x_min":44,"x_max":499,"o":"m 79 975 l 219 925 l 219 1069 l 321 1069 l 321 925 l 463 975 l 499 879 l 358 829 l 442 711 l 357 653 l 269 779 l 183 653 l 99 711 l 182 831 l 44 879 l 79 975 z "},"#":{"ha":833,"x_min":44,"x_max":788,"o":"m 401 992 l 360 697 l 531 697 l 572 992 l 708 992 l 667 697 l 788 697 l 788 575 l 650 575 l 625 393 l 746 393 l 746 271 l 607 271 l 569 0 l 433 0 l 471 271 l 300 271 l 263 0 l 128 0 l 165 271 l 44 271 l 44 393 l 183 393 l 208 575 l 88 575 l 88 697 l 225 697 l 267 992 l 401 992 m 489 393 l 514 575 l 343 575 l 318 393 l 489 393 z "},"/":{"ha":497,"x_min":-15,"x_max":496,"o":"m 496 1079 l 154 -143 l -15 -143 l 326 1079 l 496 1079 z "},"\\":{"ha":488,"x_min":1,"x_max":503,"o":"m 503 -135 l 340 -135 l 1 1071 l 164 1071 l 503 -135 z "},"-":{"ha":688,"x_min":99,"x_max":588,"o":"m 588 438 l 588 285 l 99 285 l 99 438 l 588 438 z "},"­":{"ha":688,"x_min":99,"x_max":588,"o":"m 588 438 l 588 285 l 99 285 l 99 438 l 588 438 z "},"–":{"ha":992,"x_min":99,"x_max":892,"o":"m 892 438 l 892 285 l 99 285 l 99 438 l 892 438 z "},"—":{"ha":1325,"x_min":99,"x_max":1226,"o":"m 1226 438 l 1226 285 l 99 285 l 99 438 l 1226 438 z "},"‑":{"ha":688,"x_min":99,"x_max":588,"o":"m 588 438 l 588 285 l 99 285 l 99 438 l 588 438 z "},"_":{"ha":967,"x_min":-3,"x_max":969,"o":"m 969 -47 l 969 -118 l -3 -118 l -3 -47 l 969 -47 z "},"(":{"ha":456,"x_min":61,"x_max":453,"o":"m 285 -275 q 118 49 175 -106 q 61 375 61 204 q 119 706 61 539 q 285 1015 178 872 l 453 1015 q 310 703 356 860 q 264 375 264 546 q 310 42 264 200 q 453 -275 356 -115 l 285 -275 z "},")":{"ha":456,"x_min":3,"x_max":394,"o":"m 3 -275 q 146 42 100 -115 q 192 375 192 200 q 146 703 192 546 q 3 1015 100 860 l 171 1015 q 336 706 278 872 q 394 375 394 539 q 338 49 394 204 q 171 -275 281 -106 l 3 -275 z "},"{":{"ha":482,"x_min":56,"x_max":451,"o":"m 415 865 q 349 746 349 865 l 349 558 q 327 459 349 500 q 277 397 306 418 q 228 372 249 376 l 228 368 q 277 347 249 365 q 327 287 306 328 q 349 182 349 246 l 349 -6 q 363 -91 349 -57 q 415 -125 378 -125 l 451 -125 l 451 -275 l 321 -275 q 250 -253 285 -275 q 193 -190 215 -232 q 171 -93 171 -149 l 171 144 q 138 250 171 215 q 56 285 106 285 l 56 454 q 113 470 86 454 q 155 517 139 486 q 171 596 171 549 l 171 833 q 193 931 171 889 q 250 994 215 972 q 321 1015 285 1015 l 451 1015 l 451 865 l 415 865 z "},"}":{"ha":482,"x_min":31,"x_max":426,"o":"m 31 865 l 31 1015 l 161 1015 q 232 994 197 1015 q 289 931 267 972 q 311 833 311 889 l 311 596 q 327 517 311 549 q 369 470 343 486 q 426 454 396 454 l 426 285 q 344 250 376 285 q 311 144 311 215 l 311 -93 q 289 -190 311 -149 q 232 -253 267 -232 q 161 -275 197 -275 l 31 -275 l 31 -125 l 67 -125 q 119 -91 104 -125 q 133 -6 133 -57 l 133 182 q 155 287 133 246 q 205 347 176 328 q 254 368 233 365 l 254 372 q 205 397 233 376 q 155 459 176 418 q 133 558 133 500 l 133 746 q 67 865 133 865 l 31 865 z "},"[":{"ha":438,"x_min":99,"x_max":414,"o":"m 276 863 l 276 -122 l 414 -122 l 414 -275 l 99 -275 l 99 1015 l 414 1015 l 414 863 l 276 863 z "},"]":{"ha":438,"x_min":24,"x_max":339,"o":"m 24 1015 l 339 1015 l 339 -275 l 24 -275 l 24 -122 l 161 -122 l 161 863 l 24 863 l 24 1015 z "},"‚":{"ha":375,"x_min":25,"x_max":319,"o":"z "},"„":{"ha":646,"x_min":25,"x_max":590,"o":"z "},"“":{"ha":646,"x_min":56,"x_max":621,"o":"m 326 635 l 449 1003 l 621 1003 l 538 635 l 326 635 m 178 1003 l 350 1003 l 267 635 l 56 635 l 178 1003 z "},"”":{"ha":646,"x_min":25,"x_max":590,"o":"z "},"‘":{"ha":375,"x_min":56,"x_max":350,"o":"m 56 635 l 178 1003 l 350 1003 l 267 635 l 56 635 z "},"’":{"ha":375,"x_min":25,"x_max":319,"o":"m 319 1003 l 197 635 l 25 635 l 108 1003 l 319 1003 z "},"«":{"ha":735,"x_min":39,"x_max":694,"o":"m 231 681 l 401 681 l 229 358 l 401 38 l 231 38 l 39 358 l 231 681 m 524 681 l 694 681 l 522 358 l 694 38 l 524 38 l 332 358 l 524 681 z "},"»":{"ha":735,"x_min":40,"x_max":696,"o":"m 504 38 l 333 38 l 506 358 l 333 681 l 504 681 l 696 358 l 504 38 m 213 358 l 40 681 l 211 681 l 403 358 l 211 38 l 40 38 l 213 358 z "},"‹":{"ha":442,"x_min":39,"x_max":401,"o":"m 231 681 l 401 681 l 229 358 l 401 38 l 231 38 l 39 358 l 231 681 z "},"›":{"ha":442,"x_min":40,"x_max":403,"o":"m 211 38 l 40 38 l 213 358 l 40 681 l 211 681 l 403 358 l 211 38 z "}}}
